SplineFontDB: 3.2
FontName: nn
FullName: nasin nanpa
FamilyName: nasin-nanpa
Weight: Regular
Copyright: jan Itan li mama. jan mute a li pona e pali ona.
Version: 4.0.0
ItalicAngle: 0
UnderlinePosition: 0
UnderlineWidth: 0
Ascent: 1000
Descent: 0
InvalidEm: 0
sfntRevision: 0x00010000
LayerCount: 2
Layer: 0 0 "Back" 1
Layer: 1 0 "Fore" 0
XUID: [1021 700 1229584016 12833]
StyleMap: 0x0040
FSType: 0
OS2Version: 3
OS2_WeightWidthSlopeOnly: 0
OS2_UseTypoMetrics: 0
CreationTime: 1640950552
ModificationTime: 1708507379
PfmFamily: 81
TTFWeight: 400
TTFWidth: 5
LineGap: 0
VLineGap: 0
Panose: 0 0 8 9 0 0 0 6 0 0
OS2TypoAscent: 1000
OS2TypoAOffset: 0
OS2TypoDescent: 0
OS2TypoDOffset: 0
OS2TypoLinegap: 0
OS2WinAscent: 1000
OS2WinAOffset: 0
OS2WinDescent: 386
OS2WinDOffset: 0
HheadAscent: 1000
HheadAOffset: 0
HheadDescent: -386
HheadDOffset: 0
OS2SubXSize: 650
OS2SubYSize: 699
OS2SubXOff: 0
OS2SubYOff: 140
OS2SupXSize: 650
OS2SupYSize: 699
OS2SupXOff: 0
OS2SupYOff: 479
OS2StrikeYSize: 49
OS2StrikeYPos: 258
OS2CapHeight: 1000
OS2XHeight: 500
OS2Vendor: 'XXXX'
OS2CodePages: 00000001.00000000
OS2UnicodeRanges: 0000000c.00000000.00000000.00000000
Lookup: 4 0 0 "'liga' SPACE" { "'liga' SPACE"  } ['liga' ('DFLT' <'dflt' 'latn' > 'latn' <'dflt' > ) ]
Lookup: 4 0 0 "'liga' WORDS" { "'liga' WORD PLUS SPACE"  "'liga' WORD"  } ['liga' ('DFLT' <'dflt' 'latn' > 'latn' <'dflt' > ) ]
Lookup: 4 0 0 "'liga' VARIATIONS AND SPECIALS" { "'liga' VARIATIONS AND SPECIALS"  } ['liga' ('DFLT' <'dflt' 'latn' > 'latn' <'dflt' > ) ]
Lookup: 4 0 0 "'liga' START CONTAINER" { "'liga' START CONTAINER"  } ['liga' ('DFLT' <'dflt' 'latn' > 'latn' <'dflt' > ) ]
Lookup: 4 0 0 "'liga' JOIN STACK" { "'liga' JOIN STACK"  } ['liga' ('DFLT' <'dflt' 'latn' > 'latn' <'dflt' > ) ]
Lookup: 4 0 0 "'liga' GLYPH THEN JOINER" { "'liga' GLYPH THEN JOINER"  } ['liga' ('DFLT' <'dflt' 'latn' > 'latn' <'dflt' > ) ]
Lookup: 2 0 0 "'ccmp' RESPAWN JOINER" { "'ccmp' RESPAWN JOINER"  } ['ccmp' ('DFLT' <'dflt' > 'latn' <'dflt' > ) ]

StartChar: startCartTok
Encoding: 16 989584 16
Width: 500
LayerCount: 2
Fore
SplineSet
110 250 m 2
 110 58 307 -100 500 -100 c 0
 528 -100 550 -122 550 -150 c 0
 550 -178 528 -200 500 -200 c 0
 251 -200 10 0 10 250 c 2
 10 550 l 2
 10 800 251 1000 500 1000 c 0
 528 1000 550 978 550 950 c 0
 550 922 528 900 500 900 c 0
 307 900 110 742 110 550 c 2
 110 250 l 2
EndSplineSet
Ligature2: "'liga' WORD PLUS SPACE" bracketleft space
Ligature2: "'liga' WORD" bracketleft
Colour: aaafff
EndChar

StartChar: endCartTok
Encoding: 17 989585 17
Width: 500
LayerCount: 2
Fore
SplineSet
0 -100 m 0
 193 -100 390 58 390 250 c 2
 390 550 l 2
 390 742 193 900 0 900 c 0
 -28 900 -50 922 -50 950 c 0
 -50 978 -28 1000 0 1000 c 0
 249 1000 490 800 490 550 c 2
 490 250 l 2
 490 0 249 -200 0 -200 c 0
 -28 -200 -50 -178 -50 -150 c 0
 -50 -122 -28 -100 0 -100 c 0
EndSplineSet
Ligature2: "'liga' WORD PLUS SPACE" bracketright space
Ligature2: "'liga' WORD" bracketright
Colour: aaafff
EndChar

StartChar: combCartExtTok
Encoding: 18 989586 18
Width: 0
LayerCount: 2
Fore
SplineSet
-1050 -150 m 0
 -1050 -122 -1028 -100 -1000 -100 c 2
 0 -100 l 2
 28 -100 50 -122 50 -150 c 0
 50 -178 28 -200 0 -200 c 2
 -1000 -200 l 2
 -1028 -200 -1050 -178 -1050 -150 c 0
-1050 950 m 0
 -1050 978 -1028 1000 -1000 1000 c 2
 0 1000 l 2
 28 1000 50 978 50 950 c 0
 50 922 28 900 0 900 c 2
 -1000 900 l 2
 -1028 900 -1050 922 -1050 950 c 0
EndSplineSet
Ligature2: "'liga' WORD PLUS SPACE" equal space
Ligature2: "'liga' WORD" equal
Colour: aaafff
EndChar

StartChar: startLongPiTok
Encoding: 19 989587 19
Width: 1000
LayerCount: 2
Fore
SplineSet
500 900 m 0
 528 900 550 878 550 850 c 2
 550 -100 l 1
 1000 -100 l 2
 1028 -100 1050 -122 1050 -150 c 0
 1050 -178 1028 -200 1000 -200 c 2
 500 -200 l 2
 472 -200 450 -178 450 -150 c 2
 450 850 l 2
 450 878 472 900 500 900 c 0
EndSplineSet
Colour: aaafff
EndChar

StartChar: startLongGlyphTok
Encoding: 23 989591 23
Width: 0
LayerCount: 2
Fore
SplineSet
0 -200 m 0
 -28 -200 -50 -178 -50 -150 c 0
 -50 -122 -28 -100 0 -100 c 0
 28 -100 50 -122 50 -150 c 0
 50 -178 28 -200 0 -200 c 0
EndSplineSet
Ligature2: "'liga' WORD PLUS SPACE" parenleft space
Ligature2: "'liga' WORD" parenleft
Colour: aaafff
EndChar

StartChar: endLongGlyphTok
Encoding: 24 989592 24
Width: 0
LayerCount: 2
Fore
SplineSet
0 -200 m 0
 -28 -200 -50 -178 -50 -150 c 0
 -50 -122 -28 -100 0 -100 c 0
 28 -100 50 -122 50 -150 c 0
 50 -178 28 -200 0 -200 c 0
EndSplineSet
Ligature2: "'liga' WORD PLUS SPACE" parenright space
Ligature2: "'liga' WORD" parenright
Colour: aaafff
EndChar

StartChar: combLongGlyphExtTok
Encoding: 25 989593 25
Width: 0
LayerCount: 2
Fore
SplineSet
-1050 -150 m 0
 -1050 -122 -1028 -100 -1000 -100 c 2
 0 -100 l 2
 28 -100 50 -122 50 -150 c 0
 50 -178 28 -200 0 -200 c 2
 -1000 -200 l 2
 -1028 -200 -1050 -178 -1050 -150 c 0
EndSplineSet
Ligature2: "'liga' WORD PLUS SPACE" underscore space
Ligature2: "'liga' WORD" underscore
Colour: aaafff
EndChar

StartChar: startRevLongGlyphTok
Encoding: 26 989594 26
Width: 0
LayerCount: 2
Fore
SplineSet
0 -200 m 0
 -28 -200 -50 -178 -50 -150 c 0
 -50 -122 -28 -100 0 -100 c 0
 28 -100 50 -122 50 -150 c 0
 50 -178 28 -200 0 -200 c 0
EndSplineSet
Colour: aaafff
EndChar

StartChar: endRevLongGlyphTok
Encoding: 27 989595 27
Width: 0
LayerCount: 2
Fore
SplineSet
0 -200 m 0
 -28 -200 -50 -178 -50 -150 c 0
 -50 -122 -28 -100 0 -100 c 0
 28 -100 50 -122 50 -150 c 0
 50 -178 28 -200 0 -200 c 0
EndSplineSet
Colour: aaafff
EndChar

StartChar: exclam
Encoding: 33 33 33
Width: 500
LayerCount: 2
Fore
SplineSet
250 58 m 0
 242 58 236 52 236 44 c 0
 236 36 242 30 250 30 c 0
 258 30 264 36 264 44 c 0
 264 52 258 58 250 58 c 0
250 120 m 0
 292 120 326 86 326 44 c 0
 326 2 292 -32 250 -32 c 0
 208 -32 174 2 174 44 c 0
 174 86 208 120 250 120 c 0
250 794 m 0
 275 794 295 774 295 750 c 2
 295 222 l 2
 295 198 275 178 250 178 c 0
 225 178 206 198 206 222 c 2
 206 750 l 2
 206 774 225 794 250 794 c 0
EndSplineSet
Substitution2: "'ss01' CART SUB" exclam_combCartExtTok
Substitution2: "'ss01' CONT SUB" exclam_combLongGlyphExtTok
Colour: fffaaa
EndChar

StartChar: quotedbl
Encoding: 34 34 34
Width: 500
LayerCount: 2
Fore
SplineSet
325 793 m 0
 350 793 370 773 370 749 c 2
 370 593 l 2
 370 569 350 549 325 549 c 0
 300 549 281 569 281 593 c 2
 281 749 l 2
 281 773 300 793 325 793 c 0
174 793 m 0
 199 793 219 773 219 749 c 2
 219 593 l 2
 219 569 199 549 174 549 c 0
 149 549 130 569 130 593 c 2
 130 749 l 2
 130 773 149 793 174 793 c 0
EndSplineSet
Substitution2: "'ss01' CART SUB" quotedbl_combCartExtTok
Substitution2: "'ss01' CONT SUB" quotedbl_combLongGlyphExtTok
Colour: fffaaa
EndChar

StartChar: numbersign
Encoding: 35 35 35
Width: 500
LayerCount: 2
Fore
SplineSet
223 360 m 2
 209 360 193 344 193 330 c 2
 193 280 l 2
 193 266 209 250 223 250 c 2
 277 250 l 2
 291 250 307 266 307 280 c 2
 307 330 l 2
 307 344 291 360 277 360 c 2
 223 360 l 2
149 611 m 0
 174 611 193 591 193 567 c 2
 193 478 l 2
 193 464 209 448 223 448 c 2
 277 448 l 2
 291 448 307 464 307 478 c 2
 307 567 l 2
 307 591 326 611 351 611 c 0
 376 611 395 591 395 567 c 2
 395 478 l 2
 395 464 411 448 425 448 c 2
 514 448 l 2
 538 448 558 429 558 404 c 0
 558 379 538 360 514 360 c 2
 425 360 l 2
 411 360 395 344 395 330 c 2
 395 280 l 2
 395 266 411 250 425 250 c 2
 514 250 l 2
 538 250 558 231 558 206 c 0
 558 181 538 162 514 162 c 2
 425 162 l 2
 411 162 395 146 395 132 c 2
 395 43 l 2
 395 19 376 -1 351 -1 c 0
 326 -1 307 19 307 43 c 2
 307 132 l 2
 307 146 291 162 277 162 c 2
 223 162 l 2
 209 162 193 146 193 132 c 2
 193 43 l 2
 193 19 174 -1 149 -1 c 0
 124 -1 104 19 104 43 c 2
 104 132 l 2
 104 146 89 162 75 162 c 2
 -14 162 l 2
 -38 162 -58 181 -58 206 c 0
 -58 231 -38 250 -14 250 c 2
 75 250 l 2
 89 250 104 266 104 280 c 2
 104 330 l 2
 104 344 89 360 75 360 c 2
 -14 360 l 2
 -38 360 -58 379 -58 404 c 0
 -58 429 -38 448 -14 448 c 2
 75 448 l 2
 89 448 104 464 104 478 c 2
 104 567 l 2
 104 591 124 611 149 611 c 0
EndSplineSet
Substitution2: "'ss01' CART SUB" numbersign_combCartExtTok
Substitution2: "'ss01' CONT SUB" numbersign_combLongGlyphExtTok
Colour: fffaaa
EndChar

StartChar: dollar
Encoding: 36 36 36
Width: 500
LayerCount: 2
Fore
SplineSet
360 283 m 1
 360 105 l 1
 389 124 410 157 410 194 c 0
 410 210 405 254 360 283 c 1
230 359 m 1
 230 88 l 1
 272 88 l 1
 272 335 l 1
 230 359 l 1
142 694 m 1
 111 676 91 642 91 603 c 0
 91 584 95 542 142 512 c 1
 142 694 l 1
272 709 m 1
 230 709 l 1
 230 461 l 1
 272 437 l 1
 272 709 l 1
186 846 m 0
 211 846 230 826 230 802 c 2
 230 798 l 1
 272 798 l 1
 272 802 l 2
 272 826 291 846 316 846 c 0
 341 846 360 826 360 802 c 2
 360 779 l 1
 429 747 478 677 478 597 c 2
 478 591 l 2
 478 567 459 547 434 547 c 0
 409 547 390 567 390 591 c 0
 390 621 378 648 360 669 c 1
 360 386 l 1
 404 361 l 1
 460 327 499 266 499 194 c 0
 499 106 440 30 360 7 c 1
 360 -4 l 2
 360 -28 341 -48 316 -48 c 0
 291 -48 272 -28 272 -4 c 2
 272 -1 l 1
 230 -1 l 1
 230 -4 l 2
 230 -28 211 -48 186 -48 c 0
 161 -48 142 -28 142 -4 c 2
 142 17 l 1
 97 37 22 92 22 206 c 0
 22 230 41 250 66 250 c 0
 91 250 111 230 111 206 c 0
 111 175 122 146 142 125 c 1
 142 410 l 1
 96 436 l 1
 40 470 2 531 2 603 c 0
 2 692 61 769 142 791 c 1
 142 802 l 2
 142 826 161 846 186 846 c 0
EndSplineSet
Substitution2: "'ss01' CART SUB" dollar_combCartExtTok
Substitution2: "'ss01' CONT SUB" dollar_combLongGlyphExtTok
Colour: fffaaa
EndChar

StartChar: percent
Encoding: 37 37 37
Width: 500
LayerCount: 2
Fore
SplineSet
414 219 m 0
 378 219 349 189 349 153 c 0
 349 117 378 87 414 87 c 0
 450 87 482 117 482 153 c 0
 482 189 450 219 414 219 c 0
414 307 m 0
 500 307 570 239 570 153 c 0
 570 67 500 -2 414 -2 c 0
 328 -2 260 67 260 153 c 0
 260 239 328 307 414 307 c 0
86 707 m 0
 50 707 19 677 19 641 c 0
 19 605 50 575 86 575 c 0
 122 575 152 605 152 641 c 0
 152 677 122 707 86 707 c 0
46 -2 m 0
 20 -2 0 19 0 41 c 0
 0 49 2 57 6 64 c 2
 416 774 l 2
 425 790 439 797 452 797 c 0
 476 797 500 776 500 751 c 0
 500 744 498 737 494 730 c 2
 84 19 l 2
 76 5 61 -2 46 -2 c 0
86 796 m 0
 172 796 241 727 241 641 c 0
 241 555 172 487 86 487 c 0
 0 487 -70 555 -70 641 c 0
 -70 727 0 796 86 796 c 0
EndSplineSet
Substitution2: "'ss01' CART SUB" percent_combCartExtTok
Substitution2: "'ss01' CONT SUB" percent_combLongGlyphExtTok
Colour: fffaaa
EndChar

StartChar: ampersand
Encoding: 38 38 38
Width: 500
LayerCount: 2
Fore
SplineSet
168 346 m 1
 150 332 l 1
 114 306 93 266 93 222 c 0
 93 147 155 85 230 85 c 0
 270 85 305 102 330 129 c 1
 168 346 l 1
208 709 m 0
 153 709 108 664 108 609 c 2
 108 607 l 2
 108 599 109 578 126 552 c 1
 186 470 l 1
 264 528 l 2
 292 550 306 577 306 609 c 0
 306 664 263 709 208 709 c 0
496 41 m 0
 496 18 475 -3 450 -3 c 0
 437 -3 425 3 416 14 c 2
 384 57 l 1
 344 19 289 -3 230 -3 c 0
 106 -3 4 98 4 222 c 0
 4 291 36 358 93 401 c 2
 116 418 l 1
 58 495 l 2
 34 526 20 567 20 609 c 0
 20 713 104 797 208 797 c 0
 312 797 395 713 395 609 c 0
 395 586 392 512 318 457 c 2
 240 399 l 1
 366 230 l 1
 364 264 349 295 326 318 c 0
 318 327 314 338 314 349 c 0
 314 373 334 393 358 393 c 0
 369 393 380 389 388 381 c 0
 429 340 454 284 454 222 c 0
 454 191 447 161 436 134 c 1
 486 67 l 2
 492 59 496 50 496 41 c 0
EndSplineSet
Substitution2: "'ss01' CART SUB" ampersand_combCartExtTok
Substitution2: "'ss01' CONT SUB" ampersand_combLongGlyphExtTok
Colour: fffaaa
EndChar

StartChar: quotesingle
Encoding: 39 39 39
Width: 500
LayerCount: 2
Fore
SplineSet
295 595 m 2
 295 571 275 551 250 551 c 0
 225 551 206 571 206 595 c 2
 206 751 l 2
 206 775 225 795 250 795 c 0
 275 795 295 775 295 751 c 2
 295 595 l 2
EndSplineSet
Substitution2: "'ss01' CART SUB" quotesingle_combCartExtTok
Substitution2: "'ss01' CONT SUB" quotesingle_combLongGlyphExtTok
Colour: fffaaa
EndChar

StartChar: parenleft
Encoding: 40 40 40
Width: 500
LayerCount: 2
Fore
SplineSet
326 872 m 0
 344 872 370 858 370 829 c 0
 370 812 360 797 344 787 c 0
 265 737 219 620 219 501 c 2
 219 280 l 2
 219 161 265 44 344 -6 c 0
 363 -18 370 -33 370 -48 c 0
 370 -71 353 -91 328 -91 c 0
 287 -91 130 34 130 280 c 2
 130 501 l 2
 130 648 192 801 310 869 c 0
 313 871 319 872 326 872 c 0
EndSplineSet
Substitution2: "'ss01' CART SUB" parenleft_combCartExtTok
Substitution2: "'ss01' CONT SUB" parenleft_combLongGlyphExtTok
Colour: fffaaa
EndChar

StartChar: parenright
Encoding: 41 41 41
Width: 500
LayerCount: 2
Fore
SplineSet
130 829 m 0
 130 858 156 872 174 872 c 0
 181 872 187 871 190 869 c 0
 308 801 371 648 371 501 c 2
 371 280 l 2
 371 37 216 -91 174 -91 c 0
 149 -91 130 -71 130 -48 c 0
 130 -33 138 -18 156 -6 c 0
 235 44 282 161 282 280 c 2
 282 501 l 2
 282 620 235 737 156 787 c 0
 140 797 130 812 130 829 c 0
EndSplineSet
Substitution2: "'ss01' CART SUB" parenright_combCartExtTok
Substitution2: "'ss01' CONT SUB" parenright_combLongGlyphExtTok
Colour: fffaaa
EndChar

StartChar: asterisk
Encoding: 42 42 42
Width: 500
LayerCount: 2
Fore
SplineSet
366 477 m 0
 391 477 410 457 410 433 c 0
 410 409 391 390 366 390 c 0
 341 390 321 409 321 433 c 0
 321 457 341 477 366 477 c 0
134 478 m 0
 158 478 178 459 178 434 c 0
 178 409 158 390 134 390 c 0
 110 390 91 409 91 434 c 0
 91 459 110 478 134 478 c 0
366 709 m 0
 390 709 410 690 410 665 c 0
 410 640 390 620 366 620 c 0
 342 620 322 640 322 665 c 0
 322 690 342 709 366 709 c 0
135 709 m 0
 160 709 179 689 179 665 c 0
 179 641 160 621 135 621 c 0
 110 621 91 641 91 665 c 0
 91 689 110 709 135 709 c 0
251 756 m 0
 276 756 295 736 295 712 c 2
 295 608 l 2
 295 601 302 593 309 593 c 2
 413 593 l 2
 437 593 457 575 457 550 c 0
 457 525 437 505 413 505 c 2
 309 505 l 2
 302 505 295 497 295 490 c 2
 295 386 l 2
 295 362 276 342 251 342 c 0
 226 342 206 362 206 386 c 2
 206 490 l 2
 206 497 198 505 191 505 c 2
 87 505 l 2
 63 505 43 525 43 550 c 0
 43 575 63 593 87 593 c 2
 191 593 l 2
 198 593 206 601 206 608 c 2
 206 712 l 2
 206 736 226 756 251 756 c 0
EndSplineSet
Substitution2: "'ss01' CART SUB" asterisk_combCartExtTok
Substitution2: "'ss01' CONT SUB" asterisk_combLongGlyphExtTok
Colour: fffaaa
EndChar

StartChar: plus
Encoding: 43 43 43
Width: 500
LayerCount: 2
Fore
SplineSet
251 496 m 0
 276 496 295 476 295 452 c 2
 295 348 l 2
 295 341 302 333 309 333 c 2
 413 333 l 2
 437 333 457 315 457 290 c 0
 457 265 437 245 413 245 c 2
 309 245 l 2
 302 245 295 237 295 230 c 2
 295 126 l 2
 295 102 276 82 251 82 c 0
 226 82 206 102 206 126 c 2
 206 230 l 2
 206 237 198 245 191 245 c 2
 87 245 l 2
 63 245 43 265 43 290 c 0
 43 315 63 333 87 333 c 2
 191 333 l 2
 198 333 206 341 206 348 c 2
 206 452 l 2
 206 476 226 496 251 496 c 0
EndSplineSet
Substitution2: "'ss01' CART SUB" plus_combCartExtTok
Substitution2: "'ss01' CONT SUB" plus_combLongGlyphExtTok
Colour: fffaaa
EndChar

StartChar: comma
Encoding: 44 44 44
Width: 500
LayerCount: 2
Fore
SplineSet
273 62 m 0
 265 62 259 56 259 48 c 0
 259 40 265 34 273 34 c 0
 281 34 286 40 286 48 c 0
 286 56 281 62 273 62 c 0
194 -107 m 0
 170 -106 151 -86 151 -62 c 0
 151 -14 199 -21 217 -14 c 0
 219 -13 220 -12 220 -11 c 0
 220 -4 197 13 197 48 c 0
 197 90 231 124 273 124 c 0
 315 124 349 90 349 48 c 0
 349 -38 280 -107 194 -107 c 0
EndSplineSet
Substitution2: "'ss01' CART SUB" comma_combCartExtTok
Substitution2: "'ss01' CONT SUB" comma_combLongGlyphExtTok
Colour: fffaaa
EndChar

StartChar: hyphen
Encoding: 45 45 45
Width: 500
LayerCount: 2
Fore
SplineSet
457 290 m 0
 457 265 437 245 413 245 c 2
 87 245 l 2
 63 245 43 265 43 290 c 0
 43 315 63 333 87 333 c 2
 413 333 l 2
 437 333 457 315 457 290 c 0
EndSplineSet
Substitution2: "'ss01' CART SUB" hyphen_combCartExtTok
Substitution2: "'ss01' CONT SUB" hyphen_combLongGlyphExtTok
Colour: fffaaa
EndChar

StartChar: period
Encoding: 46 46 46
Width: 500
LayerCount: 2
Fore
SplineSet
250 62 m 0
 242 62 236 56 236 48 c 0
 236 40 242 34 250 34 c 0
 258 34 264 40 264 48 c 0
 264 56 258 62 250 62 c 0
250 124 m 0
 292 124 326 90 326 48 c 0
 326 6 292 -28 250 -28 c 0
 208 -28 174 6 174 48 c 0
 174 90 208 124 250 124 c 0
EndSplineSet
Substitution2: "'ss01' CART SUB" period_combCartExtTok
Substitution2: "'ss01' CONT SUB" period_combLongGlyphExtTok
Colour: fffaaa
EndChar

StartChar: slash
Encoding: 47 47 47
Width: 500
LayerCount: 2
Fore
SplineSet
454 796 m 0
 480 796 500 774 500 752 c 0
 500 745 498 737 494 730 c 2
 84 19 l 2
 76 5 61 -2 46 -2 c 0
 20 -2 0 20 0 42 c 0
 0 50 2 57 6 64 c 2
 416 774 l 2
 424 788 439 796 454 796 c 0
EndSplineSet
Substitution2: "'ss01' CART SUB" slash_combCartExtTok
Substitution2: "'ss01' CONT SUB" slash_combLongGlyphExtTok
Colour: fffaaa
EndChar

StartChar: zero
Encoding: 48 48 48
Width: 500
LayerCount: 2
Fore
SplineSet
201 295 m 0
 177 295 156 316 156 340 c 0
 156 351 160 362 169 371 c 2
 277 478 l 2
 286 487 297 491 308 491 c 0
 332 491 352 470 352 446 c 0
 352 435 347 423 339 415 c 2
 232 308 l 2
 224 300 212 295 201 295 c 0
250 707 m 0
 185 707 132 654 132 589 c 2
 132 204 l 2
 132 139 185 85 250 85 c 0
 315 85 368 138 368 203 c 2
 368 589 l 2
 368 654 315 707 250 707 c 0
250 795 m 0
 364 795 457 702 457 588 c 2
 457 204 l 2
 457 90 364 -3 250 -3 c 0
 136 -3 44 90 43 203 c 1
 43 590 l 2
 43 703 137 795 250 795 c 0
EndSplineSet
Substitution2: "'ss01' CART SUB" zero_combCartExtTok
Substitution2: "'ss01' CONT SUB" zero_combLongGlyphExtTok
Colour: fffaaa
EndChar

StartChar: one
Encoding: 49 49 49
Width: 500
LayerCount: 2
Fore
SplineSet
173 631 m 0
 173 613 182 598 182 582 c 0
 182 556 159 536 136 536 c 0
 121 536 105 545 96 566 c 0
 88 586 84 607 84 630 c 0
 84 721 159 797 250 797 c 0
 274 797 295 777 295 753 c 2
 295 87 l 1
 374 87 l 2
 398 87 418 68 418 43 c 0
 418 18 398 -2 374 -2 c 2
 126 -2 l 2
 102 -2 82 18 82 43 c 0
 82 68 102 87 126 87 c 2
 206 87 l 1
 206 694 l 1
 186 680 173 657 173 631 c 0
EndSplineSet
Substitution2: "'ss01' CART SUB" one_combCartExtTok
Substitution2: "'ss01' CONT SUB" one_combLongGlyphExtTok
Colour: fffaaa
EndChar

StartChar: two
Encoding: 50 50 50
Width: 500
LayerCount: 2
Fore
SplineSet
170 85 m 2
 413 85 l 2
 437 85 457 67 457 42 c 0
 457 17 437 -3 413 -3 c 2
 170 -3 l 2
 100 -3 43 54 43 124 c 0
 43 156 55 185 74 207 c 2
 341 516 l 2
 367 546 368 575 368 591 c 0
 368 656 315 709 250 709 c 0
 185 709 132 656 132 591 c 0
 132 573 104 557 79 557 c 0
 60 557 43 566 43 591 c 0
 43 705 136 798 250 798 c 0
 364 798 457 705 457 591 c 0
 457 538 439 494 411 461 c 0
 321 357 230 252 140 148 c 0
 134 141 132 134 132 124 c 0
 132 103 149 85 170 85 c 2
EndSplineSet
Substitution2: "'ss01' CART SUB" two_combCartExtTok
Substitution2: "'ss01' CONT SUB" two_combLongGlyphExtTok
Colour: fffaaa
EndChar

StartChar: three
Encoding: 51 51 51
Width: 500
LayerCount: 2
Fore
SplineSet
100 312 m 0
 127 312 145 290 145 268 c 0
 145 262 143 257 141 251 c 0
 135 237 132 221 132 205 c 0
 132 140 185 87 250 87 c 0
 315 87 368 140 368 205 c 0
 368 304 275 293 275 397 c 0
 275 500 368 491 368 590 c 0
 368 655 315 708 250 708 c 0
 185 708 132 655 132 590 c 0
 132 574 135 558 141 544 c 0
 143 538 145 533 145 527 c 0
 145 505 127 483 100 483 c 0
 54 483 43 546 43 590 c 0
 43 704 136 797 250 797 c 0
 364 797 457 704 457 590 c 0
 457 485 384 434 375 425 c 0
 368 418 364 408 364 397 c 0
 364 373 379 368 396 351 c 0
 433 314 457 262 457 205 c 0
 457 91 364 -2 250 -2 c 0
 136 -2 43 91 43 205 c 0
 43 249 54 312 100 312 c 0
EndSplineSet
Substitution2: "'ss01' CART SUB" three_combCartExtTok
Substitution2: "'ss01' CONT SUB" three_combLongGlyphExtTok
Colour: fffaaa
EndChar

StartChar: four
Encoding: 52 52 52
Width: 500
LayerCount: 2
Fore
SplineSet
304 705 m 2
 122 526 l 2
 110 514 103 497 103 479 c 0
 103 443 132 413 168 413 c 2
 314 413 l 1
 314 701 l 2
 314 704 311 707 308 707 c 0
 306 707 305 706 304 705 c 2
244 770 m 2
 258 783 282 796 308 796 c 0
 360 796 402 753 402 701 c 2
 402 413 l 1
 442 413 l 2
 466 413 486 394 486 369 c 0
 486 344 466 324 442 324 c 2
 402 324 l 1
 402 43 l 2
 402 19 383 -1 358 -1 c 0
 333 -1 314 19 314 43 c 2
 314 324 l 1
 168 324 l 2
 82 324 14 393 14 479 c 0
 14 523 33 562 60 589 c 2
 244 770 l 2
EndSplineSet
Substitution2: "'ss01' CART SUB" four_combCartExtTok
Substitution2: "'ss01' CONT SUB" four_combLongGlyphExtTok
Colour: fffaaa
EndChar

StartChar: five
Encoding: 53 53 53
Width: 500
LayerCount: 2
Fore
SplineSet
104 315 m 0
 131 315 148 293 148 271 c 0
 148 265 147 260 145 254 c 0
 139 240 135 223 135 207 c 0
 135 142 189 89 254 89 c 0
 319 89 372 142 372 207 c 0
 372 272 318 326 253 326 c 2
 166 326 l 2
 99 326 39 378 39 444 c 2
 39 671 l 2
 39 741 96 797 166 797 c 2
 402 797 l 2
 426 797 446 778 446 753 c 0
 446 728 426 709 402 709 c 2
 166 709 l 2
 145 709 128 690 128 669 c 2
 128 454 l 2
 128 433 146 414 167 414 c 2
 254 414 l 2
 368 414 461 321 461 207 c 0
 461 93 368 0 254 0 c 0
 140 0 47 93 47 207 c 0
 47 250 58 315 104 315 c 0
EndSplineSet
Substitution2: "'ss01' CART SUB" five_combCartExtTok
Substitution2: "'ss01' CONT SUB" five_combLongGlyphExtTok
Colour: fffaaa
EndChar

StartChar: six
Encoding: 54 54 54
Width: 500
LayerCount: 2
Fore
SplineSet
368 205 m 0
 368 269 316 323 250 323 c 0
 187 323 132 272 132 205 c 0
 132 140 185 87 250 87 c 0
 315 87 368 140 368 205 c 0
250 412 m 0
 374 412 457 307 457 208 c 0
 457 92 366 -2 250 -2 c 0
 136 -2 43 91 43 205 c 2
 43 599 l 2
 43 709 139 797 250 797 c 0
 343 797 455 729 457 590 c 0
 457 566 438 546 413 546 c 0
 388 546 368 566 368 590 c 0
 368 655 315 708 250 708 c 0
 185 708 132 655 132 590 c 2
 132 375 l 1
 167 398 205 412 250 412 c 0
EndSplineSet
Substitution2: "'ss01' CART SUB" six_combCartExtTok
Substitution2: "'ss01' CONT SUB" six_combLongGlyphExtTok
Colour: fffaaa
EndChar

StartChar: seven
Encoding: 55 55 55
Width: 500
LayerCount: 2
Fore
SplineSet
44 797 m 2
 404 797 l 2
 456 797 500 754 500 702 c 0
 500 684 493 667 484 653 c 2
 382 475 l 1
 384 475 l 2
 408 475 428 456 428 431 c 0
 428 406 408 386 384 386 c 2
 330 386 l 1
 166 103 l 2
 163 98 160 92 160 84 c 2
 160 42 l 2
 160 18 141 -2 116 -2 c 0
 91 -2 72 18 72 42 c 2
 72 84 l 2
 72 106 76 126 86 144 c 2
 228 386 l 1
 222 386 l 2
 198 386 178 406 178 431 c 0
 178 456 198 475 222 475 c 2
 278 475 l 1
 410 699 l 1
 410 702 l 2
 410 705 409 708 406 708 c 2
 44 708 l 2
 20 708 0 728 0 753 c 0
 0 778 20 797 44 797 c 2
EndSplineSet
Substitution2: "'ss01' CART SUB" seven_combCartExtTok
Substitution2: "'ss01' CONT SUB" seven_combLongGlyphExtTok
Colour: fffaaa
EndChar

StartChar: eight
Encoding: 56 56 56
Width: 500
LayerCount: 2
Fore
SplineSet
250 353 m 0
 168 353 103 293 103 218 c 0
 103 143 168 82 250 82 c 0
 332 82 398 143 398 218 c 0
 398 293 332 353 250 353 c 0
250 713 m 0
 168 713 103 652 103 577 c 0
 103 502 168 442 250 442 c 0
 332 442 398 502 398 577 c 0
 398 652 332 713 250 713 c 0
250 802 m 0
 381 802 486 701 486 577 c 0
 486 556 483 470 402 405 c 0
 400 403 400 402 400 400 c 0
 400 380 486 339 486 218 c 0
 486 94 381 -7 250 -7 c 0
 119 -7 14 94 14 218 c 0
 14 239 17 325 98 390 c 0
 100 392 102 393 102 395 c 0
 102 415 14 456 14 577 c 0
 14 701 119 802 250 802 c 0
EndSplineSet
Substitution2: "'ss01' CART SUB" eight_combCartExtTok
Substitution2: "'ss01' CONT SUB" eight_combLongGlyphExtTok
Colour: fffaaa
EndChar

StartChar: nine
Encoding: 57 57 57
Width: 500
LayerCount: 2
Fore
SplineSet
250 706 m 0
 185 706 132 653 132 588 c 0
 132 523 185 470 250 470 c 0
 315 470 368 523 368 588 c 0
 368 653 315 706 250 706 c 0
88 -3 m 0
 62 -3 42 19 42 41 c 0
 42 49 45 57 50 65 c 2
 250 371 l 2
 252 374 255 381 250 381 c 0
 136 381 44 474 44 588 c 0
 44 702 136 795 250 795 c 0
 364 795 457 702 457 588 c 0
 457 547 445 507 424 475 c 2
 124 17 l 2
 116 4 102 -3 88 -3 c 0
EndSplineSet
Substitution2: "'ss01' CART SUB" nine_combCartExtTok
Substitution2: "'ss01' CONT SUB" nine_combLongGlyphExtTok
Colour: fffaaa
EndChar

StartChar: colon
Encoding: 58 58 58
Width: 500
LayerCount: 2
Fore
SplineSet
250 89 m 0
 242 89 236 83 236 75 c 0
 236 67 242 62 250 62 c 0
 258 62 264 67 264 75 c 0
 264 83 258 89 250 89 c 0
250 152 m 0
 292 152 326 117 326 75 c 0
 326 33 292 -1 250 -1 c 0
 208 -1 174 33 174 75 c 0
 174 117 208 152 250 152 c 0
250 441 m 0
 242 441 236 436 236 428 c 0
 236 420 242 414 250 414 c 0
 258 414 264 420 264 428 c 0
 264 436 258 441 250 441 c 0
250 504 m 0
 292 504 326 470 326 428 c 0
 326 386 292 352 250 352 c 0
 208 352 174 386 174 428 c 0
 174 470 208 504 250 504 c 0
EndSplineSet
Substitution2: "'ss01' CART SUB" colon_combCartExtTok
Substitution2: "'ss01' CONT SUB" colon_combLongGlyphExtTok
Colour: fffaaa
EndChar

StartChar: semicolon
Encoding: 59 59 59
Width: 500
LayerCount: 2
Fore
SplineSet
273 88 m 0
 265 88 259 83 259 75 c 0
 259 67 265 61 273 61 c 0
 281 61 286 67 286 75 c 0
 286 83 281 88 273 88 c 0
273 151 m 0
 315 151 349 116 349 74 c 0
 349 -12 280 -80 194 -80 c 0
 170 -79 151 -60 151 -36 c 0
 151 13 199 6 217 13 c 0
 219 14 220 15 220 16 c 0
 220 23 197 39 197 75 c 0
 197 117 231 151 273 151 c 0
273 440 m 0
 265 440 259 434 259 426 c 0
 259 418 265 413 273 413 c 0
 281 413 286 418 286 426 c 0
 286 434 281 440 273 440 c 0
273 502 m 0
 315 502 349 468 349 426 c 0
 349 384 315 350 273 350 c 0
 231 350 197 384 197 426 c 0
 197 468 231 502 273 502 c 0
EndSplineSet
Substitution2: "'ss01' CART SUB" semicolon_combCartExtTok
Substitution2: "'ss01' CONT SUB" semicolon_combLongGlyphExtTok
Colour: fffaaa
EndChar

StartChar: less
Encoding: 60 60 60
Width: 500
LayerCount: 2
Fore
SplineSet
456 41 m 0
 456 17 435 -4 411 -4 c 0
 400 -4 389 0 380 9 c 2
 82 307 l 2
 59 330 44 362 44 397 c 0
 44 432 59 465 82 488 c 2
 380 786 l 2
 389 795 400 799 411 799 c 0
 435 799 456 778 456 754 c 0
 456 743 451 732 443 724 c 2
 144 425 l 2
 137 418 133 408 133 397 c 0
 133 386 137 377 144 370 c 2
 443 71 l 2
 451 63 456 52 456 41 c 0
EndSplineSet
Substitution2: "'ss01' CART SUB" less_combCartExtTok
Substitution2: "'ss01' CONT SUB" less_combLongGlyphExtTok
Colour: fffaaa
EndChar

StartChar: equal
Encoding: 61 61 61
Width: 500
LayerCount: 2
Fore
SplineSet
87 230 m 2
 413 230 l 2
 437 230 457 212 457 187 c 0
 457 162 437 142 413 142 c 2
 87 142 l 2
 63 142 43 162 43 187 c 0
 43 212 63 230 87 230 c 2
87 411 m 2
 413 411 l 2
 437 411 457 393 457 368 c 0
 457 343 437 323 413 323 c 2
 87 323 l 2
 63 323 43 343 43 368 c 0
 43 393 63 411 87 411 c 2
EndSplineSet
Substitution2: "'ss01' CART SUB" equal_combCartExtTok
Substitution2: "'ss01' CONT SUB" equal_combLongGlyphExtTok
Colour: fffaaa
EndChar

StartChar: greater
Encoding: 62 62 62
Width: 500
LayerCount: 2
Fore
SplineSet
88 -4 m 0
 64 -4 44 17 44 41 c 0
 44 52 49 63 57 71 c 2
 356 370 l 2
 363 377 367 386 367 397 c 0
 367 408 363 418 356 425 c 2
 57 724 l 2
 48 733 44 743 44 754 c 0
 44 777 62 799 88 799 c 0
 99 799 110 795 119 786 c 2
 418 488 l 2
 441 465 456 432 456 397 c 0
 456 362 441 330 418 307 c 2
 119 9 l 2
 110 0 99 -4 88 -4 c 0
EndSplineSet
Substitution2: "'ss01' CART SUB" greater_combCartExtTok
Substitution2: "'ss01' CONT SUB" greater_combLongGlyphExtTok
Colour: fffaaa
EndChar

StartChar: question
Encoding: 63 63 63
Width: 500
LayerCount: 2
Fore
SplineSet
249 56 m 0
 241 56 235 50 235 42 c 0
 235 34 241 29 249 29 c 0
 257 29 263 34 263 42 c 0
 263 50 257 56 249 56 c 0
249 118 m 0
 291 118 325 84 325 42 c 0
 325 0 291 -34 249 -34 c 0
 207 -34 173 0 173 42 c 0
 173 84 207 118 249 118 c 0
100 482 m 0
 54 482 43 545 43 589 c 0
 43 703 136 796 250 796 c 0
 364 796 457 703 457 589 c 0
 457 503 404 431 335 400 c 0
 313 391 294 366 294 338 c 2
 294 220 l 2
 294 196 274 177 249 177 c 0
 224 177 205 197 205 221 c 2
 205 339 l 2
 205 403 243 456 296 480 c 0
 338 498 368 539 368 589 c 0
 368 654 315 707 250 707 c 0
 185 707 132 654 132 589 c 0
 132 573 135 557 141 543 c 0
 143 537 145 531 145 525 c 0
 145 503 127 482 100 482 c 0
EndSplineSet
Substitution2: "'ss01' CART SUB" question_combCartExtTok
Substitution2: "'ss01' CONT SUB" question_combLongGlyphExtTok
Colour: fffaaa
EndChar

StartChar: at
Encoding: 64 64 64
Width: 500
LayerCount: 2
Fore
SplineSet
291 410 m 0
 291 455 272 490 249 490 c 0
 226 490 208 454 208 410 c 0
 208 366 226 330 249 330 c 0
 272 330 291 366 291 410 c 0
342 558 m 0
 361 558 378 538 378 514 c 0
 378 503 375 492 368 483 c 0
 362 476 359 466 359 456 c 0
 359 447 361 419 361 410 c 2
 361 307 l 2
 361 291 371 278 384 278 c 0
 397 278 408 291 408 307 c 0
 413 335 416 366 416 397 c 0
 416 568 341 708 250 708 c 0
 159 708 84 568 84 397 c 0
 84 226 159 86 250 86 c 0
 299 86 343 126 373 190 c 1
 339 195 313 222 299 259 c 1
 284 248 267 241 249 241 c 0
 187 241 137 317 137 410 c 0
 137 503 187 579 249 579 c 0
 275 579 298 566 316 545 c 1
 322 554 332 558 342 558 c 0
487 397 m 0
 487 178 381 -2 250 -2 c 0
 120 -2 13 177 13 397 c 0
 13 617 120 796 250 796 c 0
 380 796 487 617 487 397 c 0
EndSplineSet
Substitution2: "'ss01' CART SUB" at_combCartExtTok
Substitution2: "'ss01' CONT SUB" at_combLongGlyphExtTok
Colour: fffaaa
EndChar

StartChar: A
Encoding: 65 65 65
Width: 500
LayerCount: 2
Fore
SplineSet
250 708 m 0
 139 708 129 578 123 414 c 1
 377 414 l 1
 371 578 361 708 250 708 c 0
34 398 m 2
 34 618 87 797 250 797 c 0
 413 797 466 618 466 398 c 2
 466 45 l 2
 466 21 446 1 421 1 c 0
 396 1 377 21 377 45 c 2
 377 326 l 1
 123 326 l 1
 123 45 l 2
 123 21 103 1 78 1 c 0
 53 1 34 21 34 45 c 2
 34 398 l 2
EndSplineSet
Substitution2: "'ss01' CART SUB" A_combCartExtTok
Substitution2: "'ss01' CONT SUB" A_combLongGlyphExtTok
Colour: fffaaa
EndChar

StartChar: B
Encoding: 66 66 66
Width: 500
LayerCount: 2
Fore
SplineSet
258 87 m 1
 329 88 378 143 378 205 c 0
 378 270 325 323 260 323 c 2
 124 323 l 1
 124 125 l 2
 124 107 136 87 162 87 c 2
 258 87 l 1
162 708 m 2
 144 708 124 694 124 668 c 2
 124 412 l 1
 176 412 l 1
 270 506 l 2
 291 527 304 557 304 590 c 0
 304 655 252 708 186 708 c 2
 162 708 l 2
34 669 m 2
 34 751 100 797 158 797 c 2
 188 797 l 2
 302 797 394 704 394 590 c 0
 394 501 338 449 330 441 c 2
 298 409 l 1
 394 391 466 306 466 205 c 0
 466 92 376 -2 264 -2 c 2
 162 -2 l 2
 92 -2 34 54 34 124 c 2
 34 669 l 2
EndSplineSet
Substitution2: "'ss01' CART SUB" B_combCartExtTok
Substitution2: "'ss01' CONT SUB" B_combLongGlyphExtTok
Colour: fffaaa
EndChar

StartChar: C
Encoding: 67 67 67
Width: 500
LayerCount: 2
Fore
SplineSet
487 653 m 0
 487 631 469 609 444 609 c 0
 430 609 416 616 407 628 c 2
 401 637 l 1
 349 701 314 708 289 708 c 0
 175 708 102 568 102 397 c 0
 102 226 175 87 289 87 c 0
 345 87 370 118 407 167 c 0
 417 181 431 186 443 186 c 0
 466 186 487 166 487 142 c 0
 487 133 484 124 478 115 c 0
 426 41 371 -2 289 -2 c 0
 126 -2 13 177 13 397 c 0
 13 617 126 797 289 797 c 0
 394 797 451 722 480 677 c 0
 485 670 487 661 487 653 c 0
EndSplineSet
Substitution2: "'ss01' CART SUB" C_combCartExtTok
Substitution2: "'ss01' CONT SUB" C_combLongGlyphExtTok
Colour: fffaaa
EndChar

StartChar: D
Encoding: 68 68 68
Width: 500
LayerCount: 2
Fore
SplineSet
114 127 m 2
 114 111 123 87 157 87 c 2
 180 87 l 2
 294 87 387 226 387 397 c 0
 387 568 294 708 180 708 c 2
 152 708 l 2
 131 708 114 691 114 670 c 2
 114 127 l 2
152 797 m 2
 185 797 l 2
 346 797 475 615 475 397 c 0
 475 177 343 -2 180 -2 c 2
 152 -2 l 2
 83 -2 25 53 25 122 c 2
 25 681 l 2
 25 744 86 797 152 797 c 2
EndSplineSet
Substitution2: "'ss01' CART SUB" D_combCartExtTok
Substitution2: "'ss01' CONT SUB" D_combLongGlyphExtTok
Colour: fffaaa
EndChar

StartChar: E
Encoding: 69 69 69
Width: 500
LayerCount: 2
Fore
SplineSet
160 798 m 2
 424 798 l 2
 448 798 468 779 468 754 c 0
 468 729 448 710 424 710 c 2
 160 710 l 2
 139 710 121 693 121 672 c 0
 121 586 121 501 121 415 c 1
 316 415 l 2
 340 415 360 396 360 371 c 0
 360 346 340 327 316 327 c 2
 121 327 l 1
 121 128 l 2
 121 101 142 89 160 89 c 0
 161 89 424 88 424 88 c 2
 448 88 468 69 468 44 c 0
 468 19 448 0 424 0 c 2
 160 0 l 2
 91 0 32 54 32 123 c 2
 32 683 l 2
 32 746 94 798 160 798 c 2
EndSplineSet
Substitution2: "'ss01' CART SUB" E_combCartExtTok
Substitution2: "'ss01' CONT SUB" E_combLongGlyphExtTok
Colour: fffaaa
EndChar

StartChar: F
Encoding: 70 70 70
Width: 500
LayerCount: 2
Fore
SplineSet
160 795 m 2
 424 795 l 2
 448 795 468 776 468 751 c 0
 468 726 448 707 424 707 c 2
 160 707 l 2
 139 707 121 690 121 669 c 0
 121 583 121 498 121 412 c 1
 316 412 l 2
 340 412 360 394 360 369 c 0
 360 344 340 324 316 324 c 2
 121 324 l 1
 121 41 l 2
 121 17 101 -3 76 -3 c 0
 51 -3 32 17 32 41 c 2
 32 680 l 2
 32 743 94 795 160 795 c 2
EndSplineSet
Substitution2: "'ss01' CART SUB" F_combCartExtTok
Substitution2: "'ss01' CONT SUB" F_combLongGlyphExtTok
Colour: fffaaa
EndChar

StartChar: G
Encoding: 71 71 71
Width: 500
LayerCount: 2
Fore
SplineSet
476 653 m 0
 476 631 456 608 432 608 c 0
 406 608 391 638 374 655 c 0
 324 706 275 708 258 708 c 0
 144 708 111 568 111 397 c 0
 111 226 144 87 258 87 c 0
 390 87 390 262 390 287 c 0
 390 308 373 325 352 325 c 2
 229 325 l 2
 205 325 185 345 185 370 c 0
 185 395 205 414 229 414 c 2
 352 414 l 2
 422 414 478 357 478 287 c 0
 478 217 443 -2 258 -2 c 0
 95 -2 22 177 22 397 c 0
 22 617 95 797 258 797 c 0
 341 797 417 749 469 676 c 0
 474 669 476 661 476 653 c 0
EndSplineSet
Substitution2: "'ss01' CART SUB" G_combCartExtTok
Substitution2: "'ss01' CONT SUB" G_combLongGlyphExtTok
Colour: fffaaa
EndChar

StartChar: H
Encoding: 72 72 72
Width: 500
LayerCount: 2
Fore
SplineSet
78 796 m 0
 103 796 123 776 123 752 c 2
 123 432 l 2
 123 422 134 413 144 413 c 2
 356 413 l 2
 366 413 377 424 377 434 c 2
 377 752 l 2
 377 776 396 796 421 796 c 0
 446 796 466 776 466 752 c 2
 466 43 l 2
 466 19 446 -1 421 -1 c 0
 396 -1 377 19 377 43 c 2
 377 303 l 2
 377 313 366 324 356 324 c 2
 144 324 l 2
 134 324 123 315 123 305 c 2
 123 43 l 2
 123 19 103 -1 78 -1 c 0
 53 -1 34 19 34 43 c 2
 34 752 l 2
 34 776 53 796 78 796 c 0
EndSplineSet
Substitution2: "'ss01' CART SUB" H_combCartExtTok
Substitution2: "'ss01' CONT SUB" H_combLongGlyphExtTok
Colour: fffaaa
EndChar

StartChar: I
Encoding: 73 73 73
Width: 500
LayerCount: 2
Fore
SplineSet
162 796 m 2
 338 796 l 2
 362 796 382 777 382 752 c 0
 382 727 362 708 338 708 c 2
 316 708 l 2
 306 708 295 695 295 685 c 2
 295 111 l 2
 295 100 305 86 316 86 c 2
 338 86 l 2
 362 86 382 67 382 42 c 0
 382 17 362 -2 338 -2 c 2
 162 -2 l 2
 138 -2 118 17 118 42 c 0
 118 67 138 86 162 86 c 2
 184 86 l 2
 195 86 206 100 206 111 c 2
 206 685 l 2
 206 695 194 708 184 708 c 2
 162 708 l 2
 138 708 118 727 118 752 c 0
 118 777 138 796 162 796 c 2
EndSplineSet
Substitution2: "'ss01' CART SUB" I_combCartExtTok
Substitution2: "'ss01' CONT SUB" I_combLongGlyphExtTok
Colour: fffaaa
EndChar

StartChar: J
Encoding: 74 74 74
Width: 500
LayerCount: 2
Fore
SplineSet
105 206 m 0
 105 141 138 88 203 88 c 0
 268 88 321 141 321 206 c 2
 321 706 l 1
 219 706 l 2
 195 706 175 726 175 751 c 0
 175 776 195 795 219 795 c 2
 440 795 l 2
 464 795 484 776 484 751 c 0
 484 726 464 706 440 706 c 2
 410 706 l 1
 410 200 l 2
 410 91 315 -1 203 -1 c 0
 89 -1 16 92 16 206 c 0
 16 230 35 250 60 250 c 0
 85 250 105 230 105 206 c 0
EndSplineSet
Substitution2: "'ss01' CART SUB" J_combCartExtTok
Substitution2: "'ss01' CONT SUB" J_combLongGlyphExtTok
Colour: fffaaa
EndChar

StartChar: K
Encoding: 75 75 75
Width: 500
LayerCount: 2
Fore
SplineSet
480 44 m 0
 480 20 460 -1 436 -1 c 0
 425 -1 414 3 405 12 c 1
 189 308 l 2
 181 318 166 324 153 324 c 2
 131 324 l 2
 121 324 109 312 109 302 c 2
 109 43 l 2
 109 19 89 -1 64 -1 c 0
 39 -1 20 19 20 43 c 2
 20 751 l 2
 20 775 39 795 64 795 c 0
 89 795 109 775 109 751 c 2
 109 431 l 2
 109 415 117 413 122 420 c 2
 405 782 l 1
 414 791 425 795 436 795 c 0
 460 795 480 775 480 751 c 0
 480 740 475 728 467 720 c 1
 243 415 l 2
 240 410 237 404 237 397 c 0
 237 390 240 384 243 379 c 2
 467 75 l 1
 475 67 480 55 480 44 c 0
EndSplineSet
Substitution2: "'ss01' CART SUB" K_combCartExtTok
Substitution2: "'ss01' CONT SUB" K_combLongGlyphExtTok
Colour: fffaaa
EndChar

StartChar: L
Encoding: 76 76 76
Width: 500
LayerCount: 2
Fore
SplineSet
162 -4 m 2
 92 -4 34 52 34 123 c 2
 34 750 l 2
 34 774 53 794 78 794 c 0
 103 794 123 774 123 750 c 2
 123 124 l 2
 123 97 145 84 162 84 c 2
 422 84 l 2
 446 84 466 65 466 40 c 0
 466 15 446 -4 422 -4 c 2
 162 -4 l 2
EndSplineSet
Substitution2: "'ss01' CART SUB" L_combCartExtTok
Substitution2: "'ss01' CONT SUB" L_combLongGlyphExtTok
Colour: fffaaa
EndChar

StartChar: M
Encoding: 77 77 77
Width: 500
LayerCount: 2
Fore
SplineSet
438 795 m 0
 457 795 492 775 492 751 c 2
 492 43 l 2
 492 19 458 -1 439 -1 c 0
 420 -1 406 19 406 43 c 2
 406 638 l 2
 406 642 398 643 397 639 c 2
 343 449 l 2
 341 445 341 441 340 437 c 0
 327 386 292 349 249 349 c 0
 206 349 170 386 158 438 c 1
 100 638 l 2
 98 642 95 642 95 638 c 2
 95 43 l 2
 95 19 80 -1 61 -1 c 0
 42 -1 8 19 8 43 c 2
 8 751 l 2
 8 775 42 795 61 795 c 0
 101 795 135 762 149 717 c 0
 174 632 197 546 223 461 c 0
 230 442 242 438 249 438 c 0
 256 438 268 441 275 460 c 1
 349 717 l 2
 363 763 398 795 438 795 c 0
EndSplineSet
Substitution2: "'ss01' CART SUB" M_combCartExtTok
Substitution2: "'ss01' CONT SUB" M_combLongGlyphExtTok
Colour: fffaaa
EndChar

StartChar: N
Encoding: 78 78 78
Width: 500
LayerCount: 2
Fore
SplineSet
87 795 m 0
 147 795 196 754 210 698 c 1
 359 177 l 2
 361 168 368 172 368 179 c 2
 368 751 l 2
 368 775 388 795 413 795 c 0
 438 795 457 775 457 751 c 2
 457 43 l 2
 457 19 438 -1 413 -1 c 0
 355 -1 308 36 291 90 c 0
 241 265 192 440 142 614 c 0
 140 621 132 619 132 612 c 2
 132 43 l 2
 132 19 112 -1 87 -1 c 0
 62 -1 43 19 43 43 c 2
 43 751 l 2
 43 775 62 795 87 795 c 0
EndSplineSet
Substitution2: "'ss01' CART SUB" N_combCartExtTok
Substitution2: "'ss01' CONT SUB" N_combLongGlyphExtTok
Colour: fffaaa
EndChar

StartChar: O
Encoding: 79 79 79
Width: 500
LayerCount: 2
Fore
SplineSet
250 708 m 0
 136 708 123 568 123 397 c 0
 123 226 136 86 250 86 c 0
 364 86 377 226 377 397 c 0
 377 568 364 708 250 708 c 0
250 796 m 0
 413 796 466 617 466 397 c 0
 466 177 413 -2 250 -2 c 0
 87 -2 34 177 34 397 c 0
 34 617 87 796 250 796 c 0
EndSplineSet
Substitution2: "'ss01' CART SUB" O_combCartExtTok
Substitution2: "'ss01' CONT SUB" O_combLongGlyphExtTok
Colour: fffaaa
EndChar

StartChar: P
Encoding: 80 80 80
Width: 500
LayerCount: 2
Fore
SplineSet
170 706 m 2
 149 706 132 689 132 668 c 2
 132 486 l 2
 132 479 139 470 146 470 c 2
 250 470 l 2
 315 470 368 523 368 588 c 0
 368 653 315 706 250 706 c 2
 170 706 l 2
250 795 m 1
 375 793 457 693 457 588 c 0
 457 476 369 381 258 381 c 2
 132 381 l 1
 132 43 l 2
 132 19 112 -1 87 -1 c 0
 62 -1 43 19 43 43 c 2
 43 676 l 2
 43 741 100 795 166 795 c 2
 250 795 l 1
EndSplineSet
Substitution2: "'ss01' CART SUB" P_combCartExtTok
Substitution2: "'ss01' CONT SUB" P_combLongGlyphExtTok
Colour: fffaaa
EndChar

StartChar: Q
Encoding: 81 81 81
Width: 500
LayerCount: 2
Fore
SplineSet
250 797 m 0
 380 797 487 617 487 397 c 0
 487 289 462 192 420 120 c 1
 422 101 435 87 450 87 c 0
 469 87 485 68 485 43 c 0
 485 18 469 -2 450 -2 c 0
 416 -2 386 19 368 51 c 1
 334 17 293 -2 250 -2 c 0
 120 -2 13 177 13 397 c 0
 13 617 120 797 250 797 c 0
283 208 m 0
 283 238 301 252 324 252 c 0
 344 252 367 242 386 220 c 1
 404 270 406 331 406 397 c 0
 406 568 341 708 250 708 c 0
 159 708 94 568 94 397 c 0
 94 226 159 87 250 87 c 0
 285 87 318 108 345 143 c 1
 340 155 330 164 318 164 c 0
 299 164 283 183 283 208 c 0
EndSplineSet
Substitution2: "'ss01' CART SUB" Q_combCartExtTok
Substitution2: "'ss01' CONT SUB" Q_combLongGlyphExtTok
Colour: fffaaa
EndChar

StartChar: R
Encoding: 82 82 82
Width: 500
LayerCount: 2
Fore
SplineSet
170 706 m 2
 149 706 131 689 131 668 c 2
 131 486 l 2
 131 479 139 470 146 470 c 2
 250 470 l 2
 315 470 368 523 368 588 c 0
 368 653 315 706 250 706 c 2
 170 706 l 2
458 44 m 0
 458 21 439 -1 414 -1 c 0
 400 -1 387 6 378 18 c 2
 190 281 l 1
 173 303 164 330 164 359 c 2
 164 381 l 1
 131 381 l 1
 131 43 l 2
 131 19 111 -1 86 -1 c 0
 61 -1 42 19 42 43 c 2
 42 676 l 2
 42 741 100 795 166 795 c 2
 250 795 l 1
 375 793 457 693 457 588 c 0
 457 476 369 381 258 381 c 2
 253 381 l 1
 253 357 l 2
 253 353 254 344 258 338 c 2
 450 69 l 2
 455 61 458 53 458 44 c 0
EndSplineSet
Substitution2: "'ss01' CART SUB" R_combCartExtTok
Substitution2: "'ss01' CONT SUB" R_combLongGlyphExtTok
Colour: fffaaa
EndChar

StartChar: S
Encoding: 83 83 83
Width: 500
LayerCount: 2
Fore
SplineSet
228 0 m 2
 101 0 42 102 42 201 c 2
 42 207 l 2
 42 231 61 251 86 251 c 0
 111 251 130 231 130 207 c 0
 130 142 163 89 228 89 c 0
 253 89 279 88 304 88 c 0
 362 88 390 136 390 194 c 0
 390 235 366 268 334 288 c 1
 116 436 l 1
 60 470 22 532 22 604 c 0
 22 710 85 798 190 798 c 2
 276 798 l 2
 385 798 458 707 458 597 c 2
 458 591 l 2
 458 567 439 547 414 547 c 0
 389 547 370 567 370 591 c 0
 370 656 337 710 272 710 c 2
 196 710 l 2
 138 710 110 662 110 604 c 0
 110 563 114 530 146 510 c 2
 384 362 l 2
 440 328 478 266 478 194 c 0
 478 88 415 0 310 0 c 2
 228 0 l 2
EndSplineSet
Substitution2: "'ss01' CART SUB" S_combCartExtTok
Substitution2: "'ss01' CONT SUB" S_combLongGlyphExtTok
Colour: fffaaa
EndChar

StartChar: T
Encoding: 84 84 84
Width: 500
LayerCount: 2
Fore
SplineSet
87 795 m 2
 413 795 l 2
 437 795 457 776 457 751 c 0
 457 726 437 707 413 707 c 2
 309 707 l 2
 302 707 295 699 295 692 c 2
 295 43 l 2
 295 19 275 -1 250 -1 c 0
 225 -1 206 19 206 43 c 2
 206 692 l 2
 206 699 198 707 191 707 c 2
 87 707 l 2
 63 707 43 726 43 751 c 0
 43 776 63 795 87 795 c 2
EndSplineSet
Substitution2: "'ss01' CART SUB" T_combCartExtTok
Substitution2: "'ss01' CONT SUB" T_combLongGlyphExtTok
Colour: fffaaa
EndChar

StartChar: U
Encoding: 85 85 85
Width: 500
LayerCount: 2
Fore
SplineSet
250 -2 m 0
 86 -2 34 179 34 395 c 2
 34 752 l 2
 34 776 53 796 78 796 c 0
 103 796 123 776 123 752 c 2
 123 397 l 2
 123 226 136 86 250 86 c 0
 364 86 377 226 377 397 c 2
 377 752 l 2
 377 776 397 796 422 796 c 0
 447 796 466 776 466 752 c 2
 466 395 l 1
 465 175 413 -2 250 -2 c 0
EndSplineSet
Substitution2: "'ss01' CART SUB" U_combCartExtTok
Substitution2: "'ss01' CONT SUB" U_combLongGlyphExtTok
Colour: fffaaa
EndChar

StartChar: V
Encoding: 86 86 86
Width: 500
LayerCount: 2
Fore
SplineSet
424 797 m 0
 451 797 468 775 468 753 c 0
 468 749 467 745 466 741 c 2
 374 92 l 2
 366 37 309 -3 250 -3 c 0
 191 -3 134 37 126 92 c 2
 34 741 l 2
 33 745 32 749 32 753 c 0
 32 776 50 797 76 797 c 0
 96 797 113 784 118 764 c 1
 212 117 l 2
 216 93 237 86 250 86 c 0
 265 86 280 94 288 117 c 1
 382 764 l 1
 387 784 404 797 424 797 c 0
EndSplineSet
Substitution2: "'ss01' CART SUB" V_combCartExtTok
Substitution2: "'ss01' CONT SUB" V_combLongGlyphExtTok
Colour: fffaaa
EndChar

StartChar: W
Encoding: 87 87 87
Width: 500
LayerCount: 2
Fore
SplineSet
175 -2 m 0
 77 -2 35 77 35 174 c 2
 35 752 l 2
 35 776 54 796 79 796 c 0
 104 796 124 776 124 752 c 2
 124 180 l 2
 124 129 124 86 175 86 c 0
 202 86 206 100 206 122 c 0
 206 132 205 144 205 156 c 2
 205 396 l 2
 205 420 224 440 249 440 c 0
 274 440 294 420 294 396 c 2
 294 156 l 2
 294 144 293 132 293 122 c 0
 293 100 297 86 324 86 c 0
 375 86 376 129 376 180 c 2
 376 752 l 2
 376 776 396 796 421 796 c 0
 446 796 465 776 465 752 c 2
 465 174 l 2
 465 77 422 -2 324 -2 c 0
 284 -2 282 13 250 46 c 1
 218 13 215 -2 175 -2 c 0
EndSplineSet
Substitution2: "'ss01' CART SUB" W_combCartExtTok
Substitution2: "'ss01' CONT SUB" W_combLongGlyphExtTok
Colour: fffaaa
EndChar

StartChar: X
Encoding: 88 88 88
Width: 500
LayerCount: 2
Fore
SplineSet
39 753 m 0
 39 775 57 797 84 797 c 0
 101 797 116 787 123 772 c 2
 242 518 l 2
 244 513 256 513 258 518 c 2
 377 772 l 2
 384 788 400 797 417 797 c 0
 444 797 461 775 461 753 c 0
 461 747 460 740 457 734 c 2
 309 418 l 2
 306 412 304 404 304 397 c 0
 304 390 306 382 309 376 c 2
 457 60 l 2
 460 54 461 48 461 42 c 0
 461 20 444 -3 417 -3 c 0
 400 -3 384 7 377 23 c 2
 258 276 l 2
 256 281 244 281 242 276 c 2
 123 23 l 2
 116 7 100 -3 83 -3 c 0
 56 -3 39 20 39 42 c 0
 39 48 40 54 43 60 c 2
 191 376 l 2
 194 382 196 390 196 397 c 0
 196 404 194 412 191 418 c 2
 43 734 l 2
 40 740 39 747 39 753 c 0
EndSplineSet
Substitution2: "'ss01' CART SUB" X_combCartExtTok
Substitution2: "'ss01' CONT SUB" X_combLongGlyphExtTok
Colour: fffaaa
EndChar

StartChar: Y
Encoding: 89 89 89
Width: 500
LayerCount: 2
Fore
SplineSet
416 752 m 2
 416 776 432 796 452 796 c 0
 472 796 487 776 487 752 c 2
 487 711 l 2
 487 541 430 360 306 319 c 0
 301 317 294 309 294 303 c 2
 294 42 l 2
 294 18 269 -2 249 -2 c 0
 229 -2 204 18 204 42 c 2
 204 303 l 2
 204 326 188 312 135 362 c 0
 63 430 13 518 13 711 c 2
 13 752 l 2
 13 776 28 796 48 796 c 0
 68 796 84 776 84 752 c 2
 84 711 l 2
 84 540 159 400 250 400 c 0
 341 400 416 540 416 711 c 2
 416 752 l 2
EndSplineSet
Substitution2: "'ss01' CART SUB" Y_combCartExtTok
Substitution2: "'ss01' CONT SUB" Y_combLongGlyphExtTok
Colour: fffaaa
EndChar

StartChar: Z
Encoding: 90 90 90
Width: 500
LayerCount: 2
Fore
SplineSet
36 92 m 0
 36 109 40 124 48 138 c 2
 181 368 l 1
 152 368 l 2
 128 368 108 388 108 413 c 0
 108 438 128 457 152 457 c 2
 233 457 l 1
 373 699 l 2
 373 700 374 701 374 702 c 0
 374 705 372 708 369 708 c 2
 77 708 l 2
 53 708 33 727 33 752 c 0
 33 777 53 796 77 796 c 2
 374 796 l 2
 424 796 462 752 462 702 c 0
 462 682 457 666 449 653 c 2
 335 456 l 1
 356 453 371 435 371 413 c 0
 371 388 351 368 327 368 c 2
 284 368 l 1
 125 95 l 2
 124 94 125 93 125 92 c 0
 125 89 127 86 130 86 c 2
 423 86 l 2
 447 86 467 67 467 42 c 0
 467 17 447 -2 423 -2 c 2
 130 -2 l 2
 82 -2 36 37 36 92 c 0
EndSplineSet
Substitution2: "'ss01' CART SUB" Z_combCartExtTok
Substitution2: "'ss01' CONT SUB" Z_combLongGlyphExtTok
Colour: fffaaa
EndChar

StartChar: bracketleft
Encoding: 91 91 91
Width: 500
LayerCount: 2
Fore
SplineSet
282 922 m 2
 301 922 l 2
 325 922 345 902 345 877 c 0
 345 852 325 833 301 833 c 2
 282 833 l 2
 261 833 244 816 244 795 c 2
 244 -1 l 2
 244 -22 261 -39 282 -39 c 2
 301 -39 l 2
 325 -39 345 -58 345 -83 c 0
 345 -108 325 -128 301 -128 c 2
 282 -128 l 2
 212 -128 155 -71 155 -1 c 2
 155 795 l 2
 155 865 212 922 282 922 c 2
EndSplineSet
Substitution2: "'ss01' CART SUB" bracketleft_combCartExtTok
Substitution2: "'ss01' CONT SUB" bracketleft_combLongGlyphExtTok
Colour: fffaaa
EndChar

StartChar: backslash
Encoding: 92 92 92
Width: 500
LayerCount: 2
Fore
SplineSet
500 44 m 0
 500 22 480 0 454 0 c 0
 439 0 424 7 416 21 c 2
 6 732 l 2
 2 739 0 747 0 754 c 0
 0 776 20 798 46 798 c 0
 61 798 76 790 84 776 c 2
 494 66 l 2
 498 59 500 52 500 44 c 0
EndSplineSet
Substitution2: "'ss01' CART SUB" backslash_combCartExtTok
Substitution2: "'ss01' CONT SUB" backslash_combLongGlyphExtTok
Colour: fffaaa
EndChar

StartChar: bracketright
Encoding: 93 93 93
Width: 500
LayerCount: 2
Fore
SplineSet
218 922 m 2
 288 922 345 865 345 795 c 2
 345 -1 l 2
 345 -71 288 -128 218 -128 c 2
 199 -128 l 2
 175 -128 155 -108 155 -83 c 0
 155 -58 175 -39 199 -39 c 2
 218 -39 l 2
 239 -39 257 -22 257 -1 c 2
 257 795 l 2
 257 816 239 833 218 833 c 2
 199 833 l 2
 175 833 155 852 155 877 c 0
 155 902 175 922 199 922 c 2
 218 922 l 2
EndSplineSet
Substitution2: "'ss01' CART SUB" bracketright_combCartExtTok
Substitution2: "'ss01' CONT SUB" bracketright_combLongGlyphExtTok
Colour: fffaaa
EndChar

StartChar: asciicircum
Encoding: 94 94 94
Width: 500
LayerCount: 2
Fore
SplineSet
510 423 m 0
 510 401 492 379 466 379 c 0
 450 379 434 388 426 403 c 2
 284 685 l 2
 274 703 259 706 250 706 c 0
 233 706 221 696 214 682 c 2
 74 403 l 2
 66 388 50 379 34 379 c 0
 8 379 -10 401 -10 423 c 0
 -10 430 -9 437 -6 443 c 2
 134 721 l 1
 156 769 201 795 250 795 c 0
 295 795 336 771 358 735 c 1
 506 443 l 2
 509 437 510 430 510 423 c 0
EndSplineSet
Substitution2: "'ss01' CART SUB" asciicircum_combCartExtTok
Substitution2: "'ss01' CONT SUB" asciicircum_combLongGlyphExtTok
Colour: fffaaa
EndChar

StartChar: underscore
Encoding: 95 95 95
Width: 500
LayerCount: 2
Fore
SplineSet
547 -168 m 0
 547 -193 527 -213 503 -213 c 2
 -3 -213 l 2
 -27 -213 -47 -193 -47 -168 c 0
 -47 -143 -27 -124 -3 -124 c 2
 503 -124 l 2
 527 -124 547 -143 547 -168 c 0
EndSplineSet
Substitution2: "'ss01' CART SUB" underscore_combCartExtTok
Substitution2: "'ss01' CONT SUB" underscore_combLongGlyphExtTok
Colour: fffaaa
EndChar

StartChar: grave
Encoding: 96 96 96
Width: 500
LayerCount: 2
Fore
SplineSet
176 745 m 0
 176 767 194 789 221 789 c 0
 239 789 255 779 262 762 c 2
 321 618 l 2
 323 613 325 608 325 602 c 0
 325 580 307 557 280 557 c 0
 263 557 246 567 239 584 c 2
 180 728 l 2
 178 734 176 739 176 745 c 0
EndSplineSet
Substitution2: "'ss01' CART SUB" grave_combCartExtTok
Substitution2: "'ss01' CONT SUB" grave_combLongGlyphExtTok
Colour: fffaaa
EndChar

StartChar: a
Encoding: 97 97 97
Width: 500
LayerCount: 2
Fore
SplineSet
250 325 m 0
 185 325 132 271 132 206 c 0
 132 141 185 88 250 88 c 0
 315 88 368 141 368 206 c 0
 368 271 315 325 250 325 c 0
412 414 m 0
 437 414 457 394 457 370 c 2
 457 43 l 2
 457 19 437 -1 412 -1 c 0
 389 -1 372 16 369 37 c 1
 335 13 294 -1 250 -1 c 0
 136 -1 43 92 43 206 c 0
 43 320 136 413 250 413 c 0
 294 413 335 400 369 376 c 1
 372 397 389 414 412 414 c 0
EndSplineSet
Substitution2: "'ss01' CART SUB" a_combCartExtTok
Substitution2: "'ss01' CONT SUB" a_combLongGlyphExtTok
Colour: fffaaa
EndChar

StartChar: b
Encoding: 98 98 98
Width: 500
LayerCount: 2
Fore
SplineSet
250 326 m 0
 185 326 132 273 132 208 c 0
 132 143 185 90 250 90 c 0
 315 90 368 143 368 208 c 0
 368 273 315 326 250 326 c 0
87 797 m 0
 112 797 132 777 132 753 c 2
 132 378 l 1
 166 401 206 415 250 415 c 0
 364 415 457 322 457 208 c 0
 457 94 364 1 250 1 c 0
 206 1 165 15 131 39 c 1
 128 18 110 1 87 1 c 0
 62 1 43 21 43 45 c 2
 43 753 l 2
 43 777 62 797 87 797 c 0
EndSplineSet
Substitution2: "'ss01' CART SUB" b_combCartExtTok
Substitution2: "'ss01' CONT SUB" b_combLongGlyphExtTok
Colour: fffaaa
EndChar

StartChar: c
Encoding: 99 99 99
Width: 500
LayerCount: 2
Fore
SplineSet
432 328 m 0
 432 300 410 281 382 281 c 0
 374 281 367 284 360 290 c 0
 338 311 309 325 276 325 c 0
 211 325 157 272 157 207 c 0
 157 142 211 88 276 88 c 0
 309 88 339 101 360 123 c 0
 365 129 373 131 382 131 c 0
 409 131 430 109 430 83 c 0
 430 74 428 66 422 60 c 0
 385 22 333 0 276 0 c 0
 162 0 68 93 68 207 c 0
 68 321 162 414 276 414 c 0
 333 414 385 391 422 353 c 0
 429 346 432 336 432 328 c 0
EndSplineSet
Substitution2: "'ss01' CART SUB" c_combCartExtTok
Substitution2: "'ss01' CONT SUB" c_combLongGlyphExtTok
Colour: fffaaa
EndChar

StartChar: d
Encoding: 100 100 100
Width: 500
LayerCount: 2
Fore
SplineSet
250 326 m 0
 185 326 132 273 132 208 c 0
 132 143 185 90 250 90 c 0
 315 90 368 143 368 208 c 0
 368 273 315 326 250 326 c 0
412 797 m 0
 437 797 457 777 457 753 c 2
 457 45 l 2
 457 21 437 1 412 1 c 0
 389 1 372 17 369 38 c 1
 335 14 294 1 250 1 c 0
 136 1 43 94 43 208 c 0
 43 322 136 415 250 415 c 0
 294 415 334 401 368 378 c 1
 368 753 l 2
 368 777 387 797 412 797 c 0
EndSplineSet
Substitution2: "'ss01' CART SUB" d_combCartExtTok
Substitution2: "'ss01' CONT SUB" d_combLongGlyphExtTok
Colour: fffaaa
EndChar

StartChar: e
Encoding: 101 101 101
Width: 500
LayerCount: 2
Fore
SplineSet
380 154 m 0
 408 154 426 124 426 107 c 0
 426 100 425 95 422 91 c 0
 385 37 322 0 250 0 c 0
 136 0 44 93 44 207 c 0
 44 321 136 414 250 414 c 0
 393 414 456 283 456 225 c 0
 456 200 436 180 412 180 c 2
 192 180 l 2
 168 180 148 200 148 225 c 0
 148 250 168 269 192 269 c 2
 326 269 l 2
 339 269 344 281 334 290 c 0
 313 311 283 325 250 325 c 0
 185 325 133 272 133 207 c 0
 133 142 185 89 250 89 c 0
 291 89 327 109 348 140 c 0
 351 144 364 154 380 154 c 0
EndSplineSet
Substitution2: "'ss01' CART SUB" e_combCartExtTok
Substitution2: "'ss01' CONT SUB" e_combLongGlyphExtTok
Colour: fffaaa
EndChar

StartChar: f
Encoding: 102 102 102
Width: 500
LayerCount: 2
Fore
SplineSet
284 797 m 0
 386 797 489 718 490 590 c 0
 490 566 471 546 446 546 c 0
 421 546 402 566 402 590 c 0
 402 655 349 708 284 708 c 0
 219 708 164 655 164 590 c 2
 164 411 l 1
 350 411 l 2
 374 411 394 393 394 368 c 0
 394 343 374 323 350 323 c 2
 164 323 l 1
 164 42 l 2
 164 18 145 -2 120 -2 c 0
 95 -2 76 18 76 42 c 2
 76 323 l 1
 54 323 l 2
 30 323 10 343 10 368 c 0
 10 393 30 411 54 411 c 2
 76 411 l 1
 76 599 l 2
 76 709 173 797 284 797 c 0
EndSplineSet
Substitution2: "'ss01' CART SUB" f_combCartExtTok
Substitution2: "'ss01' CONT SUB" f_combLongGlyphExtTok
Colour: fffaaa
EndChar

StartChar: g
Encoding: 103 103 103
Width: 500
LayerCount: 2
Fore
SplineSet
250 325 m 0
 185 325 132 272 132 207 c 0
 132 142 185 88 250 88 c 0
 315 88 368 142 368 207 c 0
 368 272 315 325 250 325 c 0
250 -385 m 0
 155 -385 45 -316 43 -178 c 0
 43 -154 62 -134 87 -134 c 0
 112 -134 132 -154 132 -178 c 0
 132 -243 185 -297 250 -297 c 0
 315 -297 368 -243 368 -178 c 2
 368 37 l 1
 334 14 294 0 250 0 c 0
 136 0 43 93 43 207 c 0
 43 321 136 414 250 414 c 0
 294 414 335 400 369 376 c 1
 372 397 390 414 413 414 c 0
 438 414 457 394 457 370 c 2
 457 -187 l 2
 457 -297 361 -385 250 -385 c 0
EndSplineSet
Substitution2: "'ss01' CART SUB" g_combCartExtTok
Substitution2: "'ss01' CONT SUB" g_combLongGlyphExtTok
Colour: fffaaa
EndChar

StartChar: h
Encoding: 104 104 104
Width: 500
LayerCount: 2
Fore
SplineSet
87 796 m 0
 112 796 132 776 132 752 c 2
 132 376 l 1
 166 399 206 414 250 414 c 0
 364 414 457 322 457 208 c 2
 457 43 l 2
 457 19 437 -1 412 -1 c 0
 387 -1 368 19 368 43 c 2
 368 207 l 2
 368 272 315 325 250 325 c 0
 185 325 132 272 132 207 c 2
 132 43 l 2
 132 19 112 -1 87 -1 c 0
 62 -1 43 19 43 43 c 2
 43 752 l 2
 43 776 62 796 87 796 c 0
EndSplineSet
Substitution2: "'ss01' CART SUB" h_combCartExtTok
Substitution2: "'ss01' CONT SUB" h_combLongGlyphExtTok
Colour: fffaaa
EndChar

StartChar: i
Encoding: 105 105 105
Width: 500
LayerCount: 2
Fore
SplineSet
176 414 m 2
 252 414 l 2
 274 414 294 397 294 375 c 2
 294 98 l 2
 294 92 296 88 304 88 c 2
 324 88 l 2
 348 88 369 69 369 44 c 0
 369 19 348 -1 324 -1 c 2
 176 -1 l 2
 152 -1 132 19 132 44 c 0
 132 69 152 88 176 88 c 2
 196 88 l 2
 202 88 204 92 204 98 c 2
 204 317 l 2
 204 321 200 325 196 325 c 2
 176 325 l 2
 152 325 132 345 132 370 c 0
 132 395 152 414 176 414 c 2
218 603 m 2
 250 603 l 2
 274 603 294 584 294 559 c 2
 294 531 l 2
 294 506 274 486 250 486 c 2
 218 486 l 2
 194 486 174 506 174 531 c 2
 174 559 l 2
 174 584 194 603 218 603 c 2
EndSplineSet
Substitution2: "'ss01' CART SUB" i_combCartExtTok
Substitution2: "'ss01' CONT SUB" i_combLongGlyphExtTok
Colour: fffaaa
EndChar

StartChar: j
Encoding: 106 106 106
Width: 500
LayerCount: 2
Fore
SplineSet
250 -385 m 0
 162 -385 45 -322 43 -178 c 0
 43 -154 62 -134 87 -134 c 0
 112 -134 132 -154 132 -178 c 0
 132 -243 185 -296 250 -296 c 0
 315 -296 368 -243 368 -178 c 2
 368 317 l 2
 368 321 364 326 360 326 c 2
 339 326 l 2
 315 326 295 345 295 370 c 0
 295 395 315 414 339 414 c 2
 414 414 l 2
 436 414 457 397 457 375 c 2
 457 -178 l 2
 457 -292 364 -385 250 -385 c 0
381 604 m 2
 413 604 l 2
 437 604 457 585 457 560 c 2
 457 531 l 2
 457 506 437 487 413 487 c 2
 381 487 l 2
 357 487 337 506 337 531 c 2
 337 560 l 2
 337 585 357 604 381 604 c 2
EndSplineSet
Substitution2: "'ss01' CART SUB" j_combCartExtTok
Substitution2: "'ss01' CONT SUB" j_combLongGlyphExtTok
Colour: fffaaa
EndChar

StartChar: k
Encoding: 107 107 107
Width: 500
LayerCount: 2
Fore
SplineSet
459 46 m 0
 459 21 437 2 414 2 c 0
 405 2 395 5 387 11 c 2
 135 209 l 2
 132 211 130 210 130 207 c 2
 130 45 l 2
 130 21 110 1 85 1 c 0
 60 1 41 21 41 45 c 2
 41 753 l 2
 41 777 60 797 85 797 c 0
 110 797 130 777 130 753 c 2
 130 405 l 2
 130 397 141 408 141 408 c 1
 305 555 l 2
 313 563 325 567 335 567 c 0
 358 567 379 546 379 522 c 0
 379 510 374 498 364 489 c 2
 161 307 l 2
 159 305 160 302 162 300 c 2
 442 81 l 2
 453 72 459 59 459 46 c 0
EndSplineSet
Substitution2: "'ss01' CART SUB" k_combCartExtTok
Substitution2: "'ss01' CONT SUB" k_combLongGlyphExtTok
Colour: fffaaa
EndChar

StartChar: l
Encoding: 108 108 108
Width: 500
LayerCount: 2
Fore
SplineSet
206 667 m 2
 206 700 184 709 172 709 c 2
 167 709 l 2
 143 709 123 728 123 753 c 0
 123 778 143 798 167 798 c 0
 237 798 294 741 294 671 c 2
 294 124 l 2
 294 104 310 86 328 86 c 2
 333 86 l 2
 357 86 377 67 377 42 c 0
 377 17 357 -3 333 -3 c 0
 263 -3 206 54 206 124 c 2
 206 667 l 2
EndSplineSet
Substitution2: "'ss01' CART SUB" l_combCartExtTok
Substitution2: "'ss01' CONT SUB" l_combLongGlyphExtTok
Colour: fffaaa
EndChar

StartChar: m
Encoding: 109 109 109
Width: 500
LayerCount: 2
Fore
SplineSet
78 415 m 0
 96 415 111 406 118 391 c 1
 126 407 133 414 164 414 c 0
 214 414 232 393 250 358 c 1
 269 392 286 414 336 414 c 0
 426 414 466 356 466 256 c 2
 466 45 l 2
 466 21 446 1 421 1 c 0
 396 1 377 21 377 45 c 2
 377 256 l 2
 377 297 377 326 336 326 c 0
 300 326 295 302 295 270 c 2
 295 45 l 2
 295 21 275 1 250 1 c 0
 225 1 206 21 206 45 c 2
 206 257 l 2
 206 295 205 326 164 326 c 0
 124 326 123 294 123 259 c 2
 123 45 l 2
 123 21 103 1 78 1 c 0
 53 1 34 21 34 45 c 2
 34 371 l 2
 34 395 53 415 78 415 c 0
EndSplineSet
Substitution2: "'ss01' CART SUB" m_combCartExtTok
Substitution2: "'ss01' CONT SUB" m_combLongGlyphExtTok
Colour: fffaaa
EndChar

StartChar: n
Encoding: 110 110 110
Width: 500
LayerCount: 2
Fore
SplineSet
87 414 m 0
 110 414 128 397 131 376 c 1
 165 400 206 413 250 413 c 0
 360 413 457 324 457 219 c 0
 457 160 457 102 457 43 c 0
 457 19 437 -1 412 -1 c 0
 387 -1 368 19 368 43 c 2
 368 207 l 2
 368 272 315 325 250 325 c 0
 185 325 132 272 132 207 c 2
 132 43 l 2
 132 19 112 -1 87 -1 c 0
 62 -1 43 19 43 43 c 2
 43 370 l 2
 43 394 62 414 87 414 c 0
EndSplineSet
Substitution2: "'ss01' CART SUB" n_combCartExtTok
Substitution2: "'ss01' CONT SUB" n_combLongGlyphExtTok
Colour: fffaaa
EndChar

StartChar: o
Encoding: 111 111 111
Width: 500
LayerCount: 2
Fore
SplineSet
250 326 m 0
 185 326 132 273 132 208 c 0
 132 143 185 90 250 90 c 0
 315 90 368 143 368 208 c 0
 368 273 315 326 250 326 c 0
250 415 m 0
 364 415 457 322 457 208 c 0
 457 94 364 1 250 1 c 0
 136 1 43 94 43 208 c 0
 43 322 136 415 250 415 c 0
EndSplineSet
Substitution2: "'ss01' CART SUB" o_combCartExtTok
Substitution2: "'ss01' CONT SUB" o_combLongGlyphExtTok
Colour: fffaaa
EndChar

StartChar: p
Encoding: 112 112 112
Width: 500
LayerCount: 2
Fore
SplineSet
250 325 m 0
 186 325 134 275 132 212 c 1
 132 203 l 1
 134 140 186 89 250 89 c 0
 315 89 368 142 368 207 c 0
 368 272 315 325 250 325 c 0
250 414 m 0
 364 414 457 321 457 207 c 0
 457 93 364 0 250 0 c 0
 206 0 166 14 132 37 c 1
 132 -342 l 2
 132 -366 112 -386 87 -386 c 0
 62 -386 43 -366 43 -342 c 2
 43 369 l 2
 43 393 62 413 87 413 c 0
 109 413 127 398 131 377 c 1
 165 401 206 414 250 414 c 0
EndSplineSet
Substitution2: "'ss01' CART SUB" p_combCartExtTok
Substitution2: "'ss01' CONT SUB" p_combLongGlyphExtTok
Colour: fffaaa
EndChar

StartChar: q
Encoding: 113 113 113
Width: 500
LayerCount: 2
Fore
SplineSet
216 326 m 0
 151 326 108 273 108 208 c 0
 108 143 151 90 216 90 c 0
 280 90 322 141 324 204 c 1
 324 213 l 1
 322 276 280 326 216 326 c 0
451 -384 m 2
 339 -384 325 -294 324 -183 c 1
 324 38 l 1
 290 15 260 1 216 1 c 0
 102 1 19 94 19 208 c 0
 19 322 102 415 216 415 c 0
 260 415 291 402 325 378 c 1
 329 399 347 414 369 414 c 0
 394 414 413 394 413 370 c 2
 413 -177 l 2
 413 -242 424 -295 451 -295 c 2
 457 -295 l 2
 481 -295 501 -314 501 -339 c 0
 501 -364 481 -384 457 -384 c 2
 451 -384 l 2
EndSplineSet
Substitution2: "'ss01' CART SUB" q_combCartExtTok
Substitution2: "'ss01' CONT SUB" q_combLongGlyphExtTok
Colour: fffaaa
EndChar

StartChar: r
Encoding: 114 114 114
Width: 500
LayerCount: 2
Fore
SplineSet
442 300 m 0
 442 277 423 254 398 254 c 0
 371 254 353 284 348 289 c 0
 327 310 297 323 264 323 c 0
 199 323 147 270 147 205 c 2
 147 42 l 2
 147 18 127 -2 102 -2 c 0
 77 -2 58 18 58 42 c 2
 58 368 l 2
 58 392 77 412 102 412 c 0
 125 412 143 396 146 375 c 1
 180 399 220 412 264 412 c 0
 367 412 427 338 436 324 c 0
 441 317 442 308 442 300 c 0
EndSplineSet
Substitution2: "'ss01' CART SUB" r_combCartExtTok
Substitution2: "'ss01' CONT SUB" r_combLongGlyphExtTok
Colour: fffaaa
EndChar

StartChar: s
Encoding: 115 115 115
Width: 500
LayerCount: 2
Fore
SplineSet
412 317 m 0
 412 294 391 273 366 273 c 0
 352 273 341 279 332 291 c 0
 322 306 306 325 250 325 c 0
 205 325 169 308 169 288 c 0
 169 268 205 251 250 251 c 0
 344 251 420 194 420 125 c 0
 420 56 344 0 250 0 c 0
 187 0 123 26 94 76 c 0
 89 84 86 94 86 103 c 0
 86 126 105 146 130 146 c 0
 144 146 157 140 166 128 c 0
 178 111 188 88 250 88 c 0
 295 88 332 105 332 125 c 0
 332 145 294 162 250 162 c 0
 156 162 80 219 80 288 c 0
 80 357 156 413 250 413 c 0
 308 413 373 390 404 342 c 0
 410 334 412 326 412 317 c 0
EndSplineSet
Substitution2: "'ss01' CART SUB" s_combCartExtTok
Substitution2: "'ss01' CONT SUB" s_combLongGlyphExtTok
Colour: fffaaa
EndChar

StartChar: t
Encoding: 116 116 116
Width: 500
LayerCount: 2
Fore
SplineSet
288 205 m 2
 288 154 326 87 412 87 c 2
 414 87 l 2
 438 87 458 68 458 43 c 0
 458 18 438 -2 414 -2 c 2
 408 -2 l 2
 296 -2 200 88 200 199 c 2
 200 397 l 1
 86 397 l 2
 62 397 42 417 42 442 c 0
 42 467 62 485 86 485 c 2
 200 485 l 1
 200 580 l 2
 200 604 219 624 244 624 c 0
 270 624 288 603 288 580 c 2
 288 485 l 1
 414 485 l 2
 438 485 456 467 456 442 c 0
 456 417 438 397 414 397 c 2
 288 397 l 1
 288 205 l 2
EndSplineSet
Substitution2: "'ss01' CART SUB" t_combCartExtTok
Substitution2: "'ss01' CONT SUB" t_combLongGlyphExtTok
Colour: fffaaa
EndChar

StartChar: u
Encoding: 117 117 117
Width: 500
LayerCount: 2
Fore
SplineSet
413 1 m 0
 390 1 372 18 369 39 c 1
 335 15 294 1 250 1 c 0
 140 1 43 91 43 196 c 0
 43 254 43 313 43 371 c 0
 43 395 63 415 88 415 c 0
 113 415 132 395 132 371 c 2
 132 208 l 2
 132 143 185 90 250 90 c 0
 315 90 368 143 368 208 c 2
 368 371 l 2
 368 395 388 415 413 415 c 0
 438 415 457 395 457 371 c 2
 457 45 l 2
 457 21 438 1 413 1 c 0
EndSplineSet
Substitution2: "'ss01' CART SUB" u_combCartExtTok
Substitution2: "'ss01' CONT SUB" u_combLongGlyphExtTok
Colour: fffaaa
EndChar

StartChar: v
Encoding: 118 118 118
Width: 500
LayerCount: 2
Fore
SplineSet
10 372 m 0
 10 395 27 416 54 416 c 0
 70 416 86 407 94 392 c 1
 214 113 l 2
 220 99 233 89 250 89 c 0
 259 89 276 91 284 110 c 2
 406 392 l 1
 414 407 430 416 446 416 c 0
 472 416 490 394 490 372 c 0
 490 365 489 358 486 352 c 2
 358 59 l 1
 336 23 295 0 250 0 c 0
 198 0 155 28 134 74 c 1
 14 352 l 2
 11 358 10 365 10 372 c 0
EndSplineSet
Substitution2: "'ss01' CART SUB" v_combCartExtTok
Substitution2: "'ss01' CONT SUB" v_combLongGlyphExtTok
Colour: fffaaa
EndChar

StartChar: w
Encoding: 119 119 119
Width: 500
LayerCount: 2
Fore
SplineSet
250 43 m 1
 235 18 222 0 174 0 c 0
 67 0 31 86 31 193 c 2
 31 372 l 2
 31 396 50 416 75 416 c 0
 100 416 120 396 120 372 c 2
 120 172 l 2
 120 124 123 89 174 89 c 0
 201 89 206 114 206 147 c 2
 206 194 l 2
 206 218 225 238 250 238 c 0
 275 238 294 218 294 194 c 2
 294 147 l 2
 294 114 305 89 326 89 c 0
 377 89 380 124 380 172 c 2
 380 372 l 2
 380 396 400 416 425 416 c 0
 450 416 469 396 469 372 c 2
 469 193 l 2
 469 86 433 0 326 0 c 0
 278 0 265 16 250 43 c 1
EndSplineSet
Substitution2: "'ss01' CART SUB" w_combCartExtTok
Substitution2: "'ss01' CONT SUB" w_combLongGlyphExtTok
Colour: fffaaa
EndChar

StartChar: x
Encoding: 120 120 120
Width: 500
LayerCount: 2
Fore
SplineSet
41 372 m 0
 41 396 61 417 85 417 c 0
 96 417 107 413 116 404 c 2
 241 279 l 2
 245 275 254 275 258 279 c 2
 383 404 l 2
 392 413 403 417 414 417 c 0
 438 417 459 396 459 372 c 0
 459 361 454 349 446 341 c 2
 320 215 l 2
 316 211 317 203 321 199 c 2
 446 75 l 2
 455 66 459 54 459 43 c 0
 459 19 438 -1 414 -1 c 0
 403 -1 391 4 383 12 c 2
 257 138 l 2
 254 141 245 141 242 138 c 2
 117 12 l 2
 109 4 97 -1 86 -1 c 0
 62 -1 41 19 41 43 c 0
 41 54 45 66 54 75 c 2
 179 199 l 2
 183 203 184 211 180 215 c 2
 54 341 l 2
 46 349 41 361 41 372 c 0
EndSplineSet
Substitution2: "'ss01' CART SUB" x_combCartExtTok
Substitution2: "'ss01' CONT SUB" x_combLongGlyphExtTok
Colour: fffaaa
EndChar

StartChar: y
Encoding: 121 121 121
Width: 500
LayerCount: 2
Fore
SplineSet
369 38 m 1
 330 10 286 1 250 1 c 0
 140 1 43 91 43 196 c 0
 43 254 43 313 43 371 c 0
 43 395 63 415 88 415 c 0
 113 415 132 395 132 371 c 2
 132 208 l 2
 132 143 185 90 250 90 c 0
 315 90 368 143 368 208 c 2
 368 371 l 2
 368 395 388 415 413 415 c 0
 438 415 457 395 457 371 c 2
 457 -186 l 2
 457 -296 361 -384 250 -384 c 0
 157 -384 45 -316 43 -177 c 0
 43 -153 62 -133 87 -133 c 0
 112 -133 132 -153 132 -177 c 0
 132 -242 185 -295 250 -295 c 0
 315 -295 368 -242 368 -177 c 2
 368 -173 l 1
 369 38 l 1
EndSplineSet
Substitution2: "'ss01' CART SUB" y_combCartExtTok
Substitution2: "'ss01' CONT SUB" y_combLongGlyphExtTok
Colour: fffaaa
EndChar

StartChar: z
Encoding: 122 122 122
Width: 500
LayerCount: 2
Fore
SplineSet
86 413 m 2
 414 413 l 2
 438 413 458 394 458 369 c 0
 458 344 439 332 436 329 c 2
 354 247 l 1
 365 239 371 227 371 212 c 0
 371 187 352 167 328 167 c 2
 274 167 l 1
 194 88 l 1
 414 88 l 2
 438 88 458 69 458 44 c 0
 458 19 438 0 414 0 c 2
 86 0 l 2
 62 0 42 19 42 44 c 0
 42 56 48 67 56 75 c 2
 150 170 l 1
 134 177 122 193 122 212 c 0
 122 237 142 256 166 256 c 2
 236 256 l 1
 306 325 l 1
 86 325 l 2
 62 325 42 344 42 369 c 0
 42 394 62 413 86 413 c 2
EndSplineSet
Substitution2: "'ss01' CART SUB" z_combCartExtTok
Substitution2: "'ss01' CONT SUB" z_combLongGlyphExtTok
Colour: fffaaa
EndChar

StartChar: braceleft
Encoding: 123 123 123
Width: 500
LayerCount: 2
Fore
SplineSet
168 383 m 2
 178 383 l 2
 248 383 305 325 305 255 c 2
 305 -6 l 2
 305 -27 321 -44 342 -44 c 2
 388 -44 l 2
 412 -44 432 -63 432 -88 c 0
 432 -113 412 -133 388 -133 c 2
 342 -133 l 2
 272 -133 216 -76 216 -6 c 2
 216 256 l 2
 216 277 197 294 176 294 c 2
 168 294 l 2
 112 294 68 339 68 395 c 0
 68 451 112 496 168 496 c 2
 176 496 l 2
 197 496 216 513 216 534 c 2
 216 796 l 2
 216 866 272 923 342 923 c 2
 388 923 l 2
 412 923 432 903 432 878 c 0
 432 853 412 834 388 834 c 2
 342 834 l 2
 321 834 305 817 305 796 c 2
 305 535 l 2
 305 465 248 407 178 407 c 2
 168 407 l 2
 161 407 156 402 156 395 c 0
 156 388 161 383 168 383 c 2
EndSplineSet
Substitution2: "'ss01' CART SUB" braceleft_combCartExtTok
Substitution2: "'ss01' CONT SUB" braceleft_combLongGlyphExtTok
Colour: fffaaa
EndChar

StartChar: bar
Encoding: 124 124 124
Width: 500
LayerCount: 2
Fore
SplineSet
250 796 m 0
 275 796 295 776 295 752 c 2
 295 43 l 2
 295 19 275 -1 250 -1 c 0
 225 -1 206 19 206 43 c 2
 206 752 l 2
 206 776 225 796 250 796 c 0
EndSplineSet
Substitution2: "'ss01' CART SUB" bar_combCartExtTok
Substitution2: "'ss01' CONT SUB" bar_combLongGlyphExtTok
Colour: fffaaa
EndChar

StartChar: braceright
Encoding: 125 125 125
Width: 500
LayerCount: 2
Fore
SplineSet
332 407 m 2
 324 407 l 2
 254 407 196 465 196 535 c 2
 196 796 l 2
 196 817 179 834 158 834 c 2
 112 834 l 2
 88 834 68 853 68 878 c 0
 68 903 88 923 112 923 c 2
 158 923 l 2
 228 923 284 866 284 796 c 2
 284 534 l 2
 284 513 303 496 324 496 c 2
 332 496 l 2
 388 496 432 451 432 395 c 0
 432 339 388 294 332 294 c 2
 324 294 l 2
 303 294 284 277 284 256 c 2
 284 -6 l 2
 284 -76 228 -133 158 -133 c 2
 112 -133 l 2
 88 -133 68 -113 68 -88 c 0
 68 -63 88 -44 112 -44 c 2
 158 -44 l 2
 179 -44 196 -27 196 -6 c 2
 196 255 l 2
 196 325 254 383 324 383 c 2
 332 383 l 2
 339 383 344 388 344 395 c 0
 344 402 339 407 332 407 c 2
EndSplineSet
Substitution2: "'ss01' CART SUB" braceright_combCartExtTok
Substitution2: "'ss01' CONT SUB" braceright_combLongGlyphExtTok
Colour: fffaaa
EndChar

StartChar: asciitilde
Encoding: 126 126 126
Width: 500
LayerCount: 2
Fore
SplineSet
43 529 m 0
 43 593 93 657 170 657 c 0
 225 657 276 621 292 565 c 0
 297 548 312 537 329 537 c 0
 352 537 368 556 368 575 c 0
 368 583 365 590 365 598 c 0
 365 620 382 642 409 642 c 0
 443 642 457 611 457 575 c 0
 457 511 406 448 329 448 c 0
 274 448 223 484 207 540 c 0
 202 557 187 568 170 568 c 0
 147 568 132 548 132 529 c 0
 132 521 135 514 135 506 c 0
 135 484 118 463 91 463 c 0
 57 463 43 493 43 529 c 0
EndSplineSet
Substitution2: "'ss01' CART SUB" asciitilde_combCartExtTok
Substitution2: "'ss01' CONT SUB" asciitilde_combLongGlyphExtTok
Colour: fffaaa
EndChar

StartChar: middleDotTok
Encoding: 128 989596 128
Width: 1000
LayerCount: 2
Fore
SplineSet
600 400 m 0
 600 345 555 300 500 300 c 0
 445 300 400 345 400 400 c 0
 400 455 445 500 500 500 c 0
 555 500 600 455 600 400 c 0
EndSplineSet
Ligature2: "'liga' WORD PLUS SPACE" period space
Ligature2: "'liga' WORD" period
Substitution2: "'ss01' CART SUB" middleDotTok_combCartExtTok
Substitution2: "'ss01' CONT SUB" middleDotTok_combLongGlyphExtTok
Colour: cccfff
EndChar

StartChar: colonTok
Encoding: 129 989597 129
Width: 1000
LayerCount: 2
Fore
SplineSet
500 275 m 0
 555 275 600 230 600 175 c 0
 600 120 555 75 500 75 c 0
 445 75 400 120 400 175 c 0
 400 230 445 275 500 275 c 0
500 725 m 0
 555 725 600 680 600 625 c 0
 600 570 555 525 500 525 c 0
 445 525 400 570 400 625 c 0
 400 680 445 725 500 725 c 0
EndSplineSet
Ligature2: "'liga' WORD PLUS SPACE" colon space
Ligature2: "'liga' WORD" colon
Substitution2: "'ss01' CART SUB" colonTok_combCartExtTok
Substitution2: "'ss01' CONT SUB" colonTok_combLongGlyphExtTok
Colour: cccfff
EndChar

StartChar: middleDot2Tok
Encoding: 130 -1 130
Width: 1000
LayerCount: 2
Fore
SplineSet
375 400 m 0
 375 345 330 300 275 300 c 0
 220 300 175 345 175 400 c 0
 175 455 220 500 275 500 c 0
 330 500 375 455 375 400 c 0
825 400 m 0
 825 345 780 300 725 300 c 0
 670 300 625 345 625 400 c 0
 625 455 670 500 725 500 c 0
 780 500 825 455 825 400 c 0
EndSplineSet
Ligature2: "'liga' WORD PLUS SPACE" period period space
Ligature2: "'liga' WORD" period period
Substitution2: "'ss01' CART SUB" middleDot2Tok_combCartExtTok
Substitution2: "'ss01' CONT SUB" middleDot2Tok_combLongGlyphExtTok
Colour: cccfff
EndChar

StartChar: middleDot3Tok
Encoding: 131 -1 131
Width: 1000
LayerCount: 2
Fore
SplineSet
250 400 m 0
 250 345 205 300 150 300 c 0
 95 300 50 345 50 400 c 0
 50 455 95 500 150 500 c 0
 205 500 250 455 250 400 c 0
950 400 m 0
 950 345 905 300 850 300 c 0
 795 300 750 345 750 400 c 0
 750 455 795 500 850 500 c 0
 905 500 950 455 950 400 c 0
600 400 m 0
 600 345 555 300 500 300 c 0
 445 300 400 345 400 400 c 0
 400 455 445 500 500 500 c 0
 555 500 600 455 600 400 c 0
EndSplineSet
Ligature2: "'liga' WORD PLUS SPACE" period period period space
Ligature2: "'liga' WORD" period period period
Substitution2: "'ss01' CART SUB" middleDot3Tok_combCartExtTok
Substitution2: "'ss01' CONT SUB" middleDot3Tok_combLongGlyphExtTok
Colour: cccfff
EndChar

StartChar: itanTok
Encoding: 132 -1 132
Width: 1000
LayerCount: 2
Fore
SplineSet
530 60 m 0
 489 60 455 94 455 135 c 0
 455 176 489 210 530 210 c 0
 571 210 605 176 605 135 c 0
 605 94 571 60 530 60 c 0
401 738 m 0
 422 738 438 721 438 700 c 2
 438 608 l 1
 623 608 l 1
 623 700 l 2
 623 721 640 738 661 738 c 0
 682 738 698 721 698 700 c 2
 698 608 l 1
 790 608 l 2
 811 608 828 592 828 571 c 0
 828 550 811 533 790 533 c 2
 698 533 l 1
 698 348 l 1
 790 348 l 2
 811 348 828 332 828 311 c 0
 828 290 811 273 790 273 c 2
 698 273 l 1
 698 180 l 2
 698 159 682 142 661 142 c 0
 640 142 623 159 623 180 c 2
 623 273 l 1
 438 273 l 1
 438 180 l 2
 438 159 422 142 401 142 c 0
 380 142 363 159 363 180 c 2
 363 273 l 1
 270 273 l 2
 249 273 232 290 232 311 c 0
 232 332 249 348 270 348 c 2
 363 348 l 1
 363 533 l 1
 270 533 l 2
 249 533 232 550 232 571 c 0
 232 592 249 608 270 608 c 2
 363 608 l 1
 363 700 l 2
 363 721 380 738 401 738 c 0
438 533 m 1
 438 348 l 1
 623 348 l 1
 623 533 l 1
 438 533 l 1
0 400 m 0
 0 676 224 900 500 900 c 0
 776 900 1000 676 1000 400 c 0
 1000 124 776 -100 500 -100 c 0
 424 -100 351 -83 286 -52 c 1
 80 -52 l 2
 52 -52 30 -30 30 -2 c 0
 30 26 52 48 80 48 c 2
 145 48 l 1
 55 138 0 263 0 400 c 0
500 0 m 0
 721 0 900 179 900 400 c 0
 900 621 721 800 500 800 c 0
 279 800 100 621 100 400 c 0
 100 277 155 167 242 94 c 1
 242 210 l 2
 242 238 264 260 292 260 c 0
 320 260 342 238 342 210 c 2
 342 32 l 1
 390 11 444 0 500 0 c 0
EndSplineSet
Ligature2: "'liga' WORD PLUS SPACE" i t a n space
Ligature2: "'liga' WORD" i t a n
Substitution2: "'ss01' CART SUB" itanTok_combCartExtTok
Substitution2: "'ss01' CONT SUB" itanTok_combLongGlyphExtTok
Colour: cccfff
EndChar

StartChar: lipamankaTok
Encoding: 133 -1 133
Width: 1000
LayerCount: 2
Fore
SplineSet
709 371 m 0
 672 371 641 402 641 439 c 0
 641 476 672 506 709 506 c 0
 746 506 776 476 776 439 c 0
 776 402 746 371 709 371 c 0
610 439 m 0
 610 402 579 371 542 371 c 0
 505 371 475 402 475 439 c 0
 475 476 505 506 542 506 c 0
 579 506 610 476 610 439 c 0
323 233 m 1
 319 265 316 296 316 326 c 0
 316 433 343 530 390 606 c 1
 352 623 312 653 309 706 c 0
 309 708 309 709 309 711 c 0
 309 742 324 766 340 783 c 0
 357 801 379 815 401 825 c 0
 452 849 526 862 598 862 c 0
 678 862 757 845 801 807 c 0
 820 791 838 767 840 734 c 0
 840 732 840 730 840 728 c 0
 840 686 815 658 790 639 c 1
 816 632 847 627 887 621 c 0
 906 618 925 600 925 577 c 0
 925 571 924 565 921 558 c 0
 870 451 854 342 854 245 c 0
 854 142 872 52 888 -6 c 0
 889 -10 890 -14 890 -18 c 0
 890 -38 877 -55 857 -61 c 0
 853 -62 849 -63 845 -63 c 0
 825 -63 808 -50 802 -30 c 0
 786 27 767 114 764 217 c 1
 728 155 l 1
 773 79 l 2
 775 75 776 70 776 66 c 0
 776 52 763 41 751 41 c 2
 662 41 l 1
 618 -36 l 2
 614 -44 606 -48 597 -48 c 0
 588 -48 579 -44 575 -36 c 2
 531 41 l 1
 456 41 l 1
 457 38 457 34 458 31 c 1
 462 31 l 2
 487 31 507 11 507 -14 c 0
 507 -39 487 -59 462 -59 c 2
 246 -59 l 2
 194 -59 148 -48 117 -20 c 0
 84 9 76 49 76 86 c 0
 76 175 158 231 246 231 c 0
 254 231 261 231 269 231 c 0
 288 231 308 231 323 233 c 1
674 774 m 0
 698 774 719 754 719 729 c 0
 719 720 717 710 717 703 c 0
 717 688 720 678 726 670 c 1
 760 686 780 707 780 729 c 0
 780 773 698 803 597 803 c 0
 588 803 579 802 570 802 c 0
 458 796 369 756 369 711 c 0
 369 688 392 669 427 656 c 1
 490 729 575 774 674 774 c 0
678 591 m 1
 640 582 596 577 551 577 c 0
 528 577 504 578 482 581 c 1
 435 518 406 430 406 327 c 0
 406 298 408 269 413 238 c 0
 420 192 429 147 438 110 c 1
 465 155 l 1
 420 232 l 2
 418 236 417 241 417 245 c 0
 417 259 430 270 442 270 c 2
 531 270 l 1
 575 346 l 2
 579 354 588 359 597 359 c 0
 606 359 614 354 618 346 c 2
 663 270 l 1
 751 270 l 2
 756 270 760 268 764 266 c 1
 766 352 780 447 816 542 c 1
 763 552 713 563 678 591 c 1
639 644 m 1
 635 655 631 668 629 680 c 1
 596 673 564 659 536 637 c 1
 541 637 547 637 552 637 c 0
 583 637 613 639 639 644 c 1
597 27 m 1
 605 41 l 1
 588 41 l 1
 597 27 l 1
559 91 m 1
 634 91 l 1
 671 155 l 1
 634 220 l 1
 560 220 l 1
 522 155 l 1
 559 91 l 1
700 105 m 1
 691 91 l 1
 708 91 l 1
 700 105 l 1
708 220 m 1
 692 220 l 1
 700 205 l 1
 708 220 l 1
597 284 m 1
 588 270 l 1
 605 270 l 1
 597 284 l 1
485 220 m 1
 494 205 l 1
 502 220 l 1
 485 220 l 1
502 91 m 1
 494 105 l 1
 485 91 l 1
 502 91 l 1
376 31 m 1
 366 68 357 101 348 146 c 1
 333 143 318 143 301 142 c 1
 301 31 l 1
 376 31 l 1
221 139 m 1
 193 133 166 115 166 86 c 0
 166 61 171 51 177 46 c 0
 182 41 195 36 221 33 c 1
 221 139 l 1
EndSplineSet
Ligature2: "'liga' WORD PLUS SPACE" l i p a m a n k a space
Ligature2: "'liga' WORD" l i p a m a n k a
Substitution2: "'ss01' CART SUB" lipamankaTok_combCartExtTok
Substitution2: "'ss01' CONT SUB" lipamankaTok_combLongGlyphExtTok
Colour: cccfff
EndChar

StartChar: lepekaTok
Encoding: 134 -1 134
Width: 1000
LayerCount: 2
Fore
SplineSet
685 688 m 0
 672 688 662 700 662 713 c 0
 662 716 662 720 664 723 c 1
 615 748 559 762 500 762 c 0
 441 762 385 748 336 723 c 1
 338 720 338 716 338 713 c 0
 338 700 328 688 315 688 c 0
 307 688 299 692 293 698 c 1
 257 673 226 642 201 606 c 1
 207 600 211 592 211 584 c 0
 211 571 199 561 186 561 c 0
 183 561 179 562 176 563 c 0
 151 514 138 458 138 400 c 2
 138 0 l 2
 138 -21 121 -38 100 -38 c 0
 79 -38 62 -21 62 0 c 2
 62 400 l 2
 62 480 84 554 121 619 c 1
 92 654 69 690 54 722 c 0
 43 745 31 774 31 800 c 0
 31 818 36 835 50 849 c 0
 64 863 81 868 99 868 c 0
 125 868 154 856 177 845 c 0
 209 830 244 807 279 778 c 1
 344 816 419 838 500 838 c 0
 581 838 656 816 721 778 c 1
 756 807 791 830 823 845 c 0
 846 856 875 868 901 868 c 0
 919 868 936 863 950 849 c 0
 964 835 969 818 969 800 c 0
 969 774 957 745 946 722 c 0
 931 690 908 655 879 620 c 1
 917 555 938 480 938 400 c 2
 938 0 l 2
 938 -21 921 -38 900 -38 c 0
 879 -38 862 -21 862 0 c 2
 862 400 l 2
 862 458 849 514 824 563 c 0
 821 562 817 561 814 561 c 0
 801 561 789 571 789 584 c 0
 789 592 793 600 799 606 c 1
 774 642 743 673 707 698 c 1
 701 692 693 688 685 688 c 0
150 663 m 1
 174 695 204 725 236 749 c 1
 207 771 179 788 155 800 c 0
 134 810 117 816 104 817 c 0
 91 818 86 815 85 814 c 0
 84 813 81 808 82 795 c 0
 83 782 89 765 99 744 c 0
 111 720 127 692 150 663 c 1
901 744 m 0
 911 765 917 782 918 795 c 0
 919 808 916 813 915 814 c 0
 914 815 909 818 896 817 c 0
 883 816 866 810 845 800 c 0
 821 788 793 771 764 749 c 1
 796 725 825 695 849 663 c 1
 871 692 889 720 901 744 c 0
320 320 m 0
 334 320 345 309 345 295 c 0
 345 259 374 230 410 230 c 0
 446 230 475 259 475 295 c 0
 475 309 486 320 500 320 c 0
 514 320 525 309 525 295 c 0
 525 259 554 230 590 230 c 0
 626 230 655 259 655 295 c 0
 655 309 666 320 680 320 c 0
 694 320 705 309 705 295 c 0
 705 231 654 180 590 180 c 0
 554 180 521 197 500 223 c 1
 479 197 446 180 410 180 c 0
 346 180 295 231 295 295 c 0
 295 309 306 320 320 320 c 0
402 552 m 2
 446 475 l 1
 458 475 l 2
 472 475 483 464 483 450 c 0
 483 442 478 435 472 430 c 1
 488 402 l 2
 490 398 492 394 492 390 c 0
 492 376 479 365 467 365 c 2
 293 365 l 2
 281 365 268 376 268 390 c 0
 268 394 270 398 272 402 c 2
 288 430 l 1
 282 435 277 442 277 450 c 0
 277 464 288 475 302 475 c 2
 314 475 l 1
 358 552 l 2
 362 560 371 565 380 565 c 0
 389 565 398 560 402 552 c 2
423 415 m 1
 418 425 l 1
 342 425 l 1
 337 415 l 1
 423 415 l 1
380 490 m 1
 371 475 l 1
 389 475 l 1
 380 490 l 1
642 552 m 2
 686 475 l 1
 698 475 l 2
 712 475 723 464 723 450 c 0
 723 442 718 435 712 430 c 1
 728 402 l 2
 730 398 732 394 732 390 c 0
 732 376 719 365 707 365 c 2
 533 365 l 2
 521 365 508 376 508 390 c 0
 508 394 510 398 512 402 c 2
 528 430 l 1
 522 435 517 442 517 450 c 0
 517 464 528 475 542 475 c 2
 554 475 l 1
 598 552 l 2
 602 560 611 565 620 565 c 0
 629 565 638 560 642 552 c 2
577 415 m 1
 663 415 l 1
 658 425 l 1
 582 425 l 1
 577 415 l 1
620 490 m 1
 611 475 l 1
 629 475 l 1
 620 490 l 1
162 370 m 0
 162 556 314 708 500 708 c 0
 686 708 838 556 838 370 c 0
 838 184 686 32 500 32 c 0
 314 32 162 184 162 370 c 0
500 632 m 0
 355 632 238 515 238 370 c 0
 238 225 355 108 500 108 c 0
 645 108 762 225 762 370 c 0
 762 515 645 632 500 632 c 0
EndSplineSet
Ligature2: "'liga' WORD PLUS SPACE" l e p e k a  space
Ligature2: "'liga' WORD" l e p e k a 
Substitution2: "'ss01' CART SUB" lepekaTok_combCartExtTok
Substitution2: "'ss01' CONT SUB" lepekaTok_combLongGlyphExtTok
Colour: cccfff
EndChar

StartChar: aTok
Encoding: 144 989440 144
Width: 1000
LayerCount: 2
Fore
SplineSet
550 800 m 2
 550 450 l 2
 550 422 528 400 500 400 c 0
 472 400 450 422 450 450 c 2
 450 800 l 2
 450 828 472 850 500 850 c 0
 528 850 550 828 550 800 c 2
800 0 m 0
 800 -25 780 -50 750 -50 c 0
 732 -50 715 -41 706 -24 c 2
 670 44 l 1
 634 -12 572 -50 500 -50 c 0
 390 -50 300 40 300 150 c 0
 300 260 390 350 500 350 c 0
 581 350 650 302 682 233 c 0
 683 232 683 231 684 230 c 2
 794 24 l 2
 798 16 800 8 800 0 c 0
500 50 m 0
 555 50 600 95 600 150 c 0
 600 205 555 250 500 250 c 0
 445 250 400 205 400 150 c 0
 400 95 445 50 500 50 c 0
EndSplineSet
Ligature2: "'liga' WORD PLUS SPACE" a space
Ligature2: "'liga' WORD" a
Substitution2: "'ss01' CART SUB" aTok_combCartExtTok
Substitution2: "'ss01' CONT SUB" aTok_combLongGlyphExtTok
Colour: bf80ff
EndChar

StartChar: akesiTok
Encoding: 145 989441 145
Width: 1000
LayerCount: 2
Fore
SplineSet
750 775 m 0
 750 734 716 700 675 700 c 0
 634 700 600 734 600 775 c 0
 600 816 634 850 675 850 c 0
 716 850 750 816 750 775 c 0
400 775 m 0
 400 734 366 700 325 700 c 0
 284 700 250 734 250 775 c 0
 250 816 284 850 325 850 c 0
 366 850 400 816 400 775 c 0
600 150 m 1
 400 150 l 1
 400 95 445 50 500 50 c 0
 555 50 600 95 600 150 c 1
400 350 m 1
 400 250 l 1
 600 250 l 1
 600 350 l 1
 400 350 l 1
600 450 m 1
 600 505 555 550 500 550 c 0
 445 550 400 505 400 450 c 1
 600 450 l 1
500 650 m 0
 610 650 700 560 700 450 c 1
 781 450 l 2
 809 450 831 428 831 400 c 0
 831 372 809 350 781 350 c 2
 700 350 l 1
 700 250 l 1
 781 250 l 2
 809 250 831 228 831 200 c 0
 831 172 809 150 781 150 c 2
 700 150 l 1
 700 40 610 -50 500 -50 c 0
 390 -50 300 40 300 150 c 1
 219 150 l 2
 191 150 169 172 169 200 c 0
 169 228 191 250 219 250 c 2
 300 250 l 1
 300 350 l 1
 219 350 l 2
 191 350 169 372 169 400 c 0
 169 428 191 450 219 450 c 2
 300 450 l 1
 300 560 390 650 500 650 c 0
EndSplineSet
Ligature2: "'liga' WORD PLUS SPACE" a k e s i space
Ligature2: "'liga' WORD" a k e s i
Substitution2: "'ss01' CART SUB" akesiTok_combCartExtTok
Substitution2: "'ss01' CONT SUB" akesiTok_combLongGlyphExtTok
Colour: bf80ff
EndChar

StartChar: alaTok
Encoding: 146 989442 146
Width: 1000
LayerCount: 2
Fore
SplineSet
100 750 m 0
 100 776 124 800 150 800 c 0
 163 800 175 795 185 785 c 2
 500 471 l 1
 815 785 l 2
 825 795 837 800 850 800 c 0
 876 800 900 776 900 750 c 0
 900 737 895 725 885 715 c 2
 571 400 l 1
 885 85 l 2
 895 75 900 63 900 50 c 0
 900 24 876 0 850 0 c 0
 837 0 825 5 815 15 c 2
 500 329 l 1
 185 15 l 2
 175 5 163 0 150 0 c 0
 124 0 100 24 100 50 c 0
 100 63 105 75 115 85 c 2
 429 400 l 1
 115 715 l 2
 105 725 100 737 100 750 c 0
EndSplineSet
Ligature2: "'liga' WORD PLUS SPACE" a l a space
Ligature2: "'liga' WORD" a l a
Substitution2: "'ss01' CART SUB" alaTok_combCartExtTok
Substitution2: "'ss01' CONT SUB" alaTok_combLongGlyphExtTok
Colour: bf80ff
EndChar

StartChar: alasaTok
Encoding: 147 989443 147
Width: 1000
LayerCount: 2
Fore
SplineSet
750 200 m 0
 723 200 700 223 700 250 c 0
 700 263 705 276 715 285 c 2
 779 350 l 1
 674 350 l 1
 672 288 663 204 622 130 c 0
 559 17 436 -50 250 -50 c 0
 222 -50 200 -28 200 0 c 2
 200 350 l 1
 100 350 l 2
 72 350 50 372 50 400 c 0
 50 428 72 450 100 450 c 2
 200 450 l 1
 200 800 l 2
 200 828 222 850 250 850 c 0
 436 850 559 783 622 670 c 0
 663 596 672 512 674 450 c 1
 779 450 l 1
 715 515 l 2
 705 524 700 537 700 550 c 0
 700 577 723 600 750 600 c 0
 763 600 776 595 785 585 c 2
 935 435 l 1
 944 428 950 415 950 400 c 0
 950 385 944 372 935 365 c 1
 785 215 l 2
 776 205 763 200 750 200 c 0
574 450 m 1
 572 505 564 568 534 622 c 0
 493 696 418 738 300 748 c 1
 300 450 l 1
 574 450 l 1
300 350 m 1
 300 52 l 1
 418 62 493 104 534 178 c 0
 564 232 572 295 574 350 c 1
 300 350 l 1
EndSplineSet
Ligature2: "'liga' WORD PLUS SPACE" a l a s a space
Ligature2: "'liga' WORD" a l a s a
Substitution2: "'ss01' CART SUB" alasaTok_combCartExtTok
Substitution2: "'ss01' CONT SUB" alasaTok_combLongGlyphExtTok
Colour: bf80ff
EndChar

StartChar: aleTok
Encoding: 148 989444 148
Width: 1000
LayerCount: 2
Fore
SplineSet
103 575 m 0
 139 622 192 650 254 650 c 0
 317 650 367 622 411 582 c 0
 440 555 470 520 500 482 c 1
 530 520 560 555 589 582 c 0
 633 622 683 650 746 650 c 0
 808 650 861 622 897 575 c 0
 933 530 950 468 950 400 c 0
 950 332 933 270 897 225 c 0
 861 178 808 150 746 150 c 0
 683 150 633 178 589 218 c 0
 560 245 530 280 500 318 c 1
 470 280 440 245 411 218 c 0
 367 178 317 150 254 150 c 0
 192 150 139 178 103 225 c 0
 67 270 50 332 50 400 c 0
 50 468 67 530 103 575 c 0
437 400 m 1
 401 446 372 482 343 508 c 0
 310 538 283 550 254 550 c 0
 224 550 200 538 182 515 c 0
 163 490 150 452 150 400 c 0
 150 348 163 310 182 285 c 0
 200 262 224 250 254 250 c 0
 283 250 310 262 343 292 c 0
 372 318 401 354 437 400 c 1
563 400 m 1
 599 354 628 318 657 292 c 0
 690 262 717 250 746 250 c 0
 776 250 800 262 818 285 c 0
 837 310 850 348 850 400 c 0
 850 452 837 490 818 515 c 0
 800 538 776 550 746 550 c 0
 717 550 690 538 657 508 c 0
 628 482 599 446 563 400 c 1
EndSplineSet
Ligature2: "'liga' WORD PLUS SPACE" a l e space
Ligature2: "'liga' WORD" a l e
Substitution2: "'ss01' CART SUB" aleTok_combCartExtTok
Substitution2: "'ss01' CONT SUB" aleTok_combLongGlyphExtTok
Colour: bf80ff
EndChar

StartChar: anpaTok
Encoding: 149 989445 149
Width: 1000
LayerCount: 2
Fore
SplineSet
575 175 m 0
 575 134 541 100 500 100 c 0
 459 100 425 134 425 175 c 0
 425 216 459 250 500 250 c 0
 541 250 575 216 575 175 c 0
200 700 m 0
 228 700 250 678 250 650 c 2
 250 400 l 1
 750 400 l 5
 750 650 l 6
 750 678 772 700 800 700 c 4
 828 700 850 678 850 650 c 6
 850 350 l 6
 850 322 828 300 800 300 c 6
 200 300 l 2
 172 300 150 322 150 350 c 2
 150 650 l 2
 150 678 172 700 200 700 c 0
EndSplineSet
Ligature2: "'liga' WORD PLUS SPACE" a n p a space
Ligature2: "'liga' WORD" a n p a
Substitution2: "'ss01' CART SUB" anpaTok_combCartExtTok
Substitution2: "'ss01' CONT SUB" anpaTok_combLongGlyphExtTok
Colour: bf80ff
EndChar

StartChar: anteTok
Encoding: 150 989446 150
Width: 1000
LayerCount: 2
Fore
SplineSet
150 0 m 0
 124 0 100 22 100 50 c 0
 100 65 107 80 120 90 c 2
 470 352 l 2
 479 359 489 362 500 362 c 0
 511 362 521 359 530 352 c 2
 880 90 l 2
 893 80 900 65 900 50 c 0
 900 22 876 0 850 0 c 0
 840 0 829 3 820 10 c 2
 500 250 l 1
 180 10 l 2
 171 3 160 0 150 0 c 0
850 800 m 0
 876 800 900 778 900 750 c 0
 900 735 893 720 880 710 c 2
 530 448 l 2
 521 441 511 438 500 438 c 0
 489 438 479 441 470 448 c 2
 120 710 l 2
 107 720 100 735 100 750 c 0
 100 778 124 800 150 800 c 0
 160 800 171 797 180 790 c 2
 500 550 l 1
 820 790 l 2
 829 797 840 800 850 800 c 0
EndSplineSet
Ligature2: "'liga' WORD PLUS SPACE" a n t e space
Ligature2: "'liga' WORD" a n t e
Substitution2: "'ss01' CART SUB" anteTok_combCartExtTok
Substitution2: "'ss01' CONT SUB" anteTok_combLongGlyphExtTok
Colour: bf80ff
EndChar

StartChar: anuTok
Encoding: 151 989447 151
Width: 1000
LayerCount: 2
Fore
SplineSet
100 750 m 0
 100 778 124 800 150 800 c 0
 162 800 173 795 183 787 c 2
 500 508 l 1
 817 787 l 2
 827 795 838 800 850 800 c 0
 876 800 900 778 900 750 c 0
 900 736 894 723 883 713 c 2
 550 418 l 1
 550 50 l 2
 550 22 528 0 500 0 c 0
 472 0 450 22 450 50 c 2
 450 418 l 1
 117 713 l 2
 106 723 100 736 100 750 c 0
EndSplineSet
Ligature2: "'liga' WORD PLUS SPACE" a n u space
Ligature2: "'liga' WORD" a n u
Substitution2: "'ss01' CART SUB" anuTok_combCartExtTok
Substitution2: "'ss01' CONT SUB" anuTok_combLongGlyphExtTok
Colour: bf80ff
EndChar

StartChar: awenTok
Encoding: 152 989448 152
Width: 1000
LayerCount: 2
Fore
SplineSet
547 767 m 2
 785 100 l 1
 900 100 l 2
 928 100 950 78 950 50 c 0
 950 22 928 0 900 0 c 2
 750 0 l 2
 729 0 710 13 703 33 c 2
 500 601 l 1
 297 33 l 2
 290 13 271 0 250 0 c 2
 100 0 l 2
 72 0 50 22 50 50 c 0
 50 78 72 100 100 100 c 2
 215 100 l 1
 453 767 l 2
 460 787 479 800 500 800 c 0
 521 800 540 787 547 767 c 2
EndSplineSet
Ligature2: "'liga' WORD PLUS SPACE" a w e n space
Ligature2: "'liga' WORD" a w e n
Substitution2: "'ss01' CART SUB" awenTok_combCartExtTok
Substitution2: "'ss01' CONT SUB" awenTok_combLongGlyphExtTok
Colour: bf80ff
EndChar

StartChar: eTok
Encoding: 153 989449 153
Width: 1000
LayerCount: 2
Fore
SplineSet
50 800 m 0
 50 826 74 850 100 850 c 0
 113 850 125 845 135 835 c 2
 535 435 l 2
 545 425 550 413 550 400 c 0
 550 387 545 375 535 365 c 2
 135 -35 l 2
 125 -45 113 -50 100 -50 c 0
 74 -50 50 -26 50 0 c 0
 50 13 55 25 65 35 c 2
 429 400 l 1
 65 765 l 2
 55 775 50 787 50 800 c 0
450 800 m 0
 450 826 474 850 500 850 c 0
 513 850 525 845 535 835 c 2
 935 435 l 2
 945 425 950 413 950 400 c 0
 950 387 945 375 935 365 c 2
 535 -35 l 2
 525 -45 513 -50 500 -50 c 0
 474 -50 450 -26 450 0 c 0
 450 13 455 25 465 35 c 2
 829 400 l 1
 465 765 l 2
 455 775 450 787 450 800 c 0
EndSplineSet
Ligature2: "'liga' WORD PLUS SPACE" e space
Ligature2: "'liga' WORD" e
Substitution2: "'ss01' CART SUB" eTok_combCartExtTok
Substitution2: "'ss01' CONT SUB" eTok_combLongGlyphExtTok
Colour: bf80ff
EndChar

StartChar: enTok
Encoding: 154 989450 154
Width: 1000
LayerCount: 2
Fore
SplineSet
550 750 m 2
 550 450 l 1
 850 450 l 2
 878 450 900 428 900 400 c 0
 900 372 878 350 850 350 c 2
 550 350 l 1
 550 50 l 2
 550 22 528 0 500 0 c 0
 472 0 450 22 450 50 c 2
 450 350 l 1
 150 350 l 2
 122 350 100 372 100 400 c 0
 100 428 122 450 150 450 c 2
 450 450 l 1
 450 750 l 2
 450 778 472 800 500 800 c 0
 528 800 550 778 550 750 c 2
EndSplineSet
Ligature2: "'liga' WORD PLUS SPACE" e n space
Ligature2: "'liga' WORD" e n
Substitution2: "'ss01' CART SUB" enTok_combCartExtTok
Substitution2: "'ss01' CONT SUB" enTok_combLongGlyphExtTok
Colour: bf80ff
EndChar

StartChar: esunTok
Encoding: 155 989451 155
Width: 1000
LayerCount: 2
Fore
SplineSet
600 542 m 1
 625 540 651 539 678 539 c 0
 759 539 800 559 820 580 c 0
 841 600 850 630 850 667 c 0
 850 703 841 722 831 731 c 0
 822 741 803 750 767 750 c 0
 731 750 705 741 686 726 c 0
 666 712 649 688 636 651 c 0
 628 627 615 589 600 542 c 1
399 256 m 1
 364 259 327 261 287 261 c 0
 227 261 195 243 178 223 c 0
 159 202 150 170 150 133 c 0
 150 97 159 78 169 69 c 0
 178 59 197 50 233 50 c 0
 270 50 296 58 314 72 c 0
 333 86 350 109 364 149 c 0
 372 173 384 211 399 256 c 1
948 13 m 0
 949 9 950 4 950 0 c 0
 950 -25 930 -50 900 -50 c 0
 856 -50 853 -7 835 25 c 0
 822 50 798 84 760 118 c 0
 708 165 627 214 500 241 c 1
 482 189 468 145 459 118 c 0
 441 64 414 21 374 -9 c 0
 333 -38 285 -50 233 -50 c 0
 181 -50 133 -37 98 -2 c 0
 63 33 50 81 50 133 c 0
 50 185 63 243 102 288 c 0
 143 335 205 361 287 361 c 0
 339 361 387 358 432 353 c 1
 444 389 456 427 468 463 c 1
 345 494 254 550 189 607 c 0
 141 649 108 691 86 724 c 0
 74 742 60 765 54 780 c 0
 51 787 50 793 50 800 c 0
 50 825 70 850 100 850 c 0
 121 850 137 837 147 818 c 0
 153 805 158 796 169 779 c 0
 187 753 215 718 255 682 c 0
 310 634 389 585 500 559 c 1
 518 612 533 657 542 683 c 0
 574 778 647 850 767 850 c 0
 819 850 867 837 902 802 c 0
 937 767 950 719 950 667 c 0
 950 615 937 555 891 509 c 0
 845 463 774 439 678 439 c 0
 639 439 602 441 568 445 c 1
 556 410 543 372 531 336 c 1
 668 306 762 250 827 193 c 0
 875 150 905 106 923 72 c 0
 934 51 943 31 948 13 c 0
EndSplineSet
Ligature2: "'liga' WORD PLUS SPACE" e s u n space
Ligature2: "'liga' WORD" e s u n
Substitution2: "'ss01' CART SUB" esunTok_combCartExtTok
Substitution2: "'ss01' CONT SUB" esunTok_combLongGlyphExtTok
Colour: bf80ff
EndChar

StartChar: ijoTok
Encoding: 156 989452 156
Width: 1000
LayerCount: 2
Fore
SplineSet
500 -50 m 0
 251 -50 50 151 50 400 c 0
 50 649 251 850 500 850 c 0
 749 850 950 649 950 400 c 0
 950 151 749 -50 500 -50 c 0
500 50 m 0
 693 50 850 207 850 400 c 0
 850 593 693 750 500 750 c 0
 307 750 150 593 150 400 c 0
 150 207 307 50 500 50 c 0
EndSplineSet
Ligature2: "'liga' WORD PLUS SPACE" i j o space
Ligature2: "'liga' WORD" i j o
Substitution2: "'ss01' CART SUB" ijoTok_combCartExtTok
Substitution2: "'ss01' CONT SUB" ijoTok_combLongGlyphExtTok
Colour: bf80ff
EndChar

StartChar: ikeTok
Encoding: 157 989453 157
Width: 1000
LayerCount: 2
Fore
SplineSet
950 250 m 0
 950 225 930 200 900 200 c 0
 878 200 858 215 852 237 c 0
 812 387 670 500 500 500 c 0
 330 500 188 387 148 237 c 0
 142 215 122 200 100 200 c 0
 70 200 50 225 50 250 c 0
 50 254 51 259 52 263 c 0
 104 458 285 600 500 600 c 0
 715 600 896 458 948 263 c 0
 949 259 950 254 950 250 c 0
EndSplineSet
Ligature2: "'liga' WORD PLUS SPACE" i k e space
Ligature2: "'liga' WORD" i k e
Substitution2: "'ss01' CART SUB" ikeTok_combCartExtTok
Substitution2: "'ss01' CONT SUB" ikeTok_combLongGlyphExtTok
Colour: bf80ff
EndChar

StartChar: iloTok
Encoding: 158 989454 158
Width: 1000
LayerCount: 2
Fore
SplineSet
50 800 m 2
 50 828 72 850 100 850 c 2
 900 850 l 2
 928 850 950 828 950 800 c 2
 950 400 l 2
 950 372 928 350 900 350 c 2
 550 350 l 1
 550 0 l 2
 550 -28 528 -50 500 -50 c 0
 472 -50 450 -28 450 0 c 2
 450 350 l 1
 100 350 l 2
 72 350 50 372 50 400 c 2
 50 800 l 2
550 450 m 1
 850 450 l 1
 850 750 l 1
 550 750 l 1
 550 450 l 1
450 750 m 1
 150 750 l 1
 150 450 l 1
 450 450 l 1
 450 750 l 1
EndSplineSet
Ligature2: "'liga' WORD PLUS SPACE" i l o space
Ligature2: "'liga' WORD" i l o
Substitution2: "'ss01' CART SUB" iloTok_combCartExtTok
Substitution2: "'ss01' CONT SUB" iloTok_combLongGlyphExtTok
Colour: bf80ff
EndChar

StartChar: insaTok
Encoding: 159 989455 159
Width: 1000
LayerCount: 2
Fore
SplineSet
575 475 m 0
 575 434 541 400 500 400 c 0
 459 400 425 434 425 475 c 0
 425 516 459 550 500 550 c 0
 541 550 575 516 575 475 c 0
200 600 m 0
 228 600 250 578 250 550 c 2
 250 300 l 1
 750 300 l 1
 750 550 l 2
 750 578 772 600 800 600 c 0
 828 600 850 578 850 550 c 2
 850 250 l 2
 850 222 828 200 800 200 c 2
 200 200 l 2
 172 200 150 222 150 250 c 2
 150 550 l 2
 150 578 172 600 200 600 c 0
EndSplineSet
Ligature2: "'liga' WORD PLUS SPACE" i n s a space
Ligature2: "'liga' WORD" i n s a
Substitution2: "'ss01' CART SUB" insaTok_combCartExtTok
Substitution2: "'ss01' CONT SUB" insaTok_combLongGlyphExtTok
Colour: bf80ff
EndChar

StartChar: jakiTok
Encoding: 160 989456 160
Width: 1000
LayerCount: 2
Fore
SplineSet
505 90 m 1
 470 101 434 119 397 145 c 0
 370 164 344 182 322 198 c 1
 274 181 206 154 177 130 c 0
 161 117 158 108 158 101 c 0
 166 81 194 63 220 50 c 0
 265 26 317 12 349 12 c 0
 435 12 481 38 505 90 c 1
591 308 m 1
 612 269 622 237 622 178 c 0
 622 176 622 173 622 171 c 0
 633 170 643 170 655 170 c 1
 719 240 764 313 803 407 c 1
 729 372 662 341 591 308 c 1
500 266 m 1
 479 257 458 247 437 239 c 1
 463 221 494 200 521 190 c 1
 520 219 520 224 508 250 c 0
 506 255 503 260 500 266 c 1
310 338 m 1
 317 330 330 318 340 310 c 1
 376 323 411 336 445 351 c 1
 436 363 428 375 418 388 c 1
 381 374 333 356 310 338 c 1
339 646 m 1
 371 608 411 559 452 507 c 1
 490 520 534 536 581 552 c 0
 680 586 747 620 788 649 c 0
 809 664 821 676 828 685 c 0
 832 691 834 694 834 696 c 0
 832 699 826 707 801 716 c 0
 767 729 714 737 641 737 c 0
 566 737 449 713 339 646 c 1
349 887 m 0
 374 887 399 866 399 837 c 0
 399 820 390 803 374 794 c 0
 328 767 308 753 284 729 c 1
 412 808 548 837 641 837 c 0
 720 837 786 827 836 809 c 0
 882 792 932 759 934 700 c 0
 934 699 934 698 934 697 c 0
 934 671 924 646 909 626 c 0
 894 605 872 585 846 567 c 0
 794 530 716 494 613 458 c 0
 577 446 545 434 516 424 c 1
 523 414 530 404 537 394 c 1
 651 447 746 490 871 550 c 0
 878 554 885 555 892 555 c 0
 919 555 942 531 942 504 c 0
 942 499 942 494 940 489 c 0
 882 317 824 202 713 86 c 1
 698 70 l 1
 677 70 l 2
 652 70 629 71 606 72 c 1
 573 -26 485 -88 349 -88 c 0
 262 -88 150 -38 98 15 c 0
 78 35 58 65 58 101 c 0
 58 148 83 182 113 207 c 0
 146 234 191 255 235 272 c 1
 221 289 206 313 206 341 c 0
 206 383 239 411 265 428 c 0
 288 442 322 458 354 471 c 1
 308 528 266 575 226 625 c 0
 207 649 179 682 179 723 c 0
 179 769 206 796 234 819 c 0
 256 838 286 858 324 880 c 0
 332 885 340 887 349 887 c 0
EndSplineSet
Ligature2: "'liga' WORD PLUS SPACE" j a k i space
Ligature2: "'liga' WORD" j a k i
Substitution2: "'ss01' CART SUB" jakiTok_combCartExtTok
Substitution2: "'ss01' CONT SUB" jakiTok_combLongGlyphExtTok
Colour: bf80ff
EndChar

StartChar: janTok
Encoding: 161 989457 161
Width: 1000
LayerCount: 2
Fore
SplineSet
101 -50 m 0
 74 -50 51 -28 51 0 c 0
 51 14 57 28 68 38 c 2
 218 166 l 1
 145 239 100 339 100 450 c 0
 100 671 279 850 500 850 c 0
 721 850 900 671 900 450 c 0
 900 339 855 239 782 166 c 1
 932 38 l 2
 944 28 950 14 950 0 c 0
 950 -27 926 -50 900 -50 c 0
 889 -50 877 -46 868 -38 c 2
 701 104 l 1
 642 70 573 50 500 50 c 0
 427 50 358 70 299 104 c 1
 134 -38 l 2
 124 -46 113 -50 101 -50 c 0
200 450 m 0
 200 284 334 150 500 150 c 0
 666 150 800 284 800 450 c 0
 800 616 666 750 500 750 c 0
 334 750 200 616 200 450 c 0
EndSplineSet
Ligature2: "'liga' WORD PLUS SPACE" j a n space
Ligature2: "'liga' WORD" j a n
Substitution2: "'ss01' CART SUB" janTok_combCartExtTok
Substitution2: "'ss01' CONT SUB" janTok_combLongGlyphExtTok
Colour: bf80ff
EndChar

StartChar: jeloTok
Encoding: 162 989458 162
Width: 1000
LayerCount: 2
Fore
SplineSet
550 827 m 2
 550 774 l 1
 611 757 659 708 676 647 c 1
 730 647 l 2
 758 647 780 625 780 597 c 0
 780 569 758 547 730 547 c 2
 676 547 l 1
 659 486 611 437 550 420 c 1
 550 375 l 1
 776 6 l 2
 781 -3 784 -12 784 -20 c 0
 784 -48 759 -70 734 -70 c 2
 266 -70 l 2
 241 -70 216 -48 216 -20 c 0
 216 -12 219 -3 224 6 c 2
 450 375 l 1
 450 420 l 1
 389 437 341 486 324 547 c 1
 270 547 l 2
 242 547 220 569 220 597 c 0
 220 625 242 647 270 647 c 2
 324 647 l 1
 341 708 389 757 450 774 c 1
 450 827 l 2
 450 855 472 877 500 877 c 0
 528 877 550 855 550 827 c 2
583 597 m 0
 583 644 546 681 500 681 c 0
 454 681 417 644 417 597 c 0
 417 550 454 513 500 513 c 0
 546 513 583 550 583 597 c 0
644 30 m 1
 500 265 l 1
 356 30 l 1
 644 30 l 1
EndSplineSet
Ligature2: "'liga' WORD PLUS SPACE" j e l o space
Ligature2: "'liga' WORD" j e l o
Substitution2: "'ss01' CART SUB" jeloTok_combCartExtTok
Substitution2: "'ss01' CONT SUB" jeloTok_combLongGlyphExtTok
Colour: bf80ff
EndChar

StartChar: joTok
Encoding: 163 989459 163
Width: 1000
LayerCount: 2
Fore
SplineSet
700 650 m 0
 700 540 610 450 500 450 c 0
 449 450 403 469 368 500 c 1
 315 455 280 383 280 300 c 0
 280 157 383 50 500 50 c 0
 603 50 695 133 716 250 c 1
 545 250 l 2
 517 250 495 272 495 300 c 0
 495 328 517 350 545 350 c 2
 770 350 l 2
 798 350 820 328 820 300 c 0
 820 112 682 -50 500 -50 c 0
 318 -50 180 112 180 300 c 0
 180 415 230 519 311 583 c 1
 304 604 300 627 300 650 c 0
 300 760 390 850 500 850 c 0
 610 850 700 760 700 650 c 0
600 650 m 0
 600 705 555 750 500 750 c 0
 445 750 400 705 400 650 c 0
 400 595 445 550 500 550 c 0
 555 550 600 595 600 650 c 0
EndSplineSet
Ligature2: "'liga' WORD PLUS SPACE" j o space
Ligature2: "'liga' WORD" j o
Substitution2: "'ss01' CART SUB" joTok_combCartExtTok
Substitution2: "'ss01' CONT SUB" joTok_combLongGlyphExtTok
Colour: bf80ff
EndChar

StartChar: kalaTok
Encoding: 164 989460 164
Width: 1000
LayerCount: 2
Fore
SplineSet
324 400 m 1
 414 315 514 250 634 250 c 0
 704 250 758 265 793 289 c 0
 829 314 850 350 850 400 c 0
 850 450 829 486 793 511 c 0
 758 535 704 550 634 550 c 0
 513 550 414 485 324 400 c 1
255 473 m 1
 352 566 477 650 634 650 c 0
 718 650 793 633 850 594 c 0
 914 551 950 483 950 400 c 0
 950 317 914 249 850 206 c 0
 793 167 718 150 634 150 c 0
 477 150 353 235 255 328 c 1
 207 273 175 230 143 175 c 0
 134 159 117 150 100 150 c 0
 71 150 51 175 51 199 c 0
 51 210 54 220 60 230 c 0
 96 290 132 338 186 400 c 1
 130 464 94 511 57 575 c 0
 52 583 50 591 50 600 c 0
 50 625 70 650 99 650 c 0
 118 650 135 639 145 622 c 0
 177 570 209 527 255 473 c 1
EndSplineSet
Ligature2: "'liga' WORD PLUS SPACE" k a l a space
Ligature2: "'liga' WORD" k a l a
Substitution2: "'ss01' CART SUB" kalaTok_combCartExtTok
Substitution2: "'ss01' CONT SUB" kalaTok_combLongGlyphExtTok
Colour: bf80ff
EndChar

StartChar: kalamaTok
Encoding: 165 989461 165
Width: 1000
LayerCount: 2
Fore
SplineSet
614.64453125 439.64453125 m 0
 595.118164062 459.170898438 595.118164062 490.829101562 614.64453125 510.35546875 c 2
 744.64453125 640.35546875 l 2
 764.170898438 659.881835938 795.829101562 659.881835938 815.35546875 640.35546875 c 0
 834.881835938 620.829101562 834.881835938 589.170898438 815.35546875 569.64453125 c 2
 685.35546875 439.64453125 l 2
 665.829101562 420.118164062 634.170898438 420.118164062 614.64453125 439.64453125 c 0
184.64453125 640.35546875 m 0
 204.170898438 659.881835938 235.829101562 659.881835938 255.35546875 640.35546875 c 2
 385.35546875 510.35546875 l 2
 404.881835938 490.829101562 404.881835938 459.170898438 385.35546875 439.64453125 c 0
 365.829101562 420.118164062 334.170898438 420.118164062 314.64453125 439.64453125 c 2
 184.64453125 569.64453125 l 2
 165.118164062 589.170898438 165.118164062 620.829101562 184.64453125 640.35546875 c 0
499.923828125 771 m 0
 527.538085938 771 549.923828125 748.614257812 549.923828125 721 c 2
 549.923828125 537.15234375 l 2
 549.923828125 509.538085938 527.538085938 487.15234375 499.923828125 487.15234375 c 0
 472.309570312 487.15234375 449.923828125 509.538085938 449.923828125 537.15234375 c 2
 449.923828125 721 l 2
 449.923828125 748.614257812 472.309570312 771 499.923828125 771 c 0
150 325 m 0
 150 352.614257812 172.385742188 375 200 375 c 2
 800 375 l 2
 827.614257812 375 850 352.614257812 850 325 c 0
 850 131.700195312 693.299804688 -25 500 -25 c 0
 306.700195312 -25 150 131.700195312 150 325 c 0
255.000976562 275 m 1
 278.1640625 160.887695312 379.051757812 75 500 75 c 0
 620.948242188 75 721.8359375 160.887695312 744.999023438 275 c 1
 255.000976562 275 l 1
EndSplineSet
Ligature2: "'liga' WORD PLUS SPACE" k a l a m a space
Ligature2: "'liga' WORD" k a l a m a
Substitution2: "'ss01' CART SUB" kalamaTok_combCartExtTok
Substitution2: "'ss01' CONT SUB" kalamaTok_combLongGlyphExtTok
Colour: bf80ff
EndChar

StartChar: kamaTok
Encoding: 166 989462 166
Width: 1000
LayerCount: 2
Fore
SplineSet
75 138 m 0
 75 166 99 188 125 188 c 0
 136 188 148 184 157 176 c 0
 211 131 268 107 340 101 c 1
 578 767 l 2
 585 787 604 800 625 800 c 0
 645 800 663 788 671 769 c 2
 921 156 l 2
 923 150 925 144 925 138 c 0
 925 114 908 99 894 86 c 0
 882 76 865 63 842 50 c 0
 795 24 724 0 625 0 c 0
 597 0 575 22 575 50 c 0
 575 78 597 100 625 100 c 0
 722 100 773 123 815 151 c 1
 628 610 l 1
 422 33 l 2
 415 13 396 0 375 0 c 0
 264 0 175 31 93 99 c 0
 81 109 75 124 75 138 c 0
EndSplineSet
Ligature2: "'liga' WORD PLUS SPACE" k a m a space
Ligature2: "'liga' WORD" k a m a
Substitution2: "'ss01' CART SUB" kamaTok_combCartExtTok
Substitution2: "'ss01' CONT SUB" kamaTok_combLongGlyphExtTok
Colour: bf80ff
EndChar

StartChar: kasiTok
Encoding: 167 989463 167
Width: 1000
LayerCount: 2
Fore
SplineSet
545 525 m 0
 553 520 583 515 603 515 c 0
 640 515 686 522 730 535 c 0
 774 547 802 566 820 589 c 0
 838 613 850 647 850 700 c 0
 850 717 850 727 849 734 c 1
 832 737 817 737 798 737 c 0
 783 737 766 737 744 737 c 0
 700 737 671 728 644 703 c 0
 614 675 582 625 547 532 c 0
 545 529 545 527 545 525 c 0
372 459 m 0
 401 459 423 464 449 478 c 1
 441 590 387 627 310 669 c 0
 281 686 230 705 155 709 c 1
 151 685 150 655 150 614 c 0
 150 579 160 553 177 533 c 0
 195 512 222 493 262 481 c 0
 306 466 341 459 372 459 c 0
50 614 m 2
 50 624 l 2
 50 676 51 730 73 780 c 0
 81 799 99 810 119 810 c 0
 230 810 309 784 359 757 c 0
 398 735 452 704 490 654 c 1
 516 707 544 747 576 777 c 0
 626 823 682 837 744 837 c 2
 745 837 l 2
 783 837 814 837 837 836 c 0
 859 834 884 831 905 820 c 0
 948 796 950 758 950 700 c 0
 950 632 935 574 900 528 c 0
 865 483 815 455 757 438 c 0
 709 425 653 415 603 415 c 0
 584 415 566 417 550 419 c 1
 550 1 l 2
 550 -27 528 -49 500 -49 c 0
 472 -49 450 -27 450 1 c 2
 450 371 l 1
 425 363 401 359 372 359 c 0
 326 359 280 370 231 385 c 0
 134 417 50 491 50 614 c 2
EndSplineSet
Ligature2: "'liga' WORD PLUS SPACE" k a s i space
Ligature2: "'liga' WORD" k a s i
Substitution2: "'ss01' CART SUB" kasiTok_combCartExtTok
Substitution2: "'ss01' CONT SUB" kasiTok_combLongGlyphExtTok
Colour: bf80ff
EndChar

StartChar: kenTok
Encoding: 168 989464 168
Width: 1000
LayerCount: 2
Fore
SplineSet
800 7 m 2
 800 0 l 2
 800 -28 778 -50 750 -50 c 0
 722 -50 700 -28 700 0 c 2
 700 2 l 2
 700 18 698 31 693 52 c 0
 686 86 672 130 645 174 c 0
 596 252 500 336 300 349 c 1
 300 0 l 2
 300 -28 278 -50 250 -50 c 0
 222 -50 200 -28 200 0 c 2
 200 800 l 2
 200 828 222 850 250 850 c 0
 278 850 300 828 300 800 c 2
 300 451 l 1
 500 464 596 548 645 627 c 0
 672 670 686 714 693 748 c 0
 698 769 700 782 700 798 c 2
 700 800 l 2
 700 828 722 850 750 850 c 0
 778 850 800 828 800 800 c 2
 800 793 l 2
 800 790 799 785 799 778 c 0
 798 766 795 748 791 727 c 0
 759 580 671 463 524 400 c 1
 672 337 759 220 791 73 c 0
 795 52 798 34 799 22 c 0
 799 15 800 10 800 7 c 2
EndSplineSet
Ligature2: "'liga' WORD PLUS SPACE" k e n space
Ligature2: "'liga' WORD" k e n
Substitution2: "'ss01' CART SUB" kenTok_combCartExtTok
Substitution2: "'ss01' CONT SUB" kenTok_combLongGlyphExtTok
Colour: bf80ff
EndChar

StartChar: kepekenTok
Encoding: 169 989465 169
Width: 1000
LayerCount: 2
Fore
SplineSet
250 850 m 2
 750 850 l 2
 778 850 800 828 800 800 c 2
 800 500 l 2
 800 472 778 450 750 450 c 2
 550 450 l 1
 550 395 l 1
 686 368 777 233 777 90 c 2
 777 0 l 2
 777 -28 755 -50 727 -50 c 0
 699 -50 677 -28 677 0 c 2
 677 90 l 2
 677 210 594 300 500 300 c 0
 406 300 323 210 323 90 c 2
 323 0 l 2
 323 -30 297 -49 271 -49 c 0
 256 -49 241 -43 231 -28 c 2
 116 142 l 2
 110 151 107 160 107 170 c 0
 107 186 115 201 129 211 c 0
 138 217 147 220 157 220 c 0
 173 220 188 212 198 198 c 2
 229 154 l 1
 251 272 334 372 450 395 c 1
 450 450 l 1
 250 450 l 2
 222 450 200 472 200 500 c 2
 200 800 l 2
 200 828 222 850 250 850 c 2
550 550 m 1
 700 550 l 1
 700 750 l 1
 550 750 l 1
 550 550 l 1
450 750 m 1
 300 750 l 1
 300 550 l 1
 450 550 l 1
 450 750 l 1
EndSplineSet
Ligature2: "'liga' WORD PLUS SPACE" k e p e k e n space
Ligature2: "'liga' WORD" k e p e k e n
Substitution2: "'ss01' CART SUB" kepekenTok_combCartExtTok
Substitution2: "'ss01' CONT SUB" kepekenTok_combLongGlyphExtTok
Colour: bf80ff
EndChar

StartChar: kiliTok
Encoding: 170 989466 170
Width: 1000
LayerCount: 2
Fore
SplineSet
850 398 m 0
 850 512 829 563 813 584 c 0
 802 599 788 606 759 606 c 0
 709 606 627 576 576 561 c 0
 557 555 528 548 500 548 c 0
 471 548 442 556 423 562 c 0
 372 578 288 610 238 610 c 0
 211 610 198 603 187 588 c 0
 171 566 150 515 150 398 c 0
 150 203 305 48 500 48 c 0
 695 48 850 203 850 398 c 0
430 800 m 0
 430 825 450 850 480 850 c 0
 525 850 534 800 544 759 c 0
 551 731 559 693 560 660 c 1
 619 678 690 706 759 706 c 0
 860 706 950 646 950 398 c 0
 950 148 750 -52 500 -52 c 0
 250 -52 50 148 50 398 c 0
 50 648 137 710 237 710 c 0
 315 710 394 674 460 655 c 1
 459 693 444 751 433 784 c 0
 431 789 430 795 430 800 c 0
EndSplineSet
Ligature2: "'liga' WORD PLUS SPACE" k i l i space
Ligature2: "'liga' WORD" k i l i
Substitution2: "'ss01' CART SUB" kiliTok_combCartExtTok
Substitution2: "'ss01' CONT SUB" kiliTok_combLongGlyphExtTok
Colour: bf80ff
EndChar

StartChar: kiwenTok
Encoding: 171 989467 171
Width: 1000
LayerCount: 2
Fore
SplineSet
460 -10 m 2
 60 520 l 2
 53 529 50 539 50 550 c 0
 50 560 52 570 58 578 c 2
 211 808 l 2
 220 822 236 830 253 830 c 2
 747 830 l 2
 764 830 780 822 789 808 c 2
 942 578 l 2
 948 570 950 560 950 550 c 0
 950 539 947 529 940 520 c 2
 540 -10 l 2
 531 -23 516 -30 500 -30 c 0
 484 -30 469 -23 460 -10 c 2
839 552 m 1
 720 730 l 1
 280 730 l 1
 161 552 l 1
 500 103 l 1
 839 552 l 1
EndSplineSet
Ligature2: "'liga' WORD PLUS SPACE" k i w e n space
Ligature2: "'liga' WORD" k i w e n
Substitution2: "'ss01' CART SUB" kiwenTok_combCartExtTok
Substitution2: "'ss01' CONT SUB" kiwenTok_combLongGlyphExtTok
Colour: bf80ff
EndChar

StartChar: koTok
Encoding: 172 989468 172
Width: 1000
LayerCount: 2
Fore
SplineSet
718 29 m 0
 690 29 661 32 631 37 c 0
 567 47 521 82 490 104 c 0
 477 114 469 120 458 125 c 1
 448 116 440 107 427 93 c 0
 404 69 376 38 341 13 c 0
 313 -7 280 -24 239 -24 c 0
 214 -24 187 -17 164 -2 c 0
 119 27 88 64 71 104 c 0
 58 135 51 168 51 201 c 0
 51 235 57 268 68 300 c 0
 81 337 105 376 117 412 c 0
 122 427 124 440 124 450 c 0
 124 461 121 470 115 479 c 0
 87 519 67 577 67 640 c 0
 67 724 106 788 191 788 c 0
 254 788 302 750 337 724 c 0
 355 711 368 698 385 693 c 0
 392 695 399 699 409 705 c 0
 459 736 495 779 561 805 c 0
 593 818 627 825 662 825 c 0
 738 825 800 784 800 706 c 2
 800 699 l 1
 799 669 794 643 791 623 c 0
 788 603 785 588 785 578 c 0
 785 566 787 560 793 550 c 1
 793 550 794 548 801 544 c 0
 809 540 824 535 841 530 c 0
 891 515 950 492 950 426 c 0
 950 348 885 313 853 294 c 0
 834 283 820 274 812 266 c 0
 808 261 809 260 812 251 c 0
 819 231 834 212 842 189 c 0
 849 170 853 151 853 133 c 0
 853 60 790 29 718 29 c 0
151 199 m 0
 151 181 154 162 162 144 c 0
 172 122 188 101 218 82 c 0
 227 76 233 76 239 76 c 0
 249 76 264 81 283 94 c 0
 318 119 353 163 385 194 c 0
 401 209 425 227 455 227 c 0
 475 227 491 221 504 214 c 0
 551 190 591 145 647 136 c 0
 674 132 699 129 718 129 c 0
 734 129 745 130 753 133 c 1
 753 146 747 160 738 175 c 0
 726 196 709 226 709 262 c 0
 709 326 765 358 802 380 c 0
 837 401 848 410 850 421 c 1
 839 427 828 430 813 434 c 0
 772 446 730 460 707 498 c 0
 691 524 685 553 685 578 c 0
 685 625 700 659 700 706 c 0
 700 724 682 725 662 725 c 0
 643 725 619 720 598 712 c 0
 532 686 484 614 405 596 c 0
 398 594 392 593 385 593 c 0
 363 593 343 601 328 609 c 0
 292 628 258 662 224 679 c 0
 211 685 200 688 191 688 c 0
 188 688 184 688 180 687 c 0
 169 684 167 657 167 640 c 0
 167 603 181 560 197 537 c 0
 216 510 224 480 224 450 c 0
 224 347 151 299 151 199 c 0
EndSplineSet
Ligature2: "'liga' WORD PLUS SPACE" k o space
Ligature2: "'liga' WORD" k o
Substitution2: "'ss01' CART SUB" koTok_combCartExtTok
Substitution2: "'ss01' CONT SUB" koTok_combLongGlyphExtTok
Colour: bf80ff
EndChar

StartChar: konTok
Encoding: 173 989469 173
Width: 1000
LayerCount: 2
Fore
SplineSet
776 850 m 0
 801 850 826 830 826 800 c 0
 826 778 811 757 788 751 c 0
 750 741 724 734 703 719 c 0
 685 706 667 685 656 642 c 0
 652 627 650 614 650 601 c 0
 650 545 689 494 744 425 c 0
 794 362 850 292 850 198 c 0
 850 107 805 36 755 1 c 0
 718 -25 675 -37 638 -48 c 0
 633 -49 629 -50 624 -50 c 0
 599 -50 574 -30 574 0 c 0
 574 22 588 42 610 48 c 0
 650 59 677 68 698 83 c 0
 716 96 733 116 744 158 c 0
 748 172 750 185 750 198 c 0
 750 255 710 307 656 375 c 0
 605 439 550 508 550 601 c 0
 550 692 595 764 645 800 c 0
 683 827 726 840 764 849 c 0
 768 850 772 850 776 850 c 0
376 850 m 0
 401 850 426 830 426 800 c 0
 426 778 411 757 388 751 c 0
 350 741 324 734 303 719 c 0
 285 706 267 685 256 642 c 0
 252 627 250 614 250 601 c 0
 250 545 289 494 344 425 c 0
 394 362 450 292 450 198 c 0
 450 107 405 36 355 1 c 0
 318 -25 275 -37 238 -48 c 0
 233 -49 229 -50 224 -50 c 0
 199 -50 174 -30 174 0 c 0
 174 22 188 42 210 48 c 0
 250 59 277 68 298 83 c 0
 316 96 333 116 344 158 c 0
 348 172 350 185 350 198 c 0
 350 255 310 307 256 375 c 0
 205 439 150 508 150 601 c 0
 150 692 195 764 245 800 c 0
 283 827 326 840 364 849 c 0
 368 850 372 850 376 850 c 0
EndSplineSet
Ligature2: "'liga' WORD PLUS SPACE" k o n space
Ligature2: "'liga' WORD" k o n
Substitution2: "'ss01' CART SUB" konTok_combCartExtTok
Substitution2: "'ss01' CONT SUB" konTok_combLongGlyphExtTok
Colour: bf80ff
EndChar

StartChar: kuleTok
Encoding: 174 989470 174
Width: 1000
LayerCount: 2
Fore
SplineSet
110 0 m 2
 84 0 60 21 60 50 c 0
 60 59 63 67 67 75 c 2
 197 300 l 1
 150 300 l 2
 122 300 100 322 100 350 c 0
 100 378 122 400 150 400 c 2
 255 400 l 1
 457 750 l 2
 466 765 482 775 500 775 c 0
 518 775 534 765 543 750 c 2
 745 400 l 1
 850 400 l 2
 878 400 900 378 900 350 c 0
 900 322 878 300 850 300 c 2
 803 300 l 1
 933 75 l 2
 937 67 940 59 940 50 c 0
 940 21 916 0 890 0 c 2
 110 0 l 2
630 400 m 1
 500 625 l 1
 370 400 l 1
 630 400 l 1
312 300 m 1
 197 100 l 1
 803 100 l 1
 688 300 l 1
 312 300 l 1
EndSplineSet
Ligature2: "'liga' WORD PLUS SPACE" k u l e space
Ligature2: "'liga' WORD" k u l e
Substitution2: "'ss01' CART SUB" kuleTok_combCartExtTok
Substitution2: "'ss01' CONT SUB" kuleTok_combLongGlyphExtTok
Colour: bf80ff
EndChar

StartChar: kulupuTok
Encoding: 175 989471 175
Width: 1000
LayerCount: 2
Fore
SplineSet
500 494 m 0
 555 494 600 539 600 594 c 0
 600 649 555 694 500 694 c 0
 445 694 400 649 400 594 c 0
 400 539 445 494 500 494 c 0
500 394 m 0
 390 394 300 484 300 594 c 0
 300 704 390 794 500 794 c 0
 610 794 700 704 700 594 c 0
 700 484 610 394 500 394 c 0
725 105 m 0
 780 105 825 150 825 205 c 0
 825 260 780 305 725 305 c 0
 670 305 625 260 625 205 c 0
 625 150 670 105 725 105 c 0
725 5 m 0
 615 5 525 95 525 205 c 0
 525 315 615 405 725 405 c 0
 835 405 925 315 925 205 c 0
 925 95 835 5 725 5 c 0
275 105 m 0
 330 105 375 150 375 205 c 0
 375 260 330 305 275 305 c 0
 220 305 175 260 175 205 c 0
 175 150 220 105 275 105 c 0
275 5 m 0
 165 5 75 95 75 205 c 0
 75 315 165 405 275 405 c 0
 385 405 475 315 475 205 c 0
 475 95 385 5 275 5 c 0
EndSplineSet
Ligature2: "'liga' WORD PLUS SPACE" k u l u p u space
Ligature2: "'liga' WORD" k u l u p u
Substitution2: "'ss01' CART SUB" kulupuTok_combCartExtTok
Substitution2: "'ss01' CONT SUB" kulupuTok_combLongGlyphExtTok
Colour: bf80ff
EndChar

StartChar: kuteTok
Encoding: 176 989472 176
Width: 1000
LayerCount: 2
Fore
SplineSet
251 -50 m 0
 227 -50 201 -30 201 0 c 0
 201 18 211 35 228 44 c 1
 228 44 228 45 229 45 c 0
 230 45 231 46 233 47 c 0
 258 60 276 71 308 91 c 0
 420 157 579 272 662 375 c 0
 709 434 734 487 734 533 c 0
 734 579 708 633 663 678 c 0
 618 724 563 750 518 750 c 0
 503 750 482 742 454 719 c 0
 396 672 338 585 301 520 c 0
 299 517 297 514 297 512 c 1
 296 512 296 511 295 510 c 0
 286 493 269 483 251 483 c 0
 222 483 201 509 201 533 c 0
 201 541 203 549 207 557 c 1
 207 558 l 1
 209 558 212 566 214 569 c 0
 218 577 224 588 232 601 c 0
 272 665 329 748 392 797 c 0
 426 825 469 850 518 850 c 0
 598 850 677 806 733 749 c 0
 790 692 834 614 834 533 c 0
 834 453 793 378 740 312 c 0
 644 195 483 80 360 5 c 0
 335 -10 313 -23 298 -31 c 0
 291 -35 285 -38 281 -41 c 0
 279 -42 277 -43 276 -43 c 1
 276 -44 275 -44 275 -44 c 1
 274 -44 l 1
 267 -48 259 -50 251 -50 c 0
550 600 m 0
 580 600 600 575 600 550 c 0
 600 543 598 535 595 528 c 0
 539 412 444 324 324 256 c 0
 316 252 308 250 300 250 c 0
 275 250 250 270 250 300 c 0
 250 317 259 334 276 344 c 0
 382 404 460 478 505 572 c 0
 514 590 531 600 550 600 c 0
EndSplineSet
Ligature2: "'liga' WORD PLUS SPACE" k u t e space
Ligature2: "'liga' WORD" k u t e
Substitution2: "'ss01' CART SUB" kuteTok_combCartExtTok
Substitution2: "'ss01' CONT SUB" kuteTok_combLongGlyphExtTok
Colour: bf80ff
EndChar

StartChar: laTok
Encoding: 177 989473 177
Width: 1000
LayerCount: 2
Fore
SplineSet
350 -50 m 0
 325 -50 300 -30 300 0 c 0
 300 22 315 42 337 48 c 0
 487 88 600 230 600 400 c 0
 600 570 487 712 337 752 c 0
 315 758 300 778 300 800 c 0
 300 830 325 850 350 850 c 0
 354 850 359 849 363 848 c 0
 558 796 700 615 700 400 c 0
 700 185 558 4 363 -48 c 0
 359 -49 354 -50 350 -50 c 0
EndSplineSet
Ligature2: "'liga' WORD PLUS SPACE" l a space
Ligature2: "'liga' WORD" l a
Substitution2: "'ss01' CART SUB" laTok_combCartExtTok
Substitution2: "'ss01' CONT SUB" laTok_combLongGlyphExtTok
Colour: bf80ff
EndChar

StartChar: lapeTok
Encoding: 178 989474 178
Width: 1000
LayerCount: 2
Fore
SplineSet
750 500 m 0
 695 500 650 455 650 400 c 0
 650 345 695 300 750 300 c 0
 805 300 850 345 850 400 c 0
 850 455 805 500 750 500 c 0
556 350 m 1
 100 350 l 2
 72 350 50 372 50 400 c 0
 50 428 72 450 100 450 c 2
 556 450 l 1
 578 536 657 600 750 600 c 0
 860 600 950 510 950 400 c 0
 950 290 860 200 750 200 c 0
 657 200 578 264 556 350 c 1
EndSplineSet
Ligature2: "'liga' WORD PLUS SPACE" l a p e space
Ligature2: "'liga' WORD" l a p e
Substitution2: "'ss01' CART SUB" lapeTok_combCartExtTok
Substitution2: "'ss01' CONT SUB" lapeTok_combLongGlyphExtTok
Colour: bf80ff
EndChar

StartChar: lasoTok
Encoding: 179 989475 179
Width: 1000
LayerCount: 2
Fore
SplineSet
692 817 m 0
 729 825 751 828 784 830 c 0
 785 830 786 830 787 830 c 0
 816 830 836 806 836 777 c 0
 836 773 836 770 835 766 c 0
 831 743 827 724 819 696 c 0
 807 657 787 602 751 566 c 0
 709 523 642 503 595 493 c 0
 579 490 564 487 551 485 c 1
 551 402 l 1
 776 35 l 2
 781 26 784 17 784 9 c 0
 784 -19 759 -41 734 -41 c 2
 266 -41 l 2
 241 -41 216 -19 216 9 c 0
 216 17 219 26 224 35 c 2
 451 406 l 1
 451 485 l 1
 438 487 422 489 406 493 c 0
 359 503 292 523 250 566 c 0
 214 602 194 658 182 697 c 0
 173 728 169 746 165 773 c 0
 165 775 164 778 164 780 c 0
 164 807 187 830 214 830 c 0
 215 830 216 830 217 830 c 2
 217 830 l 2
 250 828 272 825 309 817 c 0
 356 807 423 787 465 744 c 0
 479 729 491 712 501 694 c 1
 511 712 523 729 537 743 c 0
 579 786 645 807 692 817 c 0
436 589 m 1
 425 625 411 657 394 674 c 0
 373 695 326 712 279 721 c 1
 290 686 305 654 321 637 c 0
 342 615 389 598 436 589 c 1
566 589 m 1
 613 598 659 615 680 636 c 0
 697 653 711 685 722 721 c 1
 675 712 629 694 608 673 c 0
 592 656 577 624 566 589 c 1
356 59 m 1
 644 59 l 1
 500 294 l 1
 356 59 l 1
EndSplineSet
Ligature2: "'liga' WORD PLUS SPACE" l a s o space
Ligature2: "'liga' WORD" l a s o
Substitution2: "'ss01' CART SUB" lasoTok_combCartExtTok
Substitution2: "'ss01' CONT SUB" lasoTok_combLongGlyphExtTok
Colour: bf80ff
EndChar

StartChar: lawaTok
Encoding: 180 989476 180
Width: 1000
LayerCount: 2
Fore
SplineSet
787 500 m 1
 795 468 800 435 800 400 c 0
 800 193 632 25 425 25 c 0
 218 25 50 193 50 400 c 0
 50 607 218 775 425 775 c 0
 559 775 676 705 742 600 c 1
 900 600 l 2
 928 600 950 578 950 550 c 0
 950 522 928 500 900 500 c 2
 787 500 l 1
236 600 m 1
 614 600 l 1
 564 646 498 675 425 675 c 0
 352 675 286 646 236 600 c 1
169 500 m 1
 157 469 150 435 150 400 c 0
 150 248 273 125 425 125 c 0
 577 125 700 248 700 400 c 0
 700 435 693 469 681 500 c 1
 169 500 l 1
EndSplineSet
Ligature2: "'liga' WORD PLUS SPACE" l a w a space
Ligature2: "'liga' WORD" l a w a
Substitution2: "'ss01' CART SUB" lawaTok_combCartExtTok
Substitution2: "'ss01' CONT SUB" lawaTok_combLongGlyphExtTok
Colour: bf80ff
EndChar

StartChar: lenTok
Encoding: 181 989477 181
Width: 1000
LayerCount: 2
Fore
SplineSet
200 850 m 2
 800 850 l 2
 828 850 850 828 850 800 c 2
 850 0 l 2
 850 -28 828 -50 800 -50 c 0
 772 -50 750 -28 750 0 c 2
 750 150 l 1
 550 150 l 1
 550 0 l 2
 550 -28 528 -50 500 -50 c 0
 472 -50 450 -28 450 0 c 2
 450 150 l 1
 250 150 l 1
 250 0 l 2
 250 -28 228 -50 200 -50 c 0
 172 -50 150 -28 150 0 c 2
 150 800 l 2
 150 828 172 850 200 850 c 2
750 250 m 1
 750 750 l 1
 250 750 l 1
 250 250 l 1
 750 250 l 1
EndSplineSet
Ligature2: "'liga' WORD PLUS SPACE" l e n space
Ligature2: "'liga' WORD" l e n
Substitution2: "'ss01' CART SUB" lenTok_combCartExtTok
Substitution2: "'ss01' CONT SUB" lenTok_combLongGlyphExtTok
Colour: bf80ff
EndChar

StartChar: leteTok
Encoding: 182 989478 182
Width: 1000
LayerCount: 2
Fore
SplineSet
701 797 m 0
 730 797 750 771 750 746 c 0
 750 737 748 729 743 721 c 2
 587 450 l 1
 900 450 l 2
 928 450 950 428 950 400 c 0
 950 372 928 350 900 350 c 2
 587 350 l 1
 743 79 l 2
 748 71 750 63 750 54 c 0
 750 29 730 3 701 3 c 0
 684 3 666 13 657 29 c 2
 500 300 l 1
 343 29 l 2
 334 13 316 3 299 3 c 0
 270 3 250 29 250 54 c 0
 250 63 252 71 257 79 c 2
 413 350 l 1
 100 350 l 2
 72 350 50 372 50 400 c 0
 50 428 72 450 100 450 c 2
 413 450 l 1
 257 721 l 2
 252 729 250 737 250 746 c 0
 250 771 270 797 299 797 c 0
 316 797 334 787 343 771 c 2
 500 500 l 1
 657 771 l 2
 666 787 684 797 701 797 c 0
EndSplineSet
Ligature2: "'liga' WORD PLUS SPACE" l e t e space
Ligature2: "'liga' WORD" l e t e
Substitution2: "'ss01' CART SUB" leteTok_combCartExtTok
Substitution2: "'ss01' CONT SUB" leteTok_combLongGlyphExtTok
Colour: bf80ff
EndChar

StartChar: liTok
Encoding: 183 989479 183
Width: 1000
LayerCount: 2
Fore
SplineSet
250 800 m 4
 250 826 274 850 300 850 c 4
 313 850 325 845 335 835 c 6
 735 435 l 6
 745 425 750 413 750 400 c 4
 750 387 745 375 735 365 c 6
 335 -35 l 6
 325 -45 313 -50 300 -50 c 4
 274 -50 250 -26 250 0 c 4
 250 13 255 25 265 35 c 6
 629 400 l 5
 265 765 l 6
 255 775 250 787 250 800 c 4
EndSplineSet
Ligature2: "'liga' WORD PLUS SPACE" l i space
Ligature2: "'liga' WORD" l i
Substitution2: "'ss01' CART SUB" liTok_combCartExtTok
Substitution2: "'ss01' CONT SUB" liTok_combLongGlyphExtTok
Colour: bf80ff
EndChar

StartChar: liliTok
Encoding: 184 989480 184
Width: 1000
LayerCount: 2
Fore
SplineSet
650 550 m 0
 678 550 700 526 700 500 c 0
 700 490 697 479 690 470 c 2
 540 270 l 2
 531 257 516 250 500 250 c 0
 484 250 469 257 460 270 c 2
 310 470 l 2
 303 479 300 490 300 500 c 0
 300 526 322 550 350 550 c 0
 365 550 380 543 390 530 c 2
 500 383 l 1
 610 530 l 2
 620 543 635 550 650 550 c 0
EndSplineSet
Ligature2: "'liga' WORD PLUS SPACE" l i l i space
Ligature2: "'liga' WORD" l i l i
Substitution2: "'ss01' CART SUB" liliTok_combCartExtTok
Substitution2: "'ss01' CONT SUB" liliTok_combLongGlyphExtTok
Colour: bf80ff
EndChar

StartChar: linjaTok
Encoding: 185 989481 185
Width: 1000
LayerCount: 2
Fore
SplineSet
950 287 m 0
 950 262 930 238 900 238 c 0
 878 238 858 253 852 275 c 0
 827 367 819 458 737 491 c 0
 721 497 705 500 689 500 c 0
 630 500 571 459 548 385 c 0
 513 274 417 200 312 200 c 0
 284 200 255 206 226 217 c 0
 103 266 86 371 52 500 c 0
 51 504 50 509 50 513 c 0
 50 538 70 563 100 563 c 0
 122 563 142 547 148 525 c 0
 173 433 181 342 263 309 c 0
 279 303 295 300 311 300 c 0
 370 300 429 341 452 415 c 0
 487 526 583 600 688 600 c 0
 716 600 745 594 774 583 c 0
 897 534 914 429 948 300 c 0
 949 296 950 291 950 287 c 0
EndSplineSet
Ligature2: "'liga' WORD PLUS SPACE" l i n j a space
Ligature2: "'liga' WORD" l i n j a
Substitution2: "'ss01' CART SUB" linjaTok_combCartExtTok
Substitution2: "'ss01' CONT SUB" linjaTok_combLongGlyphExtTok
Colour: bf80ff
EndChar

StartChar: lipuTok
Encoding: 186 989482 186
Width: 1000
LayerCount: 2
Fore
SplineSet
150 800 m 2
 150 828 172 850 200 850 c 2
 800 850 l 2
 828 850 850 828 850 800 c 2
 850 0 l 2
 850 -28 828 -50 800 -50 c 2
 200 -50 l 2
 172 -50 150 -28 150 0 c 2
 150 800 l 2
250 750 m 1
 250 50 l 1
 750 50 l 1
 750 750 l 1
 250 750 l 1
EndSplineSet
Ligature2: "'liga' WORD PLUS SPACE" l i p u space
Ligature2: "'liga' WORD" l i p u
Substitution2: "'ss01' CART SUB" lipuTok_combCartExtTok
Substitution2: "'ss01' CONT SUB" lipuTok_combLongGlyphExtTok
Colour: bf80ff
EndChar

StartChar: lojeTok
Encoding: 187 989483 187
Width: 1000
LayerCount: 2
Fore
SplineSet
356 60 m 1
 644 60 l 1
 500 295 l 1
 356 60 l 1
500 441 m 0
 517 441 534 432 543 417 c 2
 776 36 l 2
 781 27 784 18 784 10 c 0
 784 -18 759 -40 734 -40 c 2
 266 -40 l 2
 241 -40 216 -18 216 10 c 0
 216 18 219 27 224 36 c 2
 457 417 l 2
 466 432 483 441 500 441 c 0
286 735 m 1
 309 638 396 565 500 565 c 0
 604 565 691 638 714 735 c 1
 286 735 l 1
180 785 m 0
 180 813 202 835 230 835 c 2
 770 835 l 2
 798 835 820 813 820 785 c 0
 820 608 677 465 500 465 c 0
 323 465 180 608 180 785 c 0
EndSplineSet
Ligature2: "'liga' WORD PLUS SPACE" l o j e space
Ligature2: "'liga' WORD" l o j e
Substitution2: "'ss01' CART SUB" lojeTok_combCartExtTok
Substitution2: "'ss01' CONT SUB" lojeTok_combLongGlyphExtTok
Colour: bf80ff
EndChar

StartChar: lonTok
Encoding: 188 989484 188
Width: 1000
LayerCount: 2
Fore
SplineSet
50 200 m 0
 50 228 72 250 100 250 c 2
 900 250 l 2
 928 250 950 228 950 200 c 0
 950 172 928 150 900 150 c 2
 100 150 l 2
 72 150 50 172 50 200 c 0
575 475 m 0
 575 434 541 400 500 400 c 0
 459 400 425 434 425 475 c 0
 425 516 459 550 500 550 c 0
 541 550 575 516 575 475 c 0
EndSplineSet
Ligature2: "'liga' WORD PLUS SPACE" l o n space
Ligature2: "'liga' WORD" l o n
Substitution2: "'ss01' CART SUB" lonTok_combCartExtTok
Substitution2: "'ss01' CONT SUB" lonTok_combLongGlyphExtTok
Colour: bf80ff
EndChar

StartChar: lukaTok
Encoding: 189 989485 189
Width: 1000
LayerCount: 2
Fore
SplineSet
49 348 m 0
 49 374 71 398 100 398 c 0
 117 398 134 389 143 373 c 2
 250 187 l 1
 250 450 l 2
 250 643 407 800 600 800 c 0
 793 800 950 643 950 450 c 2
 950 0 l 2
 950 -28 928 -50 900 -50 c 0
 872 -50 850 -28 850 0 c 2
 850 450 l 2
 850 588 738 700 600 700 c 0
 462 700 350 588 350 450 c 2
 350 0 l 2
 350 -26 330 -51 300 -51 c 0
 282 -51 266 -41 257 -25 c 2
 56 323 l 2
 51 331 49 340 49 348 c 0
EndSplineSet
Ligature2: "'liga' WORD PLUS SPACE" l u k a space
Ligature2: "'liga' WORD" l u k a
Substitution2: "'ss01' CART SUB" lukaTok_combCartExtTok
Substitution2: "'ss01' CONT SUB" lukaTok_combLongGlyphExtTok
Colour: bf80ff
EndChar

StartChar: lukinTok
Encoding: 190 989486 190
Width: 1000
LayerCount: 2
Fore
SplineSet
600 400 m 0
 600 345 555 300 500 300 c 0
 445 300 400 345 400 400 c 0
 400 455 445 500 500 500 c 0
 555 500 600 455 600 400 c 0
880 500 m 1
 881 499 l 1
 906 469 929 436 947 400 c 1
 928 364 906 330 880 300 c 0
 788 193 652 125 500 125 c 0
 348 125 212 193 120 300 c 0
 94 330 72 364 53 400 c 1
 72 436 94 470 120 500 c 0
 212 607 348 675 500 675 c 0
 652 675 788 607 880 500 c 1
831 400 m 1
 759 506 637 575 500 575 c 0
 363 575 241 506 169 400 c 1
 241 294 363 225 500 225 c 0
 637 225 759 294 831 400 c 1
EndSplineSet
Ligature2: "'liga' WORD PLUS SPACE" l u k i n space
Ligature2: "'liga' WORD" l u k i n
Substitution2: "'ss01' CART SUB" lukinTok_combCartExtTok
Substitution2: "'ss01' CONT SUB" lukinTok_combLongGlyphExtTok
Colour: bf80ff
EndChar

StartChar: lupaTok
Encoding: 191 989487 191
Width: 1000
LayerCount: 2
Fore
SplineSet
500 50 m 0
 693 50 850 207 850 400 c 2
 850 800 l 2
 850 828 872 850 900 850 c 0
 928 850 950 828 950 800 c 2
 950 400 l 2
 950 151 749 -50 500 -50 c 0
 251 -50 50 151 50 400 c 2
 50 800 l 2
 50 828 72 850 100 850 c 0
 128 850 150 828 150 800 c 2
 150 400 l 2
 150 207 307 50 500 50 c 0
EndSplineSet
Ligature2: "'liga' WORD PLUS SPACE" l u p a space
Ligature2: "'liga' WORD" l u p a
Substitution2: "'ss01' CART SUB" lupaTok_combCartExtTok
Substitution2: "'ss01' CONT SUB" lupaTok_combLongGlyphExtTok
Colour: bf80ff
EndChar

StartChar: maTok
Encoding: 192 989488 192
Width: 1000
LayerCount: 2
Fore
SplineSet
500 -50 m 4
 251 -50 50 151 50 400 c 4
 50 649 251 850 500 850 c 4
 749 850 950 649 950 400 c 4
 950 151 749 -50 500 -50 c 4
550 54 m 5
 703 75 825 197 846 350 c 5
 550 350 l 5
 550 54 l 5
450 54 m 5
 450 350 l 5
 154 350 l 5
 175 197 297 75 450 54 c 5
550 450 m 5
 846 450 l 5
 825 603 703 725 550 746 c 5
 550 450 l 5
450 746 m 5
 297 725 175 603 154 450 c 5
 450 450 l 5
 450 746 l 5
EndSplineSet
Ligature2: "'liga' WORD PLUS SPACE" m a space
Ligature2: "'liga' WORD" m a
Substitution2: "'ss01' CART SUB" maTok_combCartExtTok
Substitution2: "'ss01' CONT SUB" maTok_combLongGlyphExtTok
Colour: bf80ff
EndChar

StartChar: mamaTok
Encoding: 193 989489 193
Width: 1000
LayerCount: 2
Fore
SplineSet
500 850 m 0
 693 850 850 693 850 500 c 0
 850 377 787 270 692 207 c 1
 697 189 700 170 700 150 c 0
 700 40 610 -50 500 -50 c 0
 390 -50 300 40 300 150 c 0
 300 170 303 189 308 207 c 1
 213 270 150 377 150 500 c 0
 150 693 307 850 500 850 c 0
250 500 m 0
 250 362 362 250 500 250 c 0
 638 250 750 362 750 500 c 0
 750 638 638 750 500 750 c 0
 362 750 250 638 250 500 c 0
599 164 m 1
 568 155 534 150 500 150 c 0
 466 150 432 155 401 164 c 1
 400 160 400 155 400 150 c 0
 400 95 445 50 500 50 c 0
 555 50 600 95 600 150 c 0
 600 155 600 160 599 164 c 1
EndSplineSet
Ligature2: "'liga' WORD PLUS SPACE" m a m a space
Ligature2: "'liga' WORD" m a m a
Substitution2: "'ss01' CART SUB" mamaTok_combCartExtTok
Substitution2: "'ss01' CONT SUB" mamaTok_combLongGlyphExtTok
Colour: bf80ff
EndChar

StartChar: maniTok
Encoding: 194 989490 194
Width: 1000
LayerCount: 2
Fore
SplineSet
50 800 m 0
 50 826 70 850 100 850 c 0
 122 850 142 835 148 813 c 0
 158 775 172 751 191 733 c 0
 210 714 237 699 281 686 c 1
 282 686 l 1
 345 726 420 750 500 750 c 0
 580 750 655 726 718 686 c 1
 719 686 l 1
 763 699 790 714 809 733 c 0
 828 751 842 775 852 813 c 0
 858 835 878 850 900 850 c 0
 930 850 950 826 950 800 c 0
 950 796 949 791 948 787 c 0
 935 737 914 695 879 661 c 0
 858 640 832 624 803 611 c 1
 864 541 900 450 900 350 c 0
 900 129 721 -50 500 -50 c 0
 279 -50 100 129 100 350 c 0
 100 450 136 541 197 611 c 1
 168 624 142 640 121 661 c 0
 86 695 65 737 52 787 c 0
 51 791 50 796 50 800 c 0
800 350 m 0
 800 516 666 650 500 650 c 0
 334 650 200 516 200 350 c 0
 200 184 334 50 500 50 c 0
 666 50 800 184 800 350 c 0
EndSplineSet
Ligature2: "'liga' WORD PLUS SPACE" m a n i space
Ligature2: "'liga' WORD" m a n i
Substitution2: "'ss01' CART SUB" maniTok_combCartExtTok
Substitution2: "'ss01' CONT SUB" maniTok_combLongGlyphExtTok
Colour: bf80ff
EndChar

StartChar: meliTok
Encoding: 195 989491 195
Width: 1000
LayerCount: 2
Fore
SplineSet
500 750 m 0
 307 750 150 593 150 400 c 2
 150 0 l 2
 150 -28 128 -50 100 -50 c 0
 72 -50 50 -28 50 0 c 2
 50 400 l 2
 50 649 251 850 500 850 c 0
 749 850 950 649 950 400 c 2
 950 0 l 2
 950 -28 928 -50 900 -50 c 0
 872 -50 850 -28 850 0 c 2
 850 400 l 2
 850 593 693 750 500 750 c 0
500 600 m 0
 390 600 300 510 300 400 c 0
 300 290 390 200 500 200 c 0
 610 200 700 290 700 400 c 0
 700 510 610 600 500 600 c 0
200 400 m 0
 200 566 334 700 500 700 c 0
 666 700 800 566 800 400 c 0
 800 234 666 100 500 100 c 0
 334 100 200 234 200 400 c 0
EndSplineSet
Ligature2: "'liga' WORD PLUS SPACE" m e l i space
Ligature2: "'liga' WORD" m e l i
Substitution2: "'ss01' CART SUB" meliTok_combCartExtTok
Substitution2: "'ss01' CONT SUB" meliTok_combLongGlyphExtTok
Colour: bf80ff
EndChar

StartChar: miTok
Encoding: 196 989492 196
Width: 1000
LayerCount: 2
Fore
SplineSet
600 600 m 0
 600 655 555 700 500 700 c 0
 445 700 400 655 400 600 c 0
 400 545 445 500 500 500 c 0
 555 500 600 545 600 600 c 0
500 51 m 0
 500 26 480 0 450 0 c 0
 404 0 397 51 386 93 c 0
 349 230 300 438 300 600 c 0
 300 710 390 800 500 800 c 0
 610 800 700 710 700 600 c 0
 700 490 610 400 500 400 c 0
 470 400 442 406 417 418 c 1
 436 296 468 166 498 65 c 0
 499 60 500 56 500 51 c 0
EndSplineSet
Ligature2: "'liga' WORD PLUS SPACE" m i space
Ligature2: "'liga' WORD" m i
Substitution2: "'ss01' CART SUB" miTok_combCartExtTok
Substitution2: "'ss01' CONT SUB" miTok_combLongGlyphExtTok
Colour: bf80ff
EndChar

StartChar: mijeTok
Encoding: 197 989493 197
Width: 1000
LayerCount: 2
Fore
SplineSet
100 450 m 0
 100 671 279 850 500 850 c 0
 721 850 900 671 900 450 c 0
 900 355 867 268 812 200 c 1
 900 200 l 2
 928 200 950 178 950 150 c 2
 950 0 l 2
 950 -28 928 -50 900 -50 c 0
 872 -50 850 -28 850 0 c 2
 850 100 l 1
 694 100 l 1
 636 68 570 50 500 50 c 0
 430 50 364 68 306 100 c 1
 150 100 l 1
 150 0 l 2
 150 -28 128 -50 100 -50 c 0
 72 -50 50 -28 50 0 c 2
 50 150 l 2
 50 178 72 200 100 200 c 2
 188 200 l 1
 133 268 100 355 100 450 c 0
500 750 m 0
 334 750 200 616 200 450 c 0
 200 284 334 150 500 150 c 0
 666 150 800 284 800 450 c 0
 800 616 666 750 500 750 c 0
EndSplineSet
Ligature2: "'liga' WORD PLUS SPACE" m i j e space
Ligature2: "'liga' WORD" m i j e
Substitution2: "'ss01' CART SUB" mijeTok_combCartExtTok
Substitution2: "'ss01' CONT SUB" mijeTok_combLongGlyphExtTok
Colour: bf80ff
EndChar

StartChar: mokuTok
Encoding: 198 989494 198
Width: 1000
LayerCount: 2
Fore
SplineSet
281 154 m 1
 306 288 411 400 552 400 c 0
 715 400 829 250 829 90 c 2
 829 0 l 2
 829 -28 807 -50 779 -50 c 0
 751 -50 729 -28 729 0 c 2
 729 90 l 2
 729 210 646 300 552 300 c 0
 458 300 375 210 375 90 c 2
 375 0 l 2
 375 -30 349 -49 323 -49 c 0
 308 -49 293 -43 283 -28 c 2
 168 142 l 2
 162 151 159 160 159 170 c 0
 159 186 167 201 181 211 c 0
 190 217 199 220 209 220 c 0
 225 220 240 212 250 198 c 2
 281 154 l 1
242 800 m 0
 242 828 264 850 292 850 c 2
 792 850 l 2
 820 850 842 828 842 800 c 0
 842 616 716 450 542 450 c 0
 368 450 242 616 242 800 c 0
346 750 m 1
 365 630 452 550 542 550 c 0
 632 550 719 630 738 750 c 1
 346 750 l 1
EndSplineSet
Ligature2: "'liga' WORD PLUS SPACE" m o k u space
Ligature2: "'liga' WORD" m o k u
Substitution2: "'ss01' CART SUB" mokuTok_combCartExtTok
Substitution2: "'ss01' CONT SUB" mokuTok_combLongGlyphExtTok
Colour: bf80ff
EndChar

StartChar: moliTok
Encoding: 199 989495 199
Width: 1000
LayerCount: 2
Fore
SplineSet
225 475 m 0
 225 501 249 525 275 525 c 0
 288 525 300 520 310 510 c 2
 350 471 l 1
 390 510 l 2
 400 520 412 525 425 525 c 0
 451 525 475 501 475 475 c 0
 475 462 470 450 460 440 c 2
 421 400 l 1
 460 360 l 2
 470 350 475 338 475 325 c 0
 475 299 451 275 425 275 c 0
 412 275 400 280 390 290 c 2
 350 329 l 1
 310 290 l 2
 300 280 288 275 275 275 c 0
 249 275 225 299 225 325 c 0
 225 338 230 350 240 360 c 2
 279 400 l 1
 240 440 l 2
 230 450 225 462 225 475 c 0
525 475 m 0
 525 501 549 525 575 525 c 0
 588 525 600 520 610 510 c 2
 650 471 l 1
 690 510 l 2
 700 520 712 525 725 525 c 0
 751 525 775 501 775 475 c 0
 775 462 770 450 760 440 c 2
 721 400 l 1
 760 360 l 2
 770 350 775 338 775 325 c 0
 775 299 751 275 725 275 c 0
 712 275 700 280 690 290 c 2
 650 329 l 1
 610 290 l 2
 600 280 588 275 575 275 c 0
 549 275 525 299 525 325 c 0
 525 338 530 350 540 360 c 2
 579 400 l 1
 540 440 l 2
 530 450 525 462 525 475 c 0
950 400 m 0
 950 151 749 -50 500 -50 c 0
 251 -50 50 151 50 400 c 0
 50 649 251 850 500 850 c 0
 749 850 950 649 950 400 c 0
850 400 m 0
 850 593 693 750 500 750 c 0
 307 750 150 593 150 400 c 0
 150 207 307 50 500 50 c 0
 693 50 850 207 850 400 c 0
EndSplineSet
Ligature2: "'liga' WORD PLUS SPACE" m o l i space
Ligature2: "'liga' WORD" m o l i
Substitution2: "'ss01' CART SUB" moliTok_combCartExtTok
Substitution2: "'ss01' CONT SUB" moliTok_combLongGlyphExtTok
Colour: bf80ff
EndChar

StartChar: monsiTok
Encoding: 200 989496 200
Width: 1000
LayerCount: 2
Fore
SplineSet
275 475 m 0
 316 475 350 441 350 400 c 0
 350 359 316 325 275 325 c 0
 234 325 200 359 200 400 c 0
 200 441 234 475 275 475 c 0
800 100 m 0
 800 72 778 50 750 50 c 2
 450 50 l 2
 422 50 400 72 400 100 c 2
 400 700 l 2
 400 728 422 750 450 750 c 2
 750 750 l 2
 778 750 800 728 800 700 c 0
 800 672 778 650 750 650 c 2
 500 650 l 1
 500 150 l 1
 750 150 l 2
 778 150 800 128 800 100 c 0
EndSplineSet
Ligature2: "'liga' WORD PLUS SPACE" m o n s i space
Ligature2: "'liga' WORD" m o n s i
Substitution2: "'ss01' CART SUB" monsiTok_combCartExtTok
Substitution2: "'ss01' CONT SUB" monsiTok_combLongGlyphExtTok
Colour: bf80ff
EndChar

StartChar: muTok
Encoding: 201 989497 201
Width: 1000
LayerCount: 2
Fore
SplineSet
500 125 m 0
 459 125 425 159 425 200 c 0
 425 241 459 275 500 275 c 0
 541 275 575 241 575 200 c 0
 575 159 541 125 500 125 c 0
900 350 m 0
 900 129 721 -50 500 -50 c 0
 279 -50 100 129 100 350 c 0
 100 400 109 448 126 493 c 1
 80 529 50 586 50 650 c 0
 50 760 140 850 250 850 c 0
 327 850 393 807 427 743 c 1
 451 748 475 750 500 750 c 0
 525 750 549 748 573 743 c 1
 607 807 673 850 750 850 c 0
 860 850 950 760 950 650 c 0
 950 586 920 529 874 493 c 1
 891 448 900 400 900 350 c 0
350 650 m 0
 350 705 305 750 250 750 c 0
 195 750 150 705 150 650 c 0
 150 595 195 550 250 550 c 0
 305 550 350 595 350 650 c 0
450 646 m 1
 448 537 359 450 250 450 c 0
 239 450 228 451 218 453 c 1
 206 421 200 386 200 350 c 0
 200 184 334 50 500 50 c 0
 666 50 800 184 800 350 c 0
 800 386 794 421 782 453 c 1
 772 451 761 450 750 450 c 0
 641 450 552 537 550 646 c 1
 534 649 517 650 500 650 c 0
 483 650 466 649 450 646 c 1
750 550 m 0
 805 550 850 595 850 650 c 0
 850 705 805 750 750 750 c 0
 695 750 650 705 650 650 c 0
 650 595 695 550 750 550 c 0
EndSplineSet
Ligature2: "'liga' WORD PLUS SPACE" m u space
Ligature2: "'liga' WORD" m u
Substitution2: "'ss01' CART SUB" muTok_combCartExtTok
Substitution2: "'ss01' CONT SUB" muTok_combLongGlyphExtTok
Colour: bf80ff
EndChar

StartChar: munTok
Encoding: 202 989498 202
Width: 1000
LayerCount: 2
Fore
SplineSet
500 400 m 0
 500 226 428 122 325 59 c 1
 351 53 377 50 404 50 c 0
 594 50 750 206 750 400 c 0
 750 594 594 750 404 750 c 0
 377 750 351 747 325 741 c 1
 427 678 500 574 500 400 c 0
174 785 m 0
 241 826 320 850 404 850 c 0
 651 850 850 648 850 400 c 0
 850 152 651 -50 404 -50 c 0
 320 -50 241 -26 174 15 c 0
 158 25 151 41 151 57 c 0
 151 78 162 98 184 105 c 0
 303 144 400 218 400 400 c 0
 400 582 303 656 184 695 c 0
 162 702 151 722 151 743 c 0
 151 759 158 775 174 785 c 0
EndSplineSet
Ligature2: "'liga' WORD PLUS SPACE" m u n space
Ligature2: "'liga' WORD" m u n
Substitution2: "'ss01' CART SUB" munTok_combCartExtTok
Substitution2: "'ss01' CONT SUB" munTok_combLongGlyphExtTok
Colour: bf80ff
EndChar

StartChar: musiTok
Encoding: 203 989499 203
Width: 1000
LayerCount: 2
Fore
SplineSet
300 482 m 1
 300 295 l 2
 300 187 353 103 426 67 c 0
 450 55 475 50 500 50 c 0
 561 50 608 82 639 119 c 0
 674 160 700 222 700 295 c 2
 700 482 l 1
 628 504 575 571 575 650 c 0
 575 747 653 825 750 825 c 0
 847 825 925 747 925 650 c 0
 925 571 872 504 800 482 c 1
 800 295 l 2
 800 195 764 112 715 54 c 0
 668 -2 595 -50 500 -50 c 0
 405 -50 332 -2 285 54 c 0
 236 112 200 195 200 295 c 2
 200 482 l 1
 128 504 75 571 75 650 c 0
 75 747 153 825 250 825 c 0
 347 825 425 747 425 650 c 0
 425 571 372 504 300 482 c 1
250 575 m 0
 291 575 325 609 325 650 c 0
 325 691 291 725 250 725 c 0
 209 725 175 691 175 650 c 0
 175 609 209 575 250 575 c 0
750 575 m 0
 791 575 825 609 825 650 c 0
 825 691 791 725 750 725 c 0
 709 725 675 691 675 650 c 0
 675 609 709 575 750 575 c 0
EndSplineSet
Ligature2: "'liga' WORD PLUS SPACE" m u s i space
Ligature2: "'liga' WORD" m u s i
Substitution2: "'ss01' CART SUB" musiTok_combCartExtTok
Substitution2: "'ss01' CONT SUB" musiTok_combLongGlyphExtTok
Colour: bf80ff
EndChar

StartChar: muteTok
Encoding: 204 989500 204
Width: 1000
LayerCount: 2
Fore
SplineSet
500 -40 m 0
 472 -40 450 -18 450 10 c 2
 450 790 l 2
 450 818 472 840 500 840 c 0
 528 840 550 818 550 790 c 2
 550 10 l 2
 550 -18 528 -40 500 -40 c 0
250 -50 m 0
 222 -50 200 -28 200 0 c 2
 200 800 l 2
 200 828 222 850 250 850 c 0
 278 850 300 828 300 800 c 2
 300 0 l 2
 300 -28 278 -50 250 -50 c 0
750 -50 m 0
 722 -50 700 -28 700 0 c 2
 700 800 l 2
 700 828 722 850 750 850 c 0
 778 850 800 828 800 800 c 2
 800 0 l 2
 800 -28 778 -50 750 -50 c 0
EndSplineSet
Ligature2: "'liga' WORD PLUS SPACE" m u t e space
Ligature2: "'liga' WORD" m u t e
Substitution2: "'ss01' CART SUB" muteTok_combCartExtTok
Substitution2: "'ss01' CONT SUB" muteTok_combLongGlyphExtTok
Colour: bf80ff
EndChar

StartChar: nanpaTok
Encoding: 205 989501 205
Width: 1000
LayerCount: 2
Fore
SplineSet
940 250 m 0
 940 222 918 200 890 200 c 2
 700 200 l 1
 700 0 l 2
 700 -28 678 -50 650 -50 c 0
 622 -50 600 -28 600 0 c 2
 600 200 l 1
 400 200 l 1
 400 0 l 2
 400 -28 378 -50 350 -50 c 0
 322 -50 300 -28 300 0 c 2
 300 200 l 1
 100 200 l 2
 72 200 50 222 50 250 c 0
 50 278 72 300 100 300 c 2
 300 300 l 1
 300 500 l 1
 110 500 l 2
 82 500 60 522 60 550 c 0
 60 578 82 600 110 600 c 2
 300 600 l 1
 300 800 l 2
 300 828 322 850 350 850 c 0
 378 850 400 828 400 800 c 2
 400 600 l 1
 600 600 l 1
 600 790 l 2
 600 818 622 840 650 840 c 0
 678 840 700 818 700 790 c 2
 700 600 l 1
 900 600 l 2
 928 600 950 578 950 550 c 0
 950 522 928 500 900 500 c 2
 700 500 l 1
 700 300 l 1
 890 300 l 2
 918 300 940 278 940 250 c 0
600 500 m 1
 400 500 l 1
 400 300 l 1
 600 300 l 1
 600 500 l 1
EndSplineSet
Ligature2: "'liga' WORD PLUS SPACE" n a n p a space
Ligature2: "'liga' WORD" n a n p a
Substitution2: "'ss01' CART SUB" nanpaTok_combCartExtTok
Substitution2: "'ss01' CONT SUB" nanpaTok_combLongGlyphExtTok
Colour: bf80ff
EndChar

StartChar: nasaTok
Encoding: 206 989502 206
Width: 1000
LayerCount: 2
Fore
SplineSet
476 275 m 0
 521 275 553 297 553 330 c 0
 553 346 538 351 519 354 c 0
 495 358 477 378 477 402 c 0
 477 432 501 454 528 454 c 0
 627 454 653 404 653 337 c 0
 653 255 572 174 473 174 c 0
 362 174 293 288 293 396 c 0
 293 540 419 615 551 615 c 0
 696 615 849 523 849 330 c 0
 849 126 682 -24 484 -24 c 0
 271 -24 95 155 95 371 c 0
 95 618 282 829 528 829 c 0
 708 829 933 724 933 628 c 0
 933 602 912 578 884 578 c 0
 848 578 847 599 815 630 c 0
 777 667 710 729 533 729 c 0
 348 729 195 578 195 397 c 0
 195 229 315 76 482 76 c 0
 626 76 749 223 749 331 c 0
 749 443 656 531 544 531 c 0
 451 531 393 474 393 394 c 0
 393 316 428 275 476 275 c 0
EndSplineSet
Ligature2: "'liga' WORD PLUS SPACE" n a s a space
Ligature2: "'liga' WORD" n a s a
Substitution2: "'ss01' CART SUB" nasaTok_combCartExtTok
Substitution2: "'ss01' CONT SUB" nasaTok_combLongGlyphExtTok
Colour: bf80ff
EndChar

StartChar: nasinTok
Encoding: 207 989503 207
Width: 1000
LayerCount: 2
Fore
SplineSet
250 250 m 0
 224 250 200 274 200 300 c 0
 200 313 205 325 215 335 c 2
 450 571 l 1
 450 800 l 2
 450 828 472 850 500 850 c 0
 528 850 550 828 550 800 c 2
 550 571 l 1
 785 335 l 2
 795 325 800 313 800 300 c 0
 800 274 776 250 750 250 c 0
 737 250 725 255 715 265 c 2
 550 429 l 1
 550 0 l 2
 550 -28 528 -50 500 -50 c 0
 472 -50 450 -28 450 0 c 2
 450 429 l 1
 285 265 l 2
 275 255 263 250 250 250 c 0
EndSplineSet
Ligature2: "'liga' WORD PLUS SPACE" n a s i n space
Ligature2: "'liga' WORD" n a s i n
Substitution2: "'ss01' CART SUB" nasinTok_combCartExtTok
Substitution2: "'ss01' CONT SUB" nasinTok_combLongGlyphExtTok
Colour: bf80ff
EndChar

StartChar: nenaTok
Encoding: 208 989504 208
Width: 1000
LayerCount: 2
Fore
SplineSet
500 750 m 0
 307 750 150 593 150 400 c 2
 150 0 l 2
 150 -28 128 -50 100 -50 c 0
 72 -50 50 -28 50 0 c 2
 50 400 l 2
 50 649 251 850 500 850 c 0
 749 850 950 649 950 400 c 2
 950 0 l 2
 950 -28 928 -50 900 -50 c 0
 872 -50 850 -28 850 0 c 2
 850 400 l 2
 850 593 693 750 500 750 c 0
EndSplineSet
Ligature2: "'liga' WORD PLUS SPACE" n e n a space
Ligature2: "'liga' WORD" n e n a
Substitution2: "'ss01' CART SUB" nenaTok_combCartExtTok
Substitution2: "'ss01' CONT SUB" nenaTok_combLongGlyphExtTok
Colour: bf80ff
EndChar

StartChar: niTok
Encoding: 209 989505 209
Width: 1000
LayerCount: 2
Fore
SplineSet
200 250 m 0
 200 276 224 300 250 300 c 0
 263 300 275 295 285 285 c 2
 450 121 l 1
 450 800 l 2
 450 828 472 850 500 850 c 0
 528 850 550 828 550 800 c 2
 550 121 l 1
 715 285 l 2
 725 295 737 300 750 300 c 0
 776 300 800 276 800 250 c 0
 800 237 795 225 785 215 c 2
 535 -35 l 1
 528 -44 515 -50 500 -50 c 0
 485 -50 472 -44 465 -35 c 1
 215 215 l 2
 205 225 200 237 200 250 c 0
EndSplineSet
Ligature2: "'liga' WORD PLUS SPACE" n i space
Ligature2: "'liga' WORD" n i
Substitution2: "'ss01' CART SUB" niTok_combCartExtTok
Substitution2: "'ss01' CONT SUB" niTok_combLongGlyphExtTok
Colour: bf80ff
EndChar

StartChar: nimiTok
Encoding: 210 989506 210
Width: 1000
LayerCount: 2
Fore
SplineSet
261 150 m 2
 144 150 50 244 50 361 c 2
 50 439 l 2
 50 556 144 650 261 650 c 2
 739 650 l 2
 856 650 950 556 950 439 c 2
 950 361 l 2
 950 244 856 150 739 150 c 2
 261 150 l 2
150 361 m 2
 150 300 200 250 261 250 c 2
 739 250 l 2
 800 250 850 300 850 361 c 2
 850 439 l 2
 850 500 800 550 739 550 c 2
 261 550 l 2
 200 550 150 500 150 439 c 2
 150 361 l 2
EndSplineSet
Ligature2: "'liga' WORD PLUS SPACE" n i m i space
Ligature2: "'liga' WORD" n i m i
Substitution2: "'ss01' CART SUB" nimiTok_combCartExtTok
Substitution2: "'ss01' CONT SUB" nimiTok_combLongGlyphExtTok
Colour: bf80ff
EndChar

StartChar: nokaTok
Encoding: 211 989507 211
Width: 1000
LayerCount: 2
Fore
SplineSet
150 850 m 0
 178 850 200 828 200 800 c 2
 200 50 l 1
 700 50 l 2
 755 50 800 95 800 150 c 0
 800 205 755 250 700 250 c 2
 450 250 l 2
 422 250 400 272 400 300 c 2
 400 800 l 2
 400 828 422 850 450 850 c 0
 478 850 500 828 500 800 c 2
 500 350 l 1
 700 350 l 2
 810 350 900 260 900 150 c 0
 900 40 810 -50 700 -50 c 2
 150 -50 l 2
 122 -50 100 -28 100 0 c 2
 100 800 l 2
 100 828 122 850 150 850 c 0
EndSplineSet
Ligature2: "'liga' WORD PLUS SPACE" n o k a space
Ligature2: "'liga' WORD" n o k a
Substitution2: "'ss01' CART SUB" nokaTok_combCartExtTok
Substitution2: "'ss01' CONT SUB" nokaTok_combLongGlyphExtTok
Colour: bf80ff
EndChar

StartChar: oTok
Encoding: 212 989508 212
Width: 1000
LayerCount: 2
Fore
SplineSet
500 -50 m 0
 390 -50 300 40 300 150 c 0
 300 260 390 350 500 350 c 0
 610 350 700 260 700 150 c 0
 700 40 610 -50 500 -50 c 0
500 50 m 0
 555 50 600 95 600 150 c 0
 600 205 555 250 500 250 c 0
 445 250 400 205 400 150 c 0
 400 95 445 50 500 50 c 0
500 850 m 0
 528 850 550 828 550 800 c 2
 550 450 l 2
 550 422 528 400 500 400 c 0
 472 400 450 422 450 450 c 2
 450 800 l 2
 450 828 472 850 500 850 c 0
EndSplineSet
Ligature2: "'liga' WORD PLUS SPACE" o space
Ligature2: "'liga' WORD" o
Substitution2: "'ss01' CART SUB" oTok_combCartExtTok
Substitution2: "'ss01' CONT SUB" oTok_combLongGlyphExtTok
Colour: bf80ff
EndChar

StartChar: olinTok
Encoding: 213 989509 213
Width: 1000
LayerCount: 2
Fore
SplineSet
400 300 m 0
 372 300 350 278 350 250 c 0
 350 240 356 222 373 196 c 0
 403 151 461 97 500 64 c 1
 539 97 597 151 627 196 c 0
 644 222 650 240 650 250 c 0
 650 278 628 300 600 300 c 0
 571 300 554 266 541 247 c 0
 532 233 517 225 500 225 c 0
 483 225 468 233 459 247 c 0
 446 266 429 300 400 300 c 0
500 357 m 1
 522 379 555 400 600 400 c 0
 683 400 750 333 750 250 c 0
 750 210 730 172 710 141 c 0
 664 71 592 6 530 -40 c 0
 521 -47 511 -50 500 -50 c 0
 484 -50 472 -42 461 -33 c 0
 404 12 334 75 290 141 c 0
 270 172 250 210 250 250 c 0
 250 333 317 400 400 400 c 0
 445 400 478 379 500 357 c 1
400 750 m 0
 372 750 350 728 350 700 c 0
 350 690 356 672 373 646 c 0
 403 601 461 547 500 514 c 1
 539 547 597 601 627 646 c 0
 644 672 650 690 650 700 c 0
 650 728 628 750 600 750 c 0
 571 750 554 716 541 697 c 0
 532 683 517 675 500 675 c 0
 483 675 468 683 459 697 c 0
 446 716 429 750 400 750 c 0
500 807 m 1
 522 829 555 850 600 850 c 0
 683 850 750 783 750 700 c 0
 750 660 730 622 710 591 c 0
 664 521 592 456 530 410 c 0
 521 403 511 400 500 400 c 0
 484 400 472 408 461 417 c 0
 404 462 334 525 290 591 c 0
 270 622 250 660 250 700 c 0
 250 783 317 850 400 850 c 0
 445 850 478 829 500 807 c 1
EndSplineSet
Ligature2: "'liga' WORD PLUS SPACE" o l i n space
Ligature2: "'liga' WORD" o l i n
Substitution2: "'ss01' CART SUB" olinTok_combCartExtTok
Substitution2: "'ss01' CONT SUB" olinTok_combLongGlyphExtTok
Colour: bf80ff
EndChar

StartChar: onaTok
Encoding: 214 989510 214
Width: 1000
LayerCount: 2
Fore
SplineSet
700 500 m 0
 645 500 600 455 600 400 c 0
 600 345 645 300 700 300 c 0
 755 300 800 345 800 400 c 0
 800 455 755 500 700 500 c 0
100 350 m 0
 100 380 126 400 151 400 c 0
 162 400 169 397 179 394 c 0
 274 367 403 335 518 317 c 1
 506 342 500 370 500 400 c 0
 500 510 590 600 700 600 c 0
 810 600 900 510 900 400 c 0
 900 290 810 200 700 200 c 0
 514 200 288 257 136 302 c 0
 114 308 100 328 100 350 c 0
EndSplineSet
Ligature2: "'liga' WORD PLUS SPACE" o n a space
Ligature2: "'liga' WORD" o n a
Substitution2: "'ss01' CART SUB" onaTok_combCartExtTok
Substitution2: "'ss01' CONT SUB" onaTok_combLongGlyphExtTok
Colour: bf80ff
EndChar

StartChar: openTok
Encoding: 215 989511 215
Width: 1000
LayerCount: 2
Fore
SplineSet
250 750 m 2
 250 300 l 1
 750 300 l 1
 750 750 l 2
 750 778 772 800 800 800 c 0
 828 800 850 778 850 750 c 2
 850 50 l 2
 850 22 828 0 800 0 c 2
 200 0 l 2
 172 0 150 22 150 50 c 2
 150 750 l 2
 150 778 172 800 200 800 c 0
 228 800 250 778 250 750 c 2
250 200 m 1
 250 100 l 1
 750 100 l 1
 750 200 l 1
 250 200 l 1
EndSplineSet
Ligature2: "'liga' WORD PLUS SPACE" o p e n space
Ligature2: "'liga' WORD" o p e n
Substitution2: "'ss01' CART SUB" openTok_combCartExtTok
Substitution2: "'ss01' CONT SUB" openTok_combLongGlyphExtTok
Colour: bf80ff
EndChar

StartChar: pakalaTok
Encoding: 216 989512 216
Width: 1000
LayerCount: 2
Fore
SplineSet
200 850 m 2
 800 850 l 2
 828 850 850 828 850 800 c 2
 850 0 l 2
 850 -28 828 -50 800 -50 c 2
 200 -50 l 2
 172 -50 150 -28 150 0 c 2
 150 800 l 2
 150 828 172 850 200 850 c 2
370 350 m 2
 345 350 320 371 320 400 c 0
 320 410 323 419 328 427 c 2
 538 750 l 1
 250 750 l 1
 250 50 l 1
 343 50 l 1
 538 350 l 1
 370 350 l 2
630 450 m 2
 655 450 680 429 680 400 c 0
 680 390 677 381 672 373 c 2
 462 50 l 1
 750 50 l 1
 750 750 l 1
 657 750 l 1
 462 450 l 1
 630 450 l 2
EndSplineSet
Ligature2: "'liga' WORD PLUS SPACE" p a k a l a space
Ligature2: "'liga' WORD" p a k a l a
Substitution2: "'ss01' CART SUB" pakalaTok_combCartExtTok
Substitution2: "'ss01' CONT SUB" pakalaTok_combLongGlyphExtTok
Colour: bf80ff
EndChar

StartChar: paliTok
Encoding: 217 989513 217
Width: 1000
LayerCount: 2
Fore
SplineSet
135 300 m 4
 135 325 155 350 185 350 c 4
 207 350 227 336 233 314 c 6
 259 228 l 5
 286 280 327 325 379 355 c 5
 313 405 270 485 270 575 c 4
 270 727 393 850 545 850 c 4
 697 850 820 727 820 575 c 4
 820 485 777 405 711 355 c 5
 804 300 865 201 865 90 c 6
 865 0 l 6
 865 -28 843 -50 815 -50 c 4
 787 -50 765 -28 765 0 c 6
 765 90 l 6
 765 202 671 300 545 300 c 4
 419 300 325 202 325 90 c 6
 325 0 l 6
 325 -26 304 -50 275 -50 c 4
 253 -50 233 -35 227 -14 c 6
 137 286 l 6
 136 291 135 295 135 300 c 4
545 400 m 4
 642 400 720 478 720 575 c 4
 720 672 642 750 545 750 c 4
 448 750 370 672 370 575 c 4
 370 478 448 400 545 400 c 4
EndSplineSet
Ligature2: "'liga' WORD PLUS SPACE" p a l i space
Ligature2: "'liga' WORD" p a l i
Substitution2: "'ss01' CART SUB" paliTok_combCartExtTok
Substitution2: "'ss01' CONT SUB" paliTok_combLongGlyphExtTok
Colour: bf80ff
EndChar

StartChar: palisaTok
Encoding: 218 989514 218
Width: 1000
LayerCount: 2
Fore
SplineSet
302 651 m 2
 302 761 391 850 501 850 c 0
 611 850 700 761 700 651 c 2
 700 149 l 2
 700 39 611 -50 501 -50 c 0
 391 -50 302 39 302 149 c 2
 302 651 l 2
501 750 m 0
 446 750 402 706 402 651 c 2
 402 149 l 2
 402 94 446 50 501 50 c 0
 556 50 600 94 600 149 c 2
 600 651 l 2
 600 706 556 750 501 750 c 0
EndSplineSet
Ligature2: "'liga' WORD PLUS SPACE" p a l i s a space
Ligature2: "'liga' WORD" p a l i s a
Substitution2: "'ss01' CART SUB" palisaTok_combCartExtTok
Substitution2: "'ss01' CONT SUB" palisaTok_combLongGlyphExtTok
Colour: bf80ff
EndChar

StartChar: panTok
Encoding: 219 989515 219
Width: 1000
LayerCount: 2
Fore
SplineSet
200 800 m 0
 200 826 224 850 250 850 c 0
 263 850 275 845 285 835 c 2
 500 621 l 1
 715 835 l 2
 725 845 737 850 750 850 c 0
 776 850 800 826 800 800 c 0
 800 787 795 775 785 765 c 2
 535 515 l 2
 525 505 513 500 500 500 c 0
 487 500 475 505 465 515 c 2
 215 765 l 2
 205 775 200 787 200 800 c 0
200 525 m 0
 200 551 224 575 250 575 c 0
 263 575 275 570 285 560 c 2
 500 346 l 1
 715 560 l 2
 725 570 737 575 750 575 c 0
 776 575 800 551 800 525 c 0
 800 512 795 500 785 490 c 2
 535 240 l 2
 525 230 513 225 500 225 c 0
 487 225 475 230 465 240 c 2
 215 490 l 2
 205 500 200 512 200 525 c 0
200 250 m 0
 200 276 224 300 250 300 c 0
 263 300 275 295 285 285 c 2
 500 71 l 1
 715 285 l 2
 725 295 737 300 750 300 c 0
 776 300 800 276 800 250 c 0
 800 237 795 225 785 215 c 2
 535 -35 l 2
 525 -45 513 -50 500 -50 c 0
 487 -50 475 -45 465 -35 c 2
 215 215 l 2
 205 225 200 237 200 250 c 0
EndSplineSet
Ligature2: "'liga' WORD PLUS SPACE" p a n space
Ligature2: "'liga' WORD" p a n
Substitution2: "'ss01' CART SUB" panTok_combCartExtTok
Substitution2: "'ss01' CONT SUB" panTok_combLongGlyphExtTok
Colour: bf80ff
EndChar

StartChar: panaTok
Encoding: 220 989516 220
Width: 1000
LayerCount: 2
Fore
SplineSet
296 398 m 0
 343 468 414 520 501 520 c 0
 588 520 658 468 705 398 c 0
 752 328 780 235 780 136 c 2
 780 20 l 2
 780 -8 758 -30 730 -30 c 0
 702 -30 680 -8 680 20 c 2
 680 136 l 2
 680 217 658 290 623 342 c 0
 588 394 544 420 501 420 c 0
 458 420 413 394 378 342 c 0
 343 290 321 217 321 136 c 2
 321 20 l 2
 321 -10 296 -29 270 -29 c 0
 254 -29 239 -22 229 -6 c 2
 108 188 l 2
 103 196 100 205 100 214 c 0
 100 231 109 248 124 257 c 0
 132 262 141 264 150 264 c 0
 167 264 183 256 192 241 c 2
 224 190 l 1
 232 268 257 341 296 398 c 0
501 830 m 0
 529 830 551 808 551 780 c 2
 551 680 l 2
 551 652 529 630 501 630 c 0
 473 630 451 652 451 680 c 2
 451 780 l 2
 451 808 473 830 501 830 c 0
235 757 m 0
 243 762 252 764 260 764 c 0
 277 764 293 755 302 739 c 2
 350 652 l 2
 354 644 357 635 357 627 c 0
 357 609 348 593 332 583 c 0
 324 578 315 576 307 576 c 0
 290 576 273 585 264 601 c 2
 216 687 l 2
 212 695 210 704 210 712 c 0
 210 730 219 747 235 757 c 0
766 757 m 0
 782 747 791 730 791 712 c 0
 791 704 789 695 785 687 c 2
 737 601 l 2
 728 585 711 576 694 576 c 0
 686 576 677 578 669 583 c 0
 653 593 644 609 644 627 c 0
 644 635 647 644 651 652 c 2
 699 739 l 2
 708 755 724 764 741 764 c 0
 749 764 758 762 766 757 c 0
EndSplineSet
Ligature2: "'liga' WORD PLUS SPACE" p a n a space
Ligature2: "'liga' WORD" p a n a
Substitution2: "'ss01' CART SUB" panaTok_combCartExtTok
Substitution2: "'ss01' CONT SUB" panaTok_combLongGlyphExtTok
Colour: bf80ff
EndChar

StartChar: piTok
Encoding: 221 989517 221
Width: 1000
LayerCount: 2
Fore
SplineSet
150 800 m 0
 178 800 200 778 200 750 c 2
 200 100 l 1
 850 100 l 2
 878 100 900 78 900 50 c 0
 900 22 878 0 850 0 c 2
 150 0 l 2
 122 0 100 22 100 50 c 2
 100 750 l 2
 100 778 122 800 150 800 c 0
EndSplineSet
Ligature2: "'liga' WORD PLUS SPACE" p i space
Ligature2: "'liga' WORD" p i
Substitution2: "'ss01' CART SUB" piTok_combCartExtTok
Substitution2: "'ss01' CONT SUB" piTok_combLongGlyphExtTok
Colour: bf80ff
EndChar

StartChar: pilinTok
Encoding: 222 989518 222
Width: 1000
LayerCount: 2
Fore
SplineSet
469 11 m 2
 464 16 460 19 452 24 c 0
 390 75 335 118 265 190 c 0
 213 241 161 300 121 360 c 0
 82 419 50 485 50 550 c 0
 50 688 162 800 300 800 c 0
 371 800 430 768 471 731 c 0
 480 723 488 699 496 699 c 0
 497 699 499 700 500 701 c 0
 542 753 612 800 700 800 c 0
 838 800 950 688 950 550 c 0
 950 485 918 419 879 360 c 0
 809 254 686 136 595 62 c 0
 568 41 556 28 535 14 c 0
 533 13 532 12 531 11 c 2
 531 11 531 10 530 10 c 0
 521 4 510 0 500 0 c 0
 490 0 479 4 470 10 c 0
 469 10 469 11 469 11 c 2
300 700 m 0
 217 700 150 633 150 550 c 0
 150 515 168 469 204 415 c 0
 239 363 287 309 335 260 c 0
 384 212 433 169 470 138 c 0
 481 129 491 120 500 113 c 0
 501 112 502 112 503 112 c 0
 511 112 520 130 530 138 c 0
 567 169 616 212 665 260 c 0
 713 309 761 363 796 415 c 0
 832 469 850 515 850 550 c 0
 850 633 783 700 700 700 c 0
 660 700 624 682 596 656 c 0
 566 630 551 601 549 590 c 0
 544 567 524 550 500 550 c 0
 476 550 456 567 451 590 c 0
 449 601 434 630 404 656 c 0
 376 682 340 700 300 700 c 0
EndSplineSet
Ligature2: "'liga' WORD PLUS SPACE" p i l i n space
Ligature2: "'liga' WORD" p i l i n
Substitution2: "'ss01' CART SUB" pilinTok_combCartExtTok
Substitution2: "'ss01' CONT SUB" pilinTok_combLongGlyphExtTok
Colour: bf80ff
EndChar

StartChar: pimejaTok
Encoding: 223 989519 223
Width: 1000
LayerCount: 2
Fore
SplineSet
562 517 m 1
 500 625 l 1
 438 517 l 1
 500 410 l 1
 562 517 l 1
679 100 m 1
 803 100 l 1
 620 417 l 1
 558 310 l 1
 679 100 l 1
437 100 m 1
 563 100 l 1
 500 210 l 1
 437 100 l 1
321 100 m 1
 442 310 l 1
 380 417 l 1
 197 100 l 1
 321 100 l 1
110 0 m 2
 84 0 60 21 60 50 c 0
 60 59 63 67 67 75 c 2
 457 750 l 2
 466 765 482 775 500 775 c 0
 518 775 534 765 543 750 c 2
 933 75 l 2
 937 67 940 59 940 50 c 0
 940 21 916 0 890 0 c 2
 110 0 l 2
EndSplineSet
Ligature2: "'liga' WORD PLUS SPACE" p i m e j a space
Ligature2: "'liga' WORD" p i m e j a
Substitution2: "'ss01' CART SUB" pimejaTok_combCartExtTok
Substitution2: "'ss01' CONT SUB" pimejaTok_combLongGlyphExtTok
Colour: bf80ff
EndChar

StartChar: piniTok
Encoding: 224 989520 224
Width: 1000
LayerCount: 2
Fore
SplineSet
550 700 m 1
 550 100 l 1
 700 100 l 2
 728 100 750 78 750 50 c 0
 750 22 728 0 700 0 c 2
 300 0 l 2
 272 0 250 22 250 50 c 0
 250 78 272 100 300 100 c 2
 450 100 l 1
 450 700 l 1
 300 700 l 2
 272 700 250 722 250 750 c 0
 250 778 272 800 300 800 c 2
 700 800 l 2
 728 800 750 778 750 750 c 0
 750 722 728 700 700 700 c 2
 550 700 l 1
EndSplineSet
Ligature2: "'liga' WORD PLUS SPACE" p i n i space
Ligature2: "'liga' WORD" p i n i
Substitution2: "'ss01' CART SUB" piniTok_combCartExtTok
Substitution2: "'ss01' CONT SUB" piniTok_combLongGlyphExtTok
Colour: bf80ff
EndChar

StartChar: pipiTok
Encoding: 225 989521 225
Width: 1000
LayerCount: 2
Fore
SplineSet
750 775 m 0
 750 734 716 700 675 700 c 0
 634 700 600 734 600 775 c 0
 600 816 634 850 675 850 c 0
 716 850 750 816 750 775 c 0
184 525 m 0
 184 546 201 563 222 563 c 2
 450 563 l 1
 450 650 l 2
 450 678 472 700 500 700 c 0
 528 700 550 678 550 650 c 2
 550 563 l 1
 785 563 l 2
 806 563 822 546 822 525 c 0
 822 504 806 488 785 488 c 2
 550 488 l 1
 550 363 l 1
 800 363 l 2
 821 363 838 346 838 325 c 0
 838 304 821 288 800 288 c 2
 550 288 l 1
 550 163 l 1
 781 163 l 2
 802 163 818 146 818 125 c 0
 818 104 802 88 781 88 c 2
 550 88 l 1
 550 0 l 2
 550 -28 528 -50 500 -50 c 0
 472 -50 450 -28 450 0 c 2
 450 88 l 1
 219 88 l 2
 198 88 182 104 182 125 c 0
 182 146 198 163 219 163 c 2
 450 163 l 1
 450 288 l 1
 200 288 l 2
 179 288 162 304 162 325 c 0
 162 346 179 363 200 363 c 2
 450 363 l 1
 450 488 l 1
 222 488 l 2
 201 488 184 504 184 525 c 0
325 700 m 0
 284 700 250 734 250 775 c 0
 250 816 284 850 325 850 c 0
 366 850 400 816 400 775 c 0
 400 734 366 700 325 700 c 0
EndSplineSet
Ligature2: "'liga' WORD PLUS SPACE" p i p i space
Ligature2: "'liga' WORD" p i p i
Substitution2: "'ss01' CART SUB" pipiTok_combCartExtTok
Substitution2: "'ss01' CONT SUB" pipiTok_combLongGlyphExtTok
Colour: bf80ff
EndChar

StartChar: pokaTok
Encoding: 226 989522 226
Width: 1000
LayerCount: 2
Fore
SplineSet
100 600 m 0
 128 600 150 578 150 550 c 2
 150 300 l 1
 650 300 l 1
 650 550 l 2
 650 578 672 600 700 600 c 0
 728 600 750 578 750 550 c 2
 750 250 l 2
 750 222 728 200 700 200 c 2
 100 200 l 2
 72 200 50 222 50 250 c 2
 50 550 l 2
 50 578 72 600 100 600 c 0
950 400 m 0
 950 359 916 325 875 325 c 0
 834 325 800 359 800 400 c 0
 800 441 834 475 875 475 c 0
 916 475 950 441 950 400 c 0
EndSplineSet
Ligature2: "'liga' WORD PLUS SPACE" p o k a space
Ligature2: "'liga' WORD" p o k a
Substitution2: "'ss01' CART SUB" pokaTok_combCartExtTok
Substitution2: "'ss01' CONT SUB" pokaTok_combLongGlyphExtTok
Colour: bf80ff
EndChar

StartChar: pokiTok
Encoding: 227 989523 227
Width: 1000
LayerCount: 2
Fore
SplineSet
200 750 m 0
 228 750 250 728 250 700 c 2
 250 150 l 1
 750 150 l 1
 750 700 l 2
 750 728 772 750 800 750 c 0
 828 750 850 728 850 700 c 2
 850 100 l 2
 850 72 828 50 800 50 c 2
 200 50 l 2
 172 50 150 72 150 100 c 2
 150 700 l 2
 150 728 172 750 200 750 c 0
EndSplineSet
Ligature2: "'liga' WORD PLUS SPACE" p o k i space
Ligature2: "'liga' WORD" p o k i
Substitution2: "'ss01' CART SUB" pokiTok_combCartExtTok
Substitution2: "'ss01' CONT SUB" pokiTok_combLongGlyphExtTok
Colour: bf80ff
EndChar

StartChar: ponaTok
Encoding: 228 989524 228
Width: 1000
LayerCount: 2
Fore
SplineSet
50 550 m 0
 50 575 70 600 100 600 c 0
 122 600 142 585 148 563 c 0
 188 413 330 300 500 300 c 0
 670 300 812 413 852 563 c 0
 858 585 878 600 900 600 c 0
 930 600 950 575 950 550 c 0
 950 546 949 541 948 537 c 0
 896 342 715 200 500 200 c 0
 285 200 104 342 52 537 c 0
 51 541 50 546 50 550 c 0
EndSplineSet
Ligature2: "'liga' WORD PLUS SPACE" p o n a space
Ligature2: "'liga' WORD" p o n a
Substitution2: "'ss01' CART SUB" ponaTok_combCartExtTok
Substitution2: "'ss01' CONT SUB" ponaTok_combLongGlyphExtTok
Colour: bf80ff
EndChar

StartChar: puTok
Encoding: 229 989525 229
Width: 1000
LayerCount: 2
Fore
SplineSet
125 825 m 2
 125 853 147 875 175 875 c 2
 825 875 l 2
 853 875 875 853 875 825 c 2
 875 -25 l 2
 875 -53 853 -75 825 -75 c 2
 175 -75 l 2
 147 -75 125 -53 125 -25 c 2
 125 825 l 2
225 775 m 1
 225 25 l 1
 775 25 l 1
 775 775 l 1
 225 775 l 1
650 310 m 0
 650 393 583 460 500 460 c 0
 417 460 350 393 350 310 c 0
 350 227 417 160 500 160 c 0
 583 160 650 227 650 310 c 0
500 60 m 0
 362 60 250 172 250 310 c 0
 250 448 362 560 500 560 c 0
 638 560 750 448 750 310 c 0
 750 172 638 60 500 60 c 0
500 280 m 0
 514 280 530 288 530 300 c 0
 530 328 552 350 580 350 c 0
 608 350 630 328 630 300 c 0
 630 228 565 180 500 180 c 0
 435 180 370 228 370 300 c 0
 370 328 392 350 420 350 c 0
 448 350 470 328 470 300 c 0
 470 288 486 280 500 280 c 0
265 663 m 0
 275 673 287 678 300 678 c 0
 313 678 326 673 336 663 c 2
 386 613 l 2
 396 603 400 591 400 578 c 0
 400 565 396 553 386 543 c 0
 376 533 363 528 350 528 c 0
 337 528 325 533 315 543 c 2
 265 593 l 2
 255 603 250 615 250 628 c 0
 250 641 255 653 265 663 c 0
614 543 m 0
 604 553 600 565 600 578 c 0
 600 591 605 603 615 613 c 2
 665 663 l 2
 675 673 687 678 700 678 c 0
 713 678 725 673 735 663 c 0
 745 653 750 641 750 628 c 0
 750 615 745 603 735 593 c 2
 685 543 l 2
 675 533 663 528 650 528 c 0
 637 528 624 533 614 543 c 0
552 679 m 2
 552 619 l 2
 552 591 529 569 501 569 c 0
 501 569 l 0
 473 569 451 591 451 619 c 2
 451 680 l 2
 451 708 474 729 502 729 c 0
 530 729 552 707 552 679 c 2
EndSplineSet
Ligature2: "'liga' WORD PLUS SPACE" p u space
Ligature2: "'liga' WORD" p u
Substitution2: "'ss01' CART SUB" puTok_combCartExtTok
Substitution2: "'ss01' CONT SUB" puTok_combLongGlyphExtTok
Colour: bf80ff
EndChar

StartChar: samaTok
Encoding: 230 989526 230
Width: 1000
LayerCount: 2
Fore
SplineSet
840 530 m 2
 867.595703125 530 890 552.404296875 890 580 c 0
 890 607.595703125 867.595703125 630 840 630 c 2
 160 630 l 2
 132.404296875 630 110 607.595703125 110 580 c 0
 110 552.404296875 132.404296875 530 160 530 c 2
 840 530 l 2
840 170 m 2
 867.595703125 170 890 192.404296875 890 220 c 0
 890 247.595703125 867.595703125 270 840 270 c 2
 160 270 l 2
 132.404296875 270 110 247.595703125 110 220 c 0
 110 192.404296875 132.404296875 170 160 170 c 2
 840 170 l 2
EndSplineSet
Ligature2: "'liga' WORD PLUS SPACE" s a m a space
Ligature2: "'liga' WORD" s a m a
Substitution2: "'ss01' CART SUB" samaTok_combCartExtTok
Substitution2: "'ss01' CONT SUB" samaTok_combLongGlyphExtTok
Colour: bf80ff
EndChar

StartChar: seliTok
Encoding: 231 989527 231
Width: 1000
LayerCount: 2
Fore
SplineSet
100 731 m 0
 100 756 120 781 150 781 c 0
 169 781 187 770 195 752 c 2
 395 321 l 2
 398 314 400 307 400 300 c 0
 400 275 380 250 350 250 c 0
 331 250 313 261 305 279 c 2
 105 710 l 2
 102 717 100 724 100 731 c 0
850 781 m 0
 880 781 900 756 900 731 c 0
 900 724 899 717 896 710 c 2
 695 279 l 2
 687 261 669 250 650 250 c 0
 620 250 600 275 600 300 c 0
 600 307 602 314 605 321 c 2
 805 752 l 2
 813 770 831 781 850 781 c 0
500 850 m 0
 528 850 550 828 550 800 c 2
 550 325 l 2
 550 297 528 275 500 275 c 0
 472 275 450 297 450 325 c 2
 450 800 l 2
 450 828 472 850 500 850 c 0
575 25 m 0
 575 -16 541 -50 500 -50 c 0
 459 -50 425 -16 425 25 c 0
 425 66 459 100 500 100 c 0
 541 100 575 66 575 25 c 0
EndSplineSet
Ligature2: "'liga' WORD PLUS SPACE" s e l i space
Ligature2: "'liga' WORD" s e l i
Substitution2: "'ss01' CART SUB" seliTok_combCartExtTok
Substitution2: "'ss01' CONT SUB" seliTok_combLongGlyphExtTok
Colour: bf80ff
EndChar

StartChar: seloTok
Encoding: 232 989528 232
Width: 1000
LayerCount: 2
Fore
SplineSet
200 200 m 2
 200 172 178 150 150 150 c 0
 122 150 100 172 100 200 c 2
 100 600 l 2
 100 628 122 650 150 650 c 2
 850 650 l 2
 878 650 900 628 900 600 c 2
 900 200 l 2
 900 172 878 150 850 150 c 0
 822 150 800 172 800 200 c 2
 800 550 l 1
 750 550 l 1
 750 250 l 2
 750 222 728 200 700 200 c 0
 672 200 650 222 650 250 c 2
 650 550 l 1
 350 550 l 1
 350 250 l 2
 350 222 328 200 300 200 c 0
 272 200 250 222 250 250 c 2
 250 550 l 1
 200 550 l 1
 200 200 l 2
EndSplineSet
Ligature2: "'liga' WORD PLUS SPACE" s e l o space
Ligature2: "'liga' WORD" s e l o
Substitution2: "'ss01' CART SUB" seloTok_combCartExtTok
Substitution2: "'ss01' CONT SUB" seloTok_combLongGlyphExtTok
Colour: bf80ff
EndChar

StartChar: semeTok
Encoding: 233 989529 233
Width: 1000
LayerCount: 2
Fore
SplineSet
575 25 m 0
 575 -16 541 -50 500 -50 c 0
 459 -50 425 -16 425 25 c 0
 425 66 459 100 500 100 c 0
 541 100 575 66 575 25 c 0
500 850 m 0
 680 850 850 778 850 600 c 0
 850 544 819 505 784 478 c 0
 726 430 632 400 580 355 c 0
 559 337 550 320 550 300 c 2
 550 250 l 2
 550 222 528 200 500 200 c 0
 472 200 450 222 450 250 c 2
 450 300 l 2
 450 414 556 465 632 503 c 0
 669 522 700 538 722 556 c 0
 744 573 750 587 750 600 c 0
 750 649 727 684 686 709 c 0
 643 735 578 750 500 750 c 0
 422 750 357 735 314 709 c 0
 273 684 250 649 250 600 c 0
 250 572 228 550 200 550 c 0
 172 550 150 572 150 600 c 0
 150 777 320 850 500 850 c 0
EndSplineSet
Ligature2: "'liga' WORD PLUS SPACE" s e m e space
Ligature2: "'liga' WORD" s e m e
Substitution2: "'ss01' CART SUB" semeTok_combCartExtTok
Substitution2: "'ss01' CONT SUB" semeTok_combLongGlyphExtTok
Colour: bf80ff
EndChar

StartChar: sewiTok
Encoding: 234 989530 234
Width: 1000
LayerCount: 2
Fore
SplineSet
900 -40 m 0
 872 -40 850 -18 850 10 c 2
 850 770 l 2
 850 798 872 820 900 820 c 0
 928 820 950 798 950 770 c 2
 950 10 l 2
 950 -18 928 -40 900 -40 c 0
220 62 m 1
 200 19 164 -30 100 -30 c 0
 72 -30 50 -8 50 20 c 0
 50 48 72 70 100 70 c 0
 102 70 111 70 125 96 c 0
 156 155 169 270 170 356 c 2
 170 356 l 0
 170 384 192 406 220 406 c 0
 250 406 270 383 270 353 c 0
 271 269 284 154 315 96 c 0
 329 70 338 70 340 70 c 0
 341 70 342 71 345 73 c 0
 350 78 357 88 364 104 c 0
 378 136 388 183 395 237 c 0
 406 320 409 409 410 465 c 0
 410 469 410 473 410 476 c 0
 410 487 410 497 410 504 c 0
 410 531 433 553 460 553 c 0
 488 553 510 531 510 503 c 2
 510 503 l 2
 510 494 510 481 510 465 c 0
 510 410 513 320 524 237 c 0
 531 183 542 136 556 104 c 0
 563 88 571 70 580 70 c 1
 589 75 595 87 603 107 c 0
 649 223 650 468 650 622 c 0
 650 632 650 641 650 650 c 0
 650 678 672 700 700 700 c 0
 728 700 750 678 750 650 c 2
 750 649 l 2
 750 486 750 206 696 71 c 0
 679 27 644 -30 580 -30 c 0
 513 -30 478 29 460 75 c 1
 442 29 408 -30 340 -30 c 0
 276 -30 240 19 220 62 c 1
EndSplineSet
Ligature2: "'liga' WORD PLUS SPACE" s e w i space
Ligature2: "'liga' WORD" s e w i
Substitution2: "'ss01' CART SUB" sewiTok_combCartExtTok
Substitution2: "'ss01' CONT SUB" sewiTok_combLongGlyphExtTok
Colour: bf80ff
EndChar

StartChar: sijeloTok
Encoding: 235 989531 235
Width: 1000
LayerCount: 2
Fore
SplineSet
200 50 m 2
 200 22 178 0 150 0 c 0
 122 0 100 22 100 50 c 2
 100 750 l 2
 100 778 122 800 150 800 c 2
 850 800 l 2
 878 800 900 778 900 750 c 2
 900 50 l 2
 900 22 878 0 850 0 c 0
 822 0 800 22 800 50 c 2
 800 700 l 1
 550 700 l 1
 550 100 l 2
 550 72 528 50 500 50 c 0
 472 50 450 72 450 100 c 2
 450 700 l 1
 200 700 l 1
 200 50 l 2
EndSplineSet
Ligature2: "'liga' WORD PLUS SPACE" s i j e l o space
Ligature2: "'liga' WORD" s i j e l o
Substitution2: "'ss01' CART SUB" sijeloTok_combCartExtTok
Substitution2: "'ss01' CONT SUB" sijeloTok_combLongGlyphExtTok
Colour: bf80ff
EndChar

StartChar: sikeTok
Encoding: 236 989532 236
Width: 1000
LayerCount: 2
Fore
SplineSet
500 50 m 0
 693 50 850 207 850 400 c 0
 850 593 693 750 500 750 c 0
 307 750 150 593 150 400 c 0
 150 207 307 50 500 50 c 0
500 -50 m 0
 251 -50 50 151 50 400 c 0
 50 649 251 850 500 850 c 0
 749 850 950 649 950 400 c 0
 950 151 749 -50 500 -50 c 0
650 400 m 0
 650 483 583 550 500 550 c 0
 417 550 350 483 350 400 c 0
 350 317 417 250 500 250 c 0
 583 250 650 317 650 400 c 0
500 150 m 0
 362 150 250 262 250 400 c 0
 250 538 362 650 500 650 c 0
 638 650 750 538 750 400 c 0
 750 262 638 150 500 150 c 0
EndSplineSet
Ligature2: "'liga' WORD PLUS SPACE" s i k e space
Ligature2: "'liga' WORD" s i k e
Substitution2: "'ss01' CART SUB" sikeTok_combCartExtTok
Substitution2: "'ss01' CONT SUB" sikeTok_combLongGlyphExtTok
Colour: bf80ff
EndChar

StartChar: sinTok
Encoding: 237 989533 237
Width: 1000
LayerCount: 2
Fore
SplineSet
600 200 m 0
 600 228 622 250 650 250 c 2
 900 250 l 2
 928 250 950 228 950 200 c 0
 950 172 928 150 900 150 c 2
 650 150 l 2
 622 150 600 172 600 200 c 0
500 650 m 0
 528 650 550 628 550 600 c 2
 550 350 l 2
 550 322 528 300 500 300 c 0
 472 300 450 322 450 350 c 2
 450 600 l 2
 450 628 472 650 500 650 c 0
50 200 m 0
 50 228 72 250 100 250 c 2
 350 250 l 2
 378 250 400 228 400 200 c 0
 400 172 378 150 350 150 c 2
 100 150 l 2
 72 150 50 172 50 200 c 0
EndSplineSet
Ligature2: "'liga' WORD PLUS SPACE" s i n space
Ligature2: "'liga' WORD" s i n
Substitution2: "'ss01' CART SUB" sinTok_combCartExtTok
Substitution2: "'ss01' CONT SUB" sinTok_combLongGlyphExtTok
Colour: bf80ff
EndChar

StartChar: sinaTok
Encoding: 238 989534 238
Width: 1000
LayerCount: 2
Fore
SplineSet
600 200 m 0
 600 255 555 300 500 300 c 0
 445 300 400 255 400 200 c 0
 400 145 445 100 500 100 c 0
 555 100 600 145 600 200 c 0
450 800 m 0
 480 800 500 774 500 749 c 0
 500 738 497 731 494 721 c 0
 467 626 435 497 417 382 c 1
 442 394 470 400 500 400 c 0
 610 400 700 310 700 200 c 0
 700 90 610 0 500 0 c 0
 390 0 300 90 300 200 c 0
 300 387 357 612 402 764 c 0
 408 786 428 800 450 800 c 0
EndSplineSet
Ligature2: "'liga' WORD PLUS SPACE" s i n a space
Ligature2: "'liga' WORD" s i n a
Substitution2: "'ss01' CART SUB" sinaTok_combCartExtTok
Substitution2: "'ss01' CONT SUB" sinaTok_combLongGlyphExtTok
Colour: bf80ff
EndChar

StartChar: sinpinTok
Encoding: 239 989535 239
Width: 1000
LayerCount: 2
Fore
SplineSet
725 475 m 0
 766 475 800 441 800 400 c 0
 800 359 766 325 725 325 c 0
 684 325 650 359 650 400 c 0
 650 441 684 475 725 475 c 0
200 100 m 0
 200 128 222 150 250 150 c 2
 500 150 l 1
 500 650 l 1
 250 650 l 2
 222 650 200 672 200 700 c 0
 200 728 222 750 250 750 c 2
 550 750 l 2
 578 750 600 728 600 700 c 2
 600 100 l 2
 600 72 578 50 550 50 c 2
 250 50 l 2
 222 50 200 72 200 100 c 0
EndSplineSet
Ligature2: "'liga' WORD PLUS SPACE" s i n p i n space
Ligature2: "'liga' WORD" s i n p i n
Substitution2: "'ss01' CART SUB" sinpinTok_combCartExtTok
Substitution2: "'ss01' CONT SUB" sinpinTok_combLongGlyphExtTok
Colour: bf80ff
EndChar

StartChar: sitelenTok
Encoding: 240 989536 240
Width: 1000
LayerCount: 2
Fore
SplineSet
150 800 m 2
 150 828 172 850 200 850 c 2
 800 850 l 2
 828 850 850 828 850 800 c 2
 850 0 l 2
 850 -28 828 -50 800 -50 c 2
 200 -50 l 2
 172 -50 150 -28 150 0 c 2
 150 800 l 2
250 750 m 1
 250 50 l 1
 750 50 l 1
 750 750 l 1
 250 750 l 1
400 400 m 0
 400 372 378 350 350 350 c 0
 322 350 300 372 300 400 c 0
 300 428 322 450 350 450 c 0
 378 450 400 428 400 400 c 0
550 400 m 0
 550 372 528 350 500 350 c 0
 472 350 450 372 450 400 c 0
 450 428 472 450 500 450 c 0
 528 450 550 428 550 400 c 0
700 400 m 0
 700 372 678 350 650 350 c 0
 622 350 600 372 600 400 c 0
 600 428 622 450 650 450 c 0
 678 450 700 428 700 400 c 0
EndSplineSet
Ligature2: "'liga' WORD PLUS SPACE" s i t e l e n space
Ligature2: "'liga' WORD" s i t e l e n
Substitution2: "'ss01' CART SUB" sitelenTok_combCartExtTok
Substitution2: "'ss01' CONT SUB" sitelenTok_combLongGlyphExtTok
Colour: bf80ff
EndChar

StartChar: sonaTok
Encoding: 241 989537 241
Width: 1000
LayerCount: 2
Fore
SplineSet
500.000976562 850 m 0
 527.615234375 850 550.000976562 827.614257812 550.000976562 800 c 2
 550.000976562 700 l 2
 550.000976562 672.385742188 527.615234375 650 500.000976562 650 c 0
 472.385742188 650 450.000976562 672.385742188 450.000976562 700 c 2
 450.000976562 800 l 2
 450.000976562 827.614257812 472.385742188 850 500.000976562 850 c 0
225.000976562 776.314453125 m 0
 248.915039062 790.12109375 279.495117188 781.926757812 293.301757812 758.012695312 c 2
 343.301757812 671.41015625 l 2
 357.109375 647.49609375 348.915039062 616.916015625 325.000976562 603.109375 c 0
 301.0859375 589.301757812 270.505859375 597.49609375 256.69921875 621.41015625 c 2
 206.69921875 708.012695312 l 2
 192.891601562 731.926757812 201.0859375 762.506835938 225.000976562 776.314453125 c 0
775.000976562 776.314453125 m 0
 798.915039062 762.506835938 807.109375 731.926757812 793.301757812 708.012695312 c 2
 743.301757812 621.41015625 l 2
 729.495117188 597.49609375 698.915039062 589.301757812 675.000976562 603.109375 c 0
 651.0859375 616.916015625 642.891601562 647.49609375 656.69921875 671.41015625 c 2
 706.69921875 758.012695312 l 2
 720.505859375 781.926757812 751.0859375 790.12109375 775.000976562 776.314453125 c 0
240 500 m 2
 240 527.614257812 262.385742188 550 290 550 c 2
 710 550 l 2
 737.614257812 550 760 527.614257812 760 500 c 2
 760 0 l 2
 760 -27.6142578125 737.614257812 -50 710 -50 c 2
 290 -50 l 2
 262.385742188 -50 240 -27.6142578125 240 0 c 2
 240 500 l 2
340 450 m 1
 340 50 l 1
 660 50 l 1
 660 450 l 1
 340 450 l 1
EndSplineSet
Ligature2: "'liga' WORD PLUS SPACE" s o n a space
Ligature2: "'liga' WORD" s o n a
Substitution2: "'ss01' CART SUB" sonaTok_combCartExtTok
Substitution2: "'ss01' CONT SUB" sonaTok_combLongGlyphExtTok
Colour: bf80ff
EndChar

StartChar: soweliTok
Encoding: 242 989538 242
Width: 1000
LayerCount: 2
Fore
SplineSet
150 850 m 2
 600 850 l 2
 793 850 950 693 950 500 c 0
 950 324 820 178 650 154 c 1
 650 0 l 2
 650 -28 628 -50 600 -50 c 0
 572 -50 550 -28 550 0 c 2
 550 200 l 2
 550 228 572 250 600 250 c 0
 738 250 850 362 850 500 c 0
 850 638 738 750 600 750 c 2
 150 750 l 2
 122 750 100 772 100 800 c 0
 100 828 122 850 150 850 c 2
450 250 m 0
 478 250 500 228 500 200 c 2
 500 0 l 2
 500 -28 478 -50 450 -50 c 0
 422 -50 400 -28 400 0 c 2
 400 200 l 2
 400 228 422 250 450 250 c 0
150 250 m 0
 178 250 200 228 200 200 c 2
 200 0 l 2
 200 -28 178 -50 150 -50 c 0
 122 -50 100 -28 100 0 c 2
 100 200 l 2
 100 228 122 250 150 250 c 0
300 250 m 0
 328 250 350 228 350 200 c 2
 350 0 l 2
 350 -28 328 -50 300 -50 c 0
 272 -50 250 -28 250 0 c 2
 250 200 l 2
 250 228 272 250 300 250 c 0
730 500 m 0
 730 459 696 425 655 425 c 0
 614 425 580 459 580 500 c 0
 580 541 614 575 655 575 c 0
 696 575 730 541 730 500 c 0
500 500 m 0
 500 459 466 425 425 425 c 0
 384 425 350 459 350 500 c 0
 350 541 384 575 425 575 c 0
 466 575 500 541 500 500 c 0
EndSplineSet
Ligature2: "'liga' WORD PLUS SPACE" s o w e l i space
Ligature2: "'liga' WORD" s o w e l i
Substitution2: "'ss01' CART SUB" soweliTok_combCartExtTok
Substitution2: "'ss01' CONT SUB" soweliTok_combLongGlyphExtTok
Colour: bf80ff
EndChar

StartChar: suliTok
Encoding: 243 989539 243
Width: 1000
LayerCount: 2
Fore
SplineSet
850 850 m 0
 878 850 900 827 900 800 c 0
 900 789 896 778 889 769 c 0
 777 625 695 443 638 289 c 0
 582 135 554 13 549 -10 c 0
 544 -33 524 -50 500 -50 c 0
 476 -50 456 -33 451 -10 c 0
 446 13 418 135 362 289 c 0
 305 443 223 625 111 769 c 0
 104 778 100 789 100 800 c 0
 100 827 122 850 150 850 c 0
 165 850 180 843 189 831 c 0
 311 675 398 482 456 323 c 0
 473 276 488 232 500 192 c 1
 512 232 527 276 544 323 c 0
 602 482 689 675 811 831 c 0
 820 843 835 850 850 850 c 0
EndSplineSet
Ligature2: "'liga' WORD PLUS SPACE" s u l i space
Ligature2: "'liga' WORD" s u l i
Substitution2: "'ss01' CART SUB" suliTok_combCartExtTok
Substitution2: "'ss01' CONT SUB" suliTok_combLongGlyphExtTok
Colour: bf80ff
EndChar

StartChar: sunoTok
Encoding: 244 989540 244
Width: 1000
LayerCount: 2
Fore
SplineSet
450 800 m 2
 450 828 472 850 500 850 c 0
 528 850 550 828 550 800 c 2
 550 696 l 1
 676 675 775 576 796 450 c 1
 900 450 l 2
 928 450 950 428 950 400 c 0
 950 372 928 350 900 350 c 2
 796 350 l 1
 775 224 676 125 550 104 c 1
 550 0 l 2
 550 -28 528 -50 500 -50 c 0
 472 -50 450 -28 450 0 c 2
 450 104 l 1
 324 125 225 224 204 350 c 1
 100 350 l 2
 72 350 50 372 50 400 c 0
 50 428 72 450 100 450 c 2
 204 450 l 1
 225 576 324 675 450 696 c 1
 450 800 l 2
500 600 m 0
 390 600 300 510 300 400 c 0
 300 290 390 200 500 200 c 0
 610 200 700 290 700 400 c 0
 700 510 610 600 500 600 c 0
EndSplineSet
Ligature2: "'liga' WORD PLUS SPACE" s u n o space
Ligature2: "'liga' WORD" s u n o
Substitution2: "'ss01' CART SUB" sunoTok_combCartExtTok
Substitution2: "'ss01' CONT SUB" sunoTok_combLongGlyphExtTok
Colour: bf80ff
EndChar

StartChar: supaTok
Encoding: 245 989541 245
Width: 1000
LayerCount: 2
Fore
SplineSet
100 600 m 2
 900 600 l 2
 928 600 950 578 950 550 c 0
 950 522 928 500 900 500 c 2
 780 500 l 1
 780 250 l 2
 780 222 758 200 730 200 c 0
 702 200 680 222 680 250 c 2
 680 500 l 1
 320 500 l 1
 320 250 l 2
 320 222 298 200 270 200 c 0
 242 200 220 222 220 250 c 2
 220 500 l 1
 100 500 l 2
 72 500 50 522 50 550 c 0
 50 578 72 600 100 600 c 2
EndSplineSet
Ligature2: "'liga' WORD PLUS SPACE" s u p a space
Ligature2: "'liga' WORD" s u p a
Substitution2: "'ss01' CART SUB" supaTok_combCartExtTok
Substitution2: "'ss01' CONT SUB" supaTok_combLongGlyphExtTok
Colour: bf80ff
EndChar

StartChar: suwiTok
Encoding: 246 989542 246
Width: 1000
LayerCount: 2
Fore
SplineSet
580 175 m 0
 580 134 546 100 505 100 c 0
 464 100 430 134 430 175 c 0
 430 216 464 250 505 250 c 0
 546 250 580 216 580 175 c 0
600 450 m 0
 573 450 550 473 550 500 c 0
 550 513 555 525 565 535 c 2
 715 685 l 2
 725 695 737 700 750 700 c 0
 763 700 775 695 785 685 c 2
 935 535 l 2
 945 525 950 513 950 500 c 0
 950 473 927 450 900 450 c 0
 887 450 875 455 865 465 c 2
 750 579 l 1
 635 465 l 2
 625 455 613 450 600 450 c 0
100 450 m 0
 73 450 50 473 50 500 c 0
 50 513 55 525 65 535 c 2
 215 685 l 2
 225 695 237 700 250 700 c 0
 263 700 275 695 285 685 c 2
 435 535 l 2
 445 525 450 513 450 500 c 0
 450 473 427 450 400 450 c 0
 387 450 375 455 365 465 c 2
 250 579 l 1
 135 465 l 2
 125 455 113 450 100 450 c 0
EndSplineSet
Ligature2: "'liga' WORD PLUS SPACE" s u w i space
Ligature2: "'liga' WORD" s u w i
Substitution2: "'ss01' CART SUB" suwiTok_combCartExtTok
Substitution2: "'ss01' CONT SUB" suwiTok_combLongGlyphExtTok
Colour: bf80ff
EndChar

StartChar: tanTok
Encoding: 247 989543 247
Width: 1000
LayerCount: 2
Fore
SplineSet
891 150 m 0
 861 150 841 175 841 200 c 0
 841 204 842 207 843 211 c 0
 848 231 850 253 850 275 c 0
 850 427 727 550 575 550 c 0
 440 550 329 453 305 325 c 1
 365 385 l 2
 375 395 387 400 400 400 c 0
 427 400 450 377 450 350 c 0
 450 337 445 325 435 315 c 2
 285 165 l 2
 275 155 263 150 250 150 c 0
 237 150 225 155 215 165 c 2
 65 315 l 2
 55 325 50 337 50 350 c 0
 50 377 73 400 100 400 c 0
 113 400 125 395 135 385 c 2
 202 318 l 1
 223 505 383 650 575 650 c 0
 782 650 950 482 950 275 c 0
 950 245 947 217 940 189 c 0
 935 166 914 150 891 150 c 0
EndSplineSet
Ligature2: "'liga' WORD PLUS SPACE" t a n space
Ligature2: "'liga' WORD" t a n
Substitution2: "'ss01' CART SUB" tanTok_combCartExtTok
Substitution2: "'ss01' CONT SUB" tanTok_combLongGlyphExtTok
Colour: bf80ff
EndChar

StartChar: tasoTok
Encoding: 248 989544 248
Width: 1000
LayerCount: 2
Fore
SplineSet
700 800 m 2
 700 0 l 2
 700 -28 678 -50 650 -50 c 0
 622 -50 600 -28 600 0 c 2
 600 350 l 1
 350 350 l 2
 322 350 300 372 300 400 c 0
 300 428 322 450 350 450 c 2
 600 450 l 1
 600 800 l 2
 600 828 622 850 650 850 c 0
 678 850 700 828 700 800 c 2
EndSplineSet
Ligature2: "'liga' WORD PLUS SPACE" t a s o space
Ligature2: "'liga' WORD" t a s o
Substitution2: "'ss01' CART SUB" tasoTok_combCartExtTok
Substitution2: "'ss01' CONT SUB" tasoTok_combLongGlyphExtTok
Colour: bf80ff
EndChar

StartChar: tawaTok
Encoding: 249 989545 249
Width: 1000
LayerCount: 2
Fore
SplineSet
185 151 m 1
 227 123 278 100 375 100 c 0
 403 100 425 78 425 50 c 0
 425 22 403 0 375 0 c 0
 276 0 205 24 158 50 c 0
 124 69 105 83 86 107 c 0
 79 116 75 127 75 138 c 0
 75 144 77 150 79 156 c 2
 329 769 l 2
 337 788 355 800 375 800 c 0
 396 800 415 787 422 767 c 2
 660 101 l 1
 732 107 789 131 843 176 c 0
 852 184 864 188 875 188 c 0
 901 188 925 166 925 138 c 0
 925 124 919 109 907 99 c 0
 825 31 736 0 625 0 c 0
 604 0 585 13 578 33 c 2
 372 610 l 1
 185 151 l 1
EndSplineSet
Ligature2: "'liga' WORD PLUS SPACE" t a w a space
Ligature2: "'liga' WORD" t a w a
Substitution2: "'ss01' CART SUB" tawaTok_combCartExtTok
Substitution2: "'ss01' CONT SUB" tawaTok_combLongGlyphExtTok
Colour: bf80ff
EndChar

StartChar: teloTok
Encoding: 250 989546 250
Width: 1000
LayerCount: 2
Fore
SplineSet
900 326 m 0
 930 326 950 301 950 276 c 0
 950 270 949 263 947 258 c 0
 937 222 924 181 899 145 c 0
 864 95 793 50 702 50 c 0
 605 50 532 110 468 161 c 0
 398 216 354 250 299 250 c 0
 286 250 273 248 258 244 c 0
 215 233 194 215 181 197 c 0
 166 176 159 150 149 112 c 0
 143 89 122 74 100 74 c 0
 70 74 50 99 50 124 c 0
 50 128 50 132 51 136 c 0
 60 174 73 217 100 255 c 0
 136 305 208 350 299 350 c 0
 395 350 467 291 532 239 c 0
 601 185 647 150 702 150 c 0
 715 150 728 152 742 156 c 0
 784 167 804 184 817 202 c 0
 832 223 841 250 852 290 c 0
 858 312 878 326 900 326 c 0
900 726 m 0
 930 726 950 701 950 676 c 0
 950 670 949 663 947 658 c 0
 937 622 924 581 899 545 c 0
 864 495 793 450 702 450 c 0
 605 450 532 510 468 561 c 0
 398 616 354 650 299 650 c 0
 286 650 273 648 258 644 c 0
 215 633 194 615 181 597 c 0
 166 576 159 550 149 512 c 0
 143 489 122 474 100 474 c 0
 70 474 50 499 50 524 c 0
 50 528 50 532 51 536 c 0
 60 574 73 617 100 655 c 0
 136 705 208 750 299 750 c 0
 395 750 467 691 532 639 c 0
 601 585 647 550 702 550 c 0
 715 550 728 552 742 556 c 0
 784 567 804 584 817 602 c 0
 832 623 841 650 852 690 c 0
EndSplineSet
Ligature2: "'liga' WORD PLUS SPACE" t e l o space
Ligature2: "'liga' WORD" t e l o
Substitution2: "'ss01' CART SUB" teloTok_combCartExtTok
Substitution2: "'ss01' CONT SUB" teloTok_combLongGlyphExtTok
Colour: bf80ff
EndChar

StartChar: tenpoTok
Encoding: 251 989547 251
Width: 1000
LayerCount: 2
Fore
SplineSet
500 50 m 0
 693 50 850 207 850 400 c 0
 850 593 693 750 500 750 c 0
 307 750 150 593 150 400 c 0
 150 207 307 50 500 50 c 0
500 -50 m 0
 251 -50 50 151 50 400 c 0
 50 649 251 850 500 850 c 0
 749 850 950 649 950 400 c 0
 950 151 749 -50 500 -50 c 0
500 700 m 0
 528 700 550 678 550 650 c 2
 550 450 l 1
 650 450 l 2
 678 450 700 428 700 400 c 0
 700 372 678 350 650 350 c 2
 500 350 l 2
 472 350 450 372 450 400 c 2
 450 650 l 2
 450 678 472 700 500 700 c 0
EndSplineSet
Ligature2: "'liga' WORD PLUS SPACE" t e n p o space
Ligature2: "'liga' WORD" t e n p o
Substitution2: "'ss01' CART SUB" tenpoTok_combCartExtTok
Substitution2: "'ss01' CONT SUB" tenpoTok_combLongGlyphExtTok
Colour: bf80ff
EndChar

StartChar: tokiTok
Encoding: 252 989548 252
Width: 1000
LayerCount: 2
Fore
SplineSet
750 783 m 0
 779 783 800 758 800 733 c 0
 800 725 798 716 793 708 c 2
 743 621 l 2
 734 605 717 596 700 596 c 0
 671 596 650 621 650 646 c 0
 650 654 652 663 657 671 c 2
 707 758 l 2
 716 774 733 783 750 783 c 0
200 733 m 0
 200 758 221 783 250 783 c 0
 267 783 284 774 293 758 c 2
 343 671 l 2
 348 663 350 654 350 646 c 0
 350 621 329 596 300 596 c 0
 283 596 266 605 257 621 c 2
 207 708 l 2
 202 716 200 725 200 733 c 0
500 850 m 0
 528 850 550 828 550 800 c 2
 550 700 l 2
 550 672 528 650 500 650 c 0
 472 650 450 672 450 700 c 2
 450 800 l 2
 450 828 472 850 500 850 c 0
200 300 m 0
 200 466 334 600 500 600 c 0
 666 600 800 466 800 300 c 0
 800 134 666 0 500 0 c 0
 334 0 200 134 200 300 c 0
500 500 m 0
 390 500 300 410 300 300 c 0
 300 190 390 100 500 100 c 0
 610 100 700 190 700 300 c 0
 700 410 610 500 500 500 c 0
EndSplineSet
Ligature2: "'liga' WORD PLUS SPACE" t o k i space
Ligature2: "'liga' WORD" t o k i
Substitution2: "'ss01' CART SUB" tokiTok_combCartExtTok
Substitution2: "'ss01' CONT SUB" tokiTok_combLongGlyphExtTok
Colour: bf80ff
EndChar

StartChar: tomoTok
Encoding: 253 989549 253
Width: 1000
LayerCount: 2
Fore
SplineSet
200 427 m 1
 200 100 l 1
 800 100 l 1
 800 427 l 1
 500 684 l 1
 200 427 l 1
467 788 m 2
 476 796 488 800 500 800 c 0
 512 800 524 796 533 788 c 2
 883 488 l 2
 894 479 900 465 900 450 c 2
 900 50 l 2
 900 22 878 0 850 0 c 2
 150 0 l 2
 122 0 100 22 100 50 c 2
 100 450 l 2
 100 465 106 479 117 488 c 2
 467 788 l 2
EndSplineSet
Ligature2: "'liga' WORD PLUS SPACE" t o m o space
Ligature2: "'liga' WORD" t o m o
Substitution2: "'ss01' CART SUB" tomoTok_combCartExtTok
Substitution2: "'ss01' CONT SUB" tomoTok_combLongGlyphExtTok
Colour: bf80ff
EndChar

StartChar: tuTok
Encoding: 254 989550 254
Width: 1000
LayerCount: 2
Fore
SplineSet
680 -50 m 0
 652 -50 630 -28 630 0 c 2
 630 800 l 2
 630 828 652 850 680 850 c 0
 708 850 730 828 730 800 c 2
 730 0 l 2
 730 -28 708 -50 680 -50 c 0
320 -50 m 0
 292 -50 270 -28 270 0 c 2
 270 800 l 2
 270 828 292 850 320 850 c 0
 348 850 370 828 370 800 c 2
 370 0 l 2
 370 -28 348 -50 320 -50 c 0
EndSplineSet
Ligature2: "'liga' WORD PLUS SPACE" t u space
Ligature2: "'liga' WORD" t u
Substitution2: "'ss01' CART SUB" tuTok_combCartExtTok
Substitution2: "'ss01' CONT SUB" tuTok_combLongGlyphExtTok
Colour: bf80ff
EndChar

StartChar: unpaTok
Encoding: 255 989551 255
Width: 1000
LayerCount: 2
Fore
SplineSet
382 124 m 0
 405 99 442 82 500 82 c 0
 558 82 595 99 619 124 c 0
 642 150 658 191 658 251 c 0
 658 261 657 273 654 287 c 1
 606 279 553 275 500 275 c 0
 448 275 395 279 347 287 c 1
 344 273 343 261 343 251 c 0
 343 191 359 150 382 124 c 0
500 738 m 1
 550 781 632 818 703 818 c 0
 717 818 732 817 746 814 c 0
 814 802 870 758 910 689 c 0
 936 644 950 599 950 554 c 0
 950 531 946 508 939 486 c 0
 917 422 867 371 802 333 c 0
 787 324 770 317 751 311 c 1
 756 290 758 270 758 251 c 0
 758 175 738 106 692 56 c 0
 645 6 579 -18 500 -18 c 0
 422 -18 355 6 309 57 c 0
 263 106 243 175 243 251 c 0
 243 270 245 290 249 310 c 1
 162 344 88 406 61 486 c 0
 54 508 50 531 50 554 c 0
 50 599 64 644 90 689 c 0
 130 758 186 802 254 814 c 0
 268 817 283 818 297 818 c 0
 367 818 453 782 500 738 c 1
624 383 m 1
 592 457 547 535 500 593 c 1
 454 534 409 457 377 383 c 1
 416 378 458 375 500 375 c 0
 543 375 585 378 624 383 c 1
570 666 m 1
 629 593 686 499 722 406 c 1
 734 411 744 415 752 420 c 0
 804 450 833 484 844 517 c 0
 848 528 850 541 850 554 c 0
 850 579 842 606 824 639 c 0
 795 688 762 710 728 716 c 0
 720 717 712 718 704 718 c 0
 666 718 607 694 570 666 c 1
431 666 m 1
 395 694 335 718 296 718 c 0
 288 718 280 717 272 716 c 0
 238 710 205 688 176 639 c 0
 158 606 150 579 150 554 c 0
 150 541 152 528 156 517 c 0
 168 480 218 426 279 406 c 1
 315 499 372 594 431 666 c 1
EndSplineSet
Ligature2: "'liga' WORD PLUS SPACE" u n p a space
Ligature2: "'liga' WORD" u n p a
Substitution2: "'ss01' CART SUB" unpaTok_combCartExtTok
Substitution2: "'ss01' CONT SUB" unpaTok_combLongGlyphExtTok
Colour: bf80ff
EndChar

StartChar: utaTok
Encoding: 256 989552 256
Width: 1000
LayerCount: 2
Fore
SplineSet
500 361 m 0
 369 361 256 462 234 599 c 1
 766 599 l 1
 744 462 631 361 500 361 c 0
500 261 m 0
 707 261 870 437 870 649 c 0
 870 677 848 699 820 699 c 2
 180 699 l 2
 152 699 130 677 130 649 c 0
 130 437 293 261 500 261 c 0
425 115 m 0
 425 156 459 190 500 190 c 0
 541 190 575 156 575 115 c 0
 575 74 541 40 500 40 c 0
EndSplineSet
Ligature2: "'liga' WORD PLUS SPACE" u t a space
Ligature2: "'liga' WORD" u t a
Substitution2: "'ss01' CART SUB" utaTok_combCartExtTok
Substitution2: "'ss01' CONT SUB" utaTok_combLongGlyphExtTok
Colour: bf80ff
EndChar

StartChar: utalaTok
Encoding: 257 989553 257
Width: 1000
LayerCount: 2
Fore
SplineSet

762 800 m 0
 790 800 812 776 812 750 c 0
 812 740 809 729 802 720 c 2
 562 400 l 1
 745 156 l 1
 803 328 l 2
 810 349 829 363 850 363 c 0
 880 363 900 338 900 313 c 0
 900 308 899 302 897 297 c 2
 810 34 l 2
 804 15 787 0 763 0 c 0
 747 0 733 7 723 20 c 2
 500 317 l 1
 277 20 l 2
 267 7 253 0 237 0 c 0
 213 0 196 15 190 34 c 2
 103 297 l 2
 101 302 100 308 100 313 c 0
 100 338 120 363 150 363 c 0
 171 363 190 349 197 328 c 2
 255 156 l 1
 438 400 l 1
 198 720 l 2
 191 729 188 740 188 750 c 0
 188 776 210 800 238 800 c 0
 253 800 268 793 278 780 c 2
 500 484 l 1
 722 780 l 2
 732 793 747 800 762 800 c 0
EndSplineSet
Ligature2: "'liga' WORD PLUS SPACE" u t a l a space
Ligature2: "'liga' WORD" u t a l a
Substitution2: "'ss01' CART SUB" utalaTok_combCartExtTok
Substitution2: "'ss01' CONT SUB" utalaTok_combLongGlyphExtTok
Colour: bf80ff
EndChar

StartChar: waloTok
Encoding: 258 989554 258
Width: 1000
LayerCount: 2
Fore
SplineSet
50 505 m 0
 50 534 74 555 100 555 c 0
 109 555 117 553 125 548 c 2
 287 455 l 1
 457 750 l 2
 466 765 482 775 500 775 c 0
 518 775 534 765 543 750 c 2
 713 455 l 1
 875 548 l 2
 883 553 891 555 900 555 c 0
 925 555 950 534 950 505 c 0
 950 488 941 471 925 462 c 2
 763 369 l 1
 933 75 l 2
 937 67 940 59 940 50 c 0
 940 21 916 0 890 0 c 2
 110 0 l 2
 84 0 60 21 60 50 c 0
 60 59 63 67 67 75 c 2
 237 369 l 1
 75 462 l 2
 59 471 50 488 50 505 c 0
649 368 m 1
 500 625 l 1
 350 366 l 1
 350 364 349 363 348 362 c 0
 348 361 347 359 346 358 c 2
 197 100 l 1
 803 100 l 1
 655 356 l 2
 653 359 649 363 649 368 c 1
EndSplineSet
Ligature2: "'liga' WORD PLUS SPACE" w a l o space
Ligature2: "'liga' WORD" w a l o
Substitution2: "'ss01' CART SUB" waloTok_combCartExtTok
Substitution2: "'ss01' CONT SUB" waloTok_combLongGlyphExtTok
Colour: bf80ff
EndChar

StartChar: wanTok
Encoding: 259 989555 259
Width: 1000
LayerCount: 2
Fore
SplineSet
599 850 m 0
 629 850 650 825 650 800 c 2
 650 0 l 2
 650 -28 628 -50 600 -50 c 0
 572 -50 550 -28 550 0 c 2
 550 679 l 1
 385 515 l 2
 375 505 363 500 350 500 c 0
 324 500 300 524 300 550 c 0
 300 563 305 575 315 585 c 2
 565 835 l 2
 574 845 586 850 599 850 c 0
EndSplineSet
Ligature2: "'liga' WORD PLUS SPACE" w a n space
Ligature2: "'liga' WORD" w a n
Substitution2: "'ss01' CART SUB" wanTok_combCartExtTok
Substitution2: "'ss01' CONT SUB" wanTok_combLongGlyphExtTok
Colour: bf80ff
EndChar

StartChar: wasoTok
Encoding: 260 989556 260
Width: 1000
LayerCount: 2
Fore
SplineSet
300 375 m 0
 300 334 266 300 225 300 c 0
 184 300 150 334 150 375 c 0
 150 416 184 450 225 450 c 0
 266 450 300 416 300 375 c 0
530 375 m 0
 530 334 496 300 455 300 c 0
 414 300 380 334 380 375 c 0
 380 416 414 450 455 450 c 0
 496 450 530 416 530 375 c 0
300 800 m 0
 300 826 322 850 350 850 c 0
 365 850 380 843 390 830 c 2
 840 230 l 2
 847 221 850 211 850 200 c 0
 850 170 826 150 800 150 c 2
 250 150 l 1
 250 -0 l 2
 250 -28 228 -50 200 -50 c 0
 172 -50 150 -28 150 -0 c 2
 150 200 l 2
 150 228 172 250 200 250 c 2
 700 250 l 1
 310 770 l 2
 303 779 300 790 300 800 c 0
EndSplineSet
Ligature2: "'liga' WORD PLUS SPACE" w a s o space
Ligature2: "'liga' WORD" w a s o
Substitution2: "'ss01' CART SUB" wasoTok_combCartExtTok
Substitution2: "'ss01' CONT SUB" wasoTok_combLongGlyphExtTok
Colour: bf80ff
EndChar

StartChar: wawaTok
Encoding: 261 989557 261
Width: 1000
LayerCount: 2
Fore
SplineSet
50 745 m 1
 50 749 l 2
 50 776 70 800 100 800 c 0
 126 800 147 780 150 755 c 2
 200 205 l 1
 200 201 l 2
 200 174 180 150 150 150 c 0
 124 150 103 170 100 195 c 2
 50 745 l 1
900 800 m 0
 930 800 950 776 950 749 c 2
 950 745 l 1
 900 195 l 2
 897 170 876 150 850 150 c 0
 820 150 800 174 800 201 c 2
 800 205 l 1
 850 755 l 2
 853 780 874 800 900 800 c 0
200 350 m 0
 200 516 334 650 500 650 c 0
 666 650 800 516 800 350 c 0
 800 184 666 50 500 50 c 0
 334 50 200 184 200 350 c 0
500 550 m 0
 390 550 300 460 300 350 c 0
 300 240 390 150 500 150 c 0
 610 150 700 240 700 350 c 0
 700 460 610 550 500 550 c 0
EndSplineSet
Ligature2: "'liga' WORD PLUS SPACE" w a w a space
Ligature2: "'liga' WORD" w a w a
Substitution2: "'ss01' CART SUB" wawaTok_combCartExtTok
Substitution2: "'ss01' CONT SUB" wawaTok_combLongGlyphExtTok
Colour: bf80ff
EndChar

StartChar: wekaTok
Encoding: 262 989558 262
Width: 1000
LayerCount: 2
Fore
SplineSet
636.227539062 316.09375 m 0
 608.631835938 316.09375 586.227539062 293.689453125 586.227539062 266.09375 c 0
 586.227539062 251.6640625 592.353515625 238.653320312 602.143554688 229.5234375 c 2
 829.688476562 17.3359375 l 2
 838.622070312 9.005859375 850.606445312 3.90625 863.772460938 3.90625 c 0
 891.368164062 3.90625 913.772460938 26.310546875 913.772460938 53.90625 c 0
 913.772460938 68.3359375 907.646484375 81.3466796875 897.856445312 90.4765625 c 2
 670.311523438 302.6640625 l 2
 661.377929688 310.994140625 649.393554688 316.09375 636.227539062 316.09375 c 0
86.2275390625 53.90625 m 0
 86.2275390625 26.310546875 108.631835938 3.90625 136.227539062 3.90625 c 0
 149.393554688 3.90625 161.377929688 9.005859375 170.311523438 17.3359375 c 2
 397.856445312 229.5234375 l 2
 407.646484375 238.653320312 413.772460938 251.6640625 413.772460938 266.09375 c 0
 413.772460938 293.689453125 391.368164062 316.09375 363.772460938 316.09375 c 0
 350.606445312 316.09375 338.622070312 310.994140625 329.688476562 302.6640625 c 2
 102.143554688 90.4765625 l 2
 92.353515625 81.3466796875 86.2275390625 68.3359375 86.2275390625 53.90625 c 0
586.227539062 533.90625 m 0
 586.227539062 506.310546875 608.631835938 483.90625 636.227539062 483.90625 c 0
 649.393554688 483.90625 661.377929688 489.005859375 670.311523438 497.3359375 c 2
 897.856445312 709.5234375 l 2
 907.646484375 718.653320312 913.772460938 731.6640625 913.772460938 746.09375 c 0
 913.772460938 773.689453125 891.368164062 796.09375 863.772460938 796.09375 c 0
 850.606445312 796.09375 838.622070312 790.994140625 829.688476562 782.6640625 c 2
 602.143554688 570.4765625 l 2
 592.353515625 561.346679688 586.227539062 548.3359375 586.227539062 533.90625 c 0
136.227539062 796.09375 m 0
 108.631835938 796.09375 86.2275390625 773.689453125 86.2275390625 746.09375 c 0
 86.2275390625 731.6640625 92.353515625 718.653320312 102.143554688 709.5234375 c 2
 329.688476562 497.3359375 l 2
 338.622070312 489.005859375 350.606445312 483.90625 363.772460938 483.90625 c 0
 391.368164062 483.90625 413.772460938 506.310546875 413.772460938 533.90625 c 0
 413.772460938 548.3359375 407.646484375 561.346679688 397.856445312 570.4765625 c 2
 170.311523438 782.6640625 l 2
 161.377929688 790.994140625 149.393554688 796.09375 136.227539062 796.09375 c 0
EndSplineSet
Ligature2: "'liga' WORD PLUS SPACE" w e k a space
Ligature2: "'liga' WORD" w e k a
Substitution2: "'ss01' CART SUB" wekaTok_combCartExtTok
Substitution2: "'ss01' CONT SUB" wekaTok_combLongGlyphExtTok
Colour: bf80ff
EndChar

StartChar: wileTok
Encoding: 263 989559 263
Width: 1000
LayerCount: 2
Fore
SplineSet
650 149 m 0
 783 149 850 277 850 414 c 0
 850 544 784 625 744 664 c 0
 734 674 730 687 730 700 c 0
 730 713 734 725 744 735 c 0
 754 745 767 750 780 750 c 0
 793 750 805 746 815 736 c 0
 864 687 950 581 950 414 c 0
 950 224 841 49 650 49 c 0
 588 49 536 68 500 107 c 1
 464 68 412 49 350 49 c 0
 159 49 50 224 50 414 c 0
 50 581 136 687 185 736 c 0
 195 746 207 750 220 750 c 0
 233 750 246 745 256 735 c 0
 266 725 270 713 270 700 c 0
 270 687 266 674 256 664 c 0
 216 625 150 544 150 414 c 0
 150 277 217 149 350 149 c 0
 395 149 416 162 428 176 c 0
 441 192 450 220 450 264 c 0
 450 292 472 314 500 314 c 0
 528 314 550 292 550 264 c 0
 550 220 559 192 572 176 c 0
 584 162 605 149 650 149 c 0
EndSplineSet
Ligature2: "'liga' WORD PLUS SPACE" w i l e space
Ligature2: "'liga' WORD" w i l e
Substitution2: "'ss01' CART SUB" wileTok_combCartExtTok
Substitution2: "'ss01' CONT SUB" wileTok_combLongGlyphExtTok
Colour: bf80ff
EndChar

StartChar: namakoTok
Encoding: 264 989560 264
Width: 1000
LayerCount: 2
Fore
SplineSet
213 0 m 4
 187 0 163 20 163 50 c 4
 163 65 169 79 181 89 c 4
 273 164 316 207 339 253 c 4
 361 298 367 350 367 450 c 4
 367 478 389 500 417 500 c 4
 445 500 467 478 467 450 c 4
 467 350 463 277 429 209 c 4
 411 173 386 141 353 107 c 5
 476 121 549 153 592 195 c 4
 649 250 667 331 667 450 c 4
 667 478 689 500 717 500 c 4
 745 500 767 478 767 450 c 4
 767 326 749 208 661 123 c 4
 574 39 432 0 213 0 c 4
567 800 m 4
 595 800 617 778 617 750 c 6
 617 650 l 6
 617 622 595 600 567 600 c 4
 539 600 517 622 517 650 c 6
 517 750 l 6
 517 778 539 800 567 800 c 4
786 746 m 4
 816 746 836 721 836 696 c 4
 836 690 835 683 832 677 c 6
 794 585 l 6
 786 566 768 554 748 554 c 4
 718 554 698 579 698 604 c 4
 698 610 699 617 702 623 c 6
 740 715 l 6
 748 734 766 746 786 746 c 4
298 696 m 4
 298 721 318 746 348 746 c 4
 368 746 386 734 394 715 c 6
 432 623 l 6
 435 617 436 610 436 604 c 4
 436 579 416 554 386 554 c 4
 366 554 348 566 340 585 c 6
 302 677 l 6
 299 683 298 690 298 696 c 4
EndSplineSet
Ligature2: "'liga' WORD PLUS SPACE" n a m a k o space
Ligature2: "'liga' WORD" n a m a k o
Substitution2: "'ss01' CART SUB" namakoTok_combCartExtTok
Substitution2: "'ss01' CONT SUB" namakoTok_combLongGlyphExtTok
Colour: bf80ff
EndChar

StartChar: kinTok
Encoding: 265 989561 265
Width: 1000
LayerCount: 2
Fore
SplineSet
550 800 m 2
 550 450 l 2
 550 422 528 400 500 400 c 0
 472 400 450 422 450 450 c 2
 450 800 l 2
 450 828 472 850 500 850 c 0
 528 850 550 828 550 800 c 2
320 225 m 0
 320 254 345 275 370 275 c 0
 379 275 387 273 395 268 c 2
 450 237 l 1
 450 300 l 2
 450 328 472 350 500 350 c 0
 528 350 550 328 550 300 c 2
 550 237 l 1
 605 268 l 2
 613 273 621 275 630 275 c 0
 655 275 680 254 680 225 c 0
 680 208 671 191 655 182 c 2
 600 150 l 1
 655 118 l 2
 671 109 680 92 680 75 c 0
 680 46 655 25 630 25 c 0
 621 25 613 27 605 32 c 2
 550 63 l 1
 550 0 l 2
 550 -28 528 -50 500 -50 c 0
 472 -50 450 -28 450 0 c 2
 450 63 l 1
 395 32 l 2
 387 27 379 25 370 25 c 0
 345 25 320 46 320 75 c 0
 320 92 329 109 345 118 c 2
 400 150 l 1
 345 182 l 2
 329 191 320 208 320 225 c 0
EndSplineSet
Ligature2: "'liga' WORD PLUS SPACE" k i n space
Ligature2: "'liga' WORD" k i n
Substitution2: "'ss01' CART SUB" kinTok_combCartExtTok
Substitution2: "'ss01' CONT SUB" kinTok_combLongGlyphExtTok
Colour: bf80ff
EndChar

StartChar: okoTok
Encoding: 266 989562 266
Width: 1000
LayerCount: 2
Fore
SplineSet
600 400 m 0
 600 345 555 300 500 300 c 0
 445 300 400 345 400 400 c 0
 400 455 445 500 500 500 c 0
 555 500 600 455 600 400 c 0
880 500 m 1
 881 499 l 1
 906 469 929 436 947 400 c 1
 928 364 906 330 880 300 c 0
 788 193 652 125 500 125 c 0
 348 125 212 193 120 300 c 0
 94 330 72 364 53 400 c 1
 72 436 94 470 120 500 c 0
 212 607 348 675 500 675 c 0
 652 675 788 607 880 500 c 1
831 400 m 1
 759 506 637 575 500 575 c 0
 363 575 241 506 169 400 c 1
 241 294 363 225 500 225 c 0
 637 225 759 294 831 400 c 1
EndSplineSet
Ligature2: "'liga' WORD PLUS SPACE" o k o space
Ligature2: "'liga' WORD" o k o
Substitution2: "'ss01' CART SUB" okoTok_combCartExtTok
Substitution2: "'ss01' CONT SUB" okoTok_combLongGlyphExtTok
Colour: bf80ff
EndChar

StartChar: kipisiTok
Encoding: 267 989563 267
Width: 1000
LayerCount: 2
Fore
SplineSet
800 200 m 0
 800 145 755 100 700 100 c 0
 645 100 600 145 600 200 c 0
 600 255 645 300 700 300 c 0
 755 300 800 255 800 200 c 0
400 600 m 0
 400 545 355 500 300 500 c 0
 245 500 200 545 200 600 c 0
 200 655 245 700 300 700 c 0
 355 700 400 655 400 600 c 0
750 700 m 0
 777 700 800 677 800 650 c 0
 800 637 795 625 785 615 c 2
 285 115 l 2
 275 105 263 100 250 100 c 0
 223 100 200 123 200 150 c 0
 200 163 205 175 215 185 c 2
 715 685 l 2
 725 695 737 700 750 700 c 0
EndSplineSet
Ligature2: "'liga' WORD PLUS SPACE" k i p i s i space
Ligature2: "'liga' WORD" k i p i s i
Substitution2: "'ss01' CART SUB" kipisiTok_combCartExtTok
Substitution2: "'ss01' CONT SUB" kipisiTok_combLongGlyphExtTok
Colour: bf80ff
EndChar

StartChar: lekoTok
Encoding: 268 989564 268
Width: 1000
LayerCount: 2
Fore
SplineSet
400 500 m 1
 400 300 l 1
 600 300 l 1
 600 500 l 1
 400 500 l 1
300 550 m 2
 300 578 322 600 350 600 c 2
 650 600 l 2
 678 600 700 578 700 550 c 2
 700 250 l 2
 700 222 678 200 650 200 c 2
 350 200 l 2
 322 200 300 222 300 250 c 2
 300 550 l 2
200 700 m 1
 200 100 l 1
 800 100 l 1
 800 700 l 1
 200 700 l 1
100 750 m 2
 100 778 122 800 150 800 c 2
 850 800 l 2
 878 800 900 778 900 750 c 2
 900 50 l 2
 900 22 878 0 850 0 c 2
 150 0 l 2
 122 0 100 22 100 50 c 2
 100 750 l 2
EndSplineSet
Ligature2: "'liga' WORD PLUS SPACE" l e k o space
Ligature2: "'liga' WORD" l e k o
Substitution2: "'ss01' CART SUB" lekoTok_combCartExtTok
Substitution2: "'ss01' CONT SUB" lekoTok_combLongGlyphExtTok
Colour: bf80ff
EndChar

StartChar: monsutaTok
Encoding: 269 989565 269
Width: 1000
LayerCount: 2
Fore
SplineSet
950 352 m 0
 950 327 930 302 900 302 c 0
 880 302 862 314 854 334 c 2
 838 371 l 1
 793 257 l 2
 785 238 766 226 746 226 c 0
 725 226 707 239 699 258 c 2
 628 446 l 1
 548 185 l 2
 541 164 522 150 500 150 c 0
 478 150 459 164 452 185 c 2
 372 446 l 1
 301 258 l 2
 293 239 275 226 254 226 c 0
 234 226 215 238 207 257 c 2
 162 371 l 1
 146 334 l 2
 138 314 120 302 100 302 c 0
 70 302 50 327 50 352 c 0
 50 358 51 365 54 371 c 2
 115 523 l 2
 123 542 141 555 162 555 c 0
 182 555 200 542 208 523 c 2
 252 413 l 1
 330 618 l 2
 338 637 356 650 377 650 c 0
 400 650 418 635 425 615 c 2
 500 370 l 1
 575 615 l 2
 582 635 600 650 623 650 c 0
 644 650 662 637 670 618 c 2
 748 413 l 1
 792 523 l 2
 800 542 818 555 838 555 c 0
 859 555 877 542 885 523 c 2
 946 371 l 2
 949 365 950 358 950 352 c 0
EndSplineSet
Ligature2: "'liga' WORD PLUS SPACE" m o n s u t a space
Ligature2: "'liga' WORD" m o n s u t a
Substitution2: "'ss01' CART SUB" monsutaTok_combCartExtTok
Substitution2: "'ss01' CONT SUB" monsutaTok_combLongGlyphExtTok
Colour: bf80ff
EndChar

StartChar: tonsiTok
Encoding: 270 989566 270
Width: 1000
LayerCount: 2
Fore
SplineSet
50 741 m 0
 50 770 75 791 100 791 c 0
 109 791 117 789 125 784 c 2
 269 701 l 1
 324 768 407 810 500 810 c 0
 593 810 676 768 731 701 c 1
 875 784 l 2
 883 789 891 791 900 791 c 0
 925 791 950 772 950 742 c 0
 950 725 941 707 925 698 c 2
 781 615 l 1
 793 582 800 547 800 510 c 0
 800 361 692 238 550 214 c 1
 550 48 l 2
 550 20 528 -2 500 -2 c 0
 472 -2 450 20 450 48 c 2
 450 214 l 1
 308 238 200 361 200 510 c 0
 200 547 207 582 219 615 c 1
 75 698 l 2
 59 707 50 724 50 741 c 0
500 310 m 0
 611 310 700 400 700 510 c 0
 700 546 691 579 674 609 c 1
 674 609 674 610 673 610 c 1
 673 611 l 1
 638 670 574 710 500 710 c 0
 427 710 362 670 328 611 c 0
 327 611 327 610 327 610 c 1
 326 609 l 1
 310 579 300 546 300 510 c 0
 300 400 390 310 500 310 c 0
EndSplineSet
Ligature2: "'liga' WORD PLUS SPACE" t o n s i space
Ligature2: "'liga' WORD" t o n s i
Substitution2: "'ss01' CART SUB" tonsiTok_combCartExtTok
Substitution2: "'ss01' CONT SUB" tonsiTok_combLongGlyphExtTok
Colour: bf80ff
EndChar

